<?xml version="1.0" standalone="no"?>
<!DOCTYPE svg PUBLIC "-//W3C//DTD SVG 20010904//EN"
 "http://www.w3.org/TR/2001/REC-SVG-20010904/DTD/svg10.dtd">
<svg version="1.0" xmlns="http://www.w3.org/2000/svg"
 width="1024.000000pt" height="1024.000000pt" viewBox="0 0 1024.000000 1024.000000"
 preserveAspectRatio="xMidYMid meet">
<metadata>
Created by potrace 1.16, written by Peter Selinger 2001-2019
</metadata>
<g transform="translate(0.000000,1024.000000) scale(0.100000,-0.100000)"
fill="#000000" stroke="none">
<path d="M0 5518 l0 -4723 2507 3 c1988 2 2509 5 2515 15 6 9 8 9 8 0 0 -9 20
-13 64 -13 56 0 66 3 71 20 9 30 53 27 65 -5 9 -25 15 -26 139 -15 13 1 -25
30 -39 30 -10 0 -25 11 -34 25 -12 18 -25 25 -49 25 -23 0 -41 8 -57 25 -21
22 -32 25 -97 25 -52 0 -73 4 -73 13 0 9 21 11 82 9 72 -3 84 -6 100 -28 20
-25 54 -32 60 -12 2 6 19 -7 38 -30 18 -23 38 -42 44 -42 5 0 20 -9 32 -21 18
-17 39 -22 118 -26 l96 -6 0 32 c0 28 -3 31 -32 32 l-33 1 38 8 c34 6 41 4 72
-27 l34 -34 141 2 c123 1 144 4 166 21 14 11 28 18 31 14 4 -3 1 -6 -5 -6 -7
0 -12 -6 -12 -13 0 -8 7 -14 15 -14 8 0 12 4 9 9 -3 4 1 8 10 8 8 0 16 -5 18
-12 3 -8 231 -12 902 -14 l898 -2 10 29 c14 41 61 41 79 1 9 -22 20 -29 45
-30 18 -2 35 2 39 8 4 6 -9 10 -32 11 -35 1 -36 2 -9 8 28 6 18 17 -315 344
l-343 339 -1 441 0 442 -23 31 c-19 25 -21 35 -13 57 13 34 53 45 86 23 33
-21 33 -60 0 -90 l-25 -23 0 -434 0 -434 283 -283 c155 -155 285 -282 290
-282 4 0 7 11 7 24 0 15 7 27 19 31 21 6 51 -3 51 -16 0 -5 111 -9 253 -9
l253 0 52 -53 c43 -44 52 -59 52 -89 l0 -36 76 -4 c42 -2 78 -1 80 1 2 2 -3
12 -11 21 -13 14 -15 37 -12 111 l3 94 2 -96 c2 -112 11 -125 82 -130 l45 -4
3 74 3 75 -76 76 c-68 68 -83 79 -132 89 -48 11 -57 11 -73 -4 -22 -20 -49
-17 -64 8 -24 38 29 73 64 42 10 -9 30 -15 45 -13 l28 3 -48 53 -48 53 -169
-3 c-146 -3 -172 -5 -185 -20 -20 -22 -46 -23 -63 -3 -15 18 -6 61 16 69 17 7
54 -10 54 -24 0 -6 70 -10 178 -10 l177 0 65 -65 c36 -36 106 -107 157 -158
l92 -92 3 -75 3 -75 38 -3 c29 -3 37 -7 37 -23 0 -11 -7 -22 -15 -25 -28 -11
-15 -41 40 -93 42 -40 59 -50 69 -42 18 15 51 -10 43 -33 -12 -30 -41 -17
-104 46 l-63 62 0 -49 c0 -46 3 -52 36 -74 36 -25 63 -61 45 -61 -5 0 -12 4
-16 10 -3 5 -19 19 -35 30 l-30 21 0 -26 c0 -22 3 -25 24 -19 34 8 44 -15 15
-36 -17 -14 -23 -28 -23 -59 -1 -23 -4 -41 -8 -41 -5 0 -8 -7 -8 -15 0 -24 15
-18 68 30 36 32 49 51 45 64 -7 26 32 48 53 30 18 -15 18 -48 -1 -55 -8 -4
-15 -18 -15 -33 0 -39 -99 -136 -129 -126 -19 6 -21 3 -21 -35 0 -37 2 -41 21
-35 25 8 170 154 168 169 -4 30 2 37 29 34 20 -2 28 -9 30 -28 2 -21 -18 -49
-98 -138 -55 -62 -105 -112 -111 -112 -5 0 24 35 65 77 108 114 131 143 112
143 -8 0 -54 -36 -100 -80 -47 -44 -92 -80 -101 -80 -10 0 -15 -10 -15 -30 0
-17 5 -30 13 -30 8 0 7 -4 -3 -10 -13 -9 -13 -11 0 -20 10 -6 11 -10 3 -10 -7
0 -13 -4 -13 -9 0 -14 112 -21 129 -8 26 22 131 147 131 157 0 29 -46 2 -111
-65 -56 -58 -78 -75 -98 -74 l-26 2 27 4 c31 5 155 136 150 159 -5 22 29 30
44 10 10 -15 15 -15 34 -4 18 11 23 11 35 -6 18 -24 2 -60 -25 -53 -12 3 -41
-19 -96 -75 -66 -66 -84 -79 -109 -77 -50 2 -63 -1 -40 -11 18 -8 17 -9 -7 -9
-22 -1 -26 3 -21 16 4 11 3 14 -5 9 -7 -4 -12 -18 -12 -32 l0 -24 113 0 c106
0 113 1 122 22 14 32 31 33 60 4 20 -20 34 -25 75 -24 35 0 48 3 44 11 -4 8
-2 7 7 0 7 -7 28 -13 46 -13 l33 0 0 72 c0 68 -1 73 -32 98 -22 19 -29 32 -25
44 11 27 51 17 54 -14 l3 -25 -10 23 c-6 13 -15 22 -22 20 -23 -8 -19 -27 10
-42 16 -8 32 -22 35 -30 3 -8 16 -16 29 -18 17 -2 24 -11 26 -30 4 -32 8 -34
28 -13 37 37 83 -3 61 -52 -13 -30 -32 -29 -62 1 -13 14 -34 27 -45 31 -11 3
-20 12 -21 18 -1 22 -18 -28 -18 -55 l-1 -28 118 0 c78 0 122 4 130 12 9 9 15
9 24 0 14 -14 258 -17 258 -4 0 23 -30 32 -105 32 -70 0 -85 3 -100 20 -17 18
-20 19 -28 5 -12 -22 -37 -1 -37 30 0 25 -38 55 -69 55 -18 0 -19 3 -11 26 15
39 12 52 -12 57 l-23 4 23 2 c19 1 23 6 20 29 -3 25 -6 27 -53 27 -60 0 -75 8
-75 41 0 36 35 46 82 23 69 -35 87 -16 48 49 -15 24 -27 32 -50 32 -25 0 -31
5 -38 32 -8 32 -40 58 -90 73 -18 5 -22 2 -22 -15 0 -11 7 -32 16 -45 13 -20
14 -28 4 -40 -17 -21 -29 -19 -40 8 -8 21 -9 21 -9 -5 -1 -16 4 -28 9 -28 6 0
10 -13 10 -29 0 -30 -28 -50 -50 -36 -14 9 -12 45 3 50 9 4 13 49 14 168 l2
163 -84 78 -85 77 0 84 c0 46 -4 87 -10 90 -6 4 -10 -28 -10 -87 l0 -94 50
-49 50 -49 0 -184 c0 -152 3 -186 16 -199 32 -32 -6 -92 -40 -64 -20 17 -21
57 0 69 13 7 15 34 12 193 l-3 184 -50 47 -50 47 3 295 3 296 -50 0 -51 0 0
-71 c0 -64 3 -74 25 -95 26 -24 33 -77 15 -119 -6 -14 -9 -2 -9 41 -1 49 -5
64 -20 75 -18 13 -30 71 -31 147 0 19 -5 22 -37 22 -29 0 -34 -3 -25 -12 19
-19 15 -66 -8 -78 -19 -10 -20 -21 -20 -170 l0 -159 30 -23 c30 -22 30 -23 30
-117 l0 -96 35 -28 c36 -29 38 -47 5 -47 -13 0 -20 -9 -23 -27 l-4 -28 -2 27
c-1 22 -6 27 -33 30 -32 3 -33 5 -36 51 -2 33 0 47 7 42 6 -3 11 -17 11 -31 0
-15 6 -24 15 -24 12 0 15 19 15 110 l0 109 -30 23 c-28 20 -30 26 -30 86 0 64
0 65 -20 47 -18 -16 -20 -31 -20 -119 l0 -101 40 -30 c39 -28 46 -45 22 -53
-6 -2 -17 9 -25 25 -8 15 -23 36 -34 45 -16 15 -18 30 -17 112 2 82 0 96 -17
112 -22 20 -25 44 -7 62 19 19 45 14 62 -10 15 -21 16 -16 16 80 0 63 -4 102
-10 102 -20 0 -29 44 -14 68 l14 22 -85 0 -85 0 0 -162 0 -163 47 -41 c49 -43
51 -65 5 -63 -15 0 -21 3 -14 6 20 8 14 27 -18 58 l-30 28 -2 166 -3 166 -405
3 -405 2 -182 183 -182 182 -3 321 c-3 290 -5 324 -20 341 -25 28 -22 60 7 79
23 15 27 15 50 0 30 -20 33 -56 5 -81 -19 -17 -20 -30 -19 -329 l0 -311 173
-178 174 -178 363 -3 c200 -2 376 -1 391 1 18 4 28 12 30 27 4 31 59 30 73 -2
13 -29 29 -32 150 -29 l100 2 3 143 c2 120 0 143 -13 148 -17 7 -21 59 -4 69
5 4 21 4 35 1 28 -7 33 -45 9 -70 -12 -11 -15 -44 -15 -155 l0 -141 50 0 50 0
0 50 c0 34 -5 52 -16 58 -9 5 -14 18 -12 33 2 19 9 24 32 24 41 0 57 -28 30
-54 -16 -14 -21 -30 -20 -63 l1 -43 100 1 c55 0 134 1 175 2 l75 2 128 124
127 125 0 839 c0 753 -2 840 -16 846 -10 4 -14 16 -12 38 3 29 7 33 35 36 27
3 35 -1 45 -22 10 -23 8 -29 -12 -51 l-23 -24 6 -623 c3 -343 3 -722 1 -843
l-6 -220 -120 -117 c-66 -65 -114 -118 -106 -118 8 0 23 9 33 20 23 26 51 26
65 0 11 -21 48 -26 109 -14 29 6 31 8 25 43 -7 41 13 68 43 57 11 -5 28 4 50
26 l33 32 0 460 0 459 135 137 135 136 0 1887 0 1887 -125 0 c-93 0 -125 3
-126 13 0 6 -4 3 -9 -9 -4 -11 -8 -76 -7 -145 0 -68 -3 -138 -7 -154 -6 -29
-9 -30 -47 -27 -22 3 -45 0 -51 -6 -6 -6 -21 -7 -38 -2 -22 6 -27 5 -26 -7 0
-9 -5 -18 -13 -21 -8 -2 -11 -1 -8 4 3 5 -5 10 -17 10 -15 1 -22 -4 -22 -16 0
-11 5 -16 15 -12 8 3 12 1 8 -5 -4 -6 -16 -13 -27 -16 -11 -3 -18 -2 -15 3 3
4 -2 10 -10 13 -9 4 -12 1 -8 -9 3 -7 1 -14 -3 -15 -40 -3 -72 -19 -40 -19 12
0 16 -5 13 -14 -4 -9 3 -16 15 -20 18 -4 19 -8 9 -20 -7 -8 -9 -21 -5 -28 6
-10 3 -9 -9 1 -16 13 -16 14 0 28 17 13 17 14 -2 11 -14 -2 -20 -11 -21 -29
-1 -14 -5 -32 -9 -40 -6 -11 -5 -12 6 -1 16 15 304 17 314 2 4 -6 -16 -10 -52
-11 -205 -4 -333 -3 -339 4 -4 4 -9 38 -10 75 -1 37 -7 81 -13 97 -6 17 -16
49 -21 72 -8 33 -16 43 -40 52 -22 7 -30 16 -30 35 0 37 -10 56 -30 56 -11 0
-20 -10 -24 -25 -5 -21 -12 -25 -47 -25 -45 0 -64 24 -35 46 16 11 13 13 -27
19 -77 12 -86 0 -103 -132 -3 -23 -14 -49 -25 -59 -12 -10 -19 -30 -19 -51 0
-28 -6 -37 -35 -54 -35 -21 -35 -22 -37 -92 -1 -69 -4 -129 -7 -172 -1 -18 -2
-18 -14 4 -16 31 -51 40 -114 27 -43 -8 -45 2 -48 219 -3 250 -12 332 -36 338
-10 3 -23 17 -29 31 -9 25 -12 26 -94 26 -96 0 -116 -5 -116 -30 0 -21 -17
-36 -45 -42 -28 -5 -43 -118 -44 -325 l-1 -161 -41 -7 c-76 -13 -211 -9 -219
6 -5 8 -11 63 -14 123 -7 117 -27 173 -36 101 -7 -55 -30 -58 -30 -5 l0 42
-97 -7 c-54 -4 -106 -11 -116 -17 -21 -11 -37 -48 -37 -88 0 -22 -7 -33 -29
-44 -36 -19 -41 -37 -41 -167 0 -116 -13 -155 -44 -130 -9 7 -13 17 -10 22 3
5 -1 6 -8 4 -8 -3 -30 -7 -50 -8 l-36 -3 -8 70 c-5 39 -8 554 -7 1144 l2 1072
-125 0 -124 0 0 -758 c0 -417 -3 -915 -7 -1105 -6 -343 -6 -347 -27 -347 -12
1 -32 7 -46 15 -30 17 -44 19 -35 5 3 -5 -2 -10 -12 -11 -10 0 -27 -2 -39 -4
-11 -3 -51 -6 -90 -9 -84 -5 -84 -5 -59 -16 19 -8 19 -9 -1 -9 -12 -1 -25 -8
-28 -17 -3 -8 -11 -12 -17 -8 -8 4 -7 9 2 15 11 6 11 9 -1 13 -44 13 -60 13
-60 0 0 -17 -30 -19 -30 -1 -1 37 -14 140 -24 195 l-11 63 -133 4 c-119 3
-133 2 -142 -14 -13 -26 -43 -161 -42 -194 1 -18 -3 -25 -10 -21 -6 4 -4 -3 4
-15 32 -45 -9 -88 -54 -57 -30 21 -37 20 -32 -6 2 -13 2 -17 -2 -10 -3 6 -11
9 -17 5 -7 -4 -8 0 -3 13 6 15 5 16 -5 7 -9 -9 -17 -9 -32 -1 -12 6 -41 8 -71
4 -93 -12 -116 -13 -116 -2 0 6 -4 5 -9 -2 -6 -11 -11 -10 -25 3 -12 12 -16
13 -16 3 0 -10 -3 -9 -10 2 -8 13 -10 13 -10 -2 0 -10 -7 -15 -17 -13 -10 2
-22 4 -27 4 -4 1 -6 10 -3 20 3 13 1 18 -8 15 -19 -8 -26 24 -30 131 -2 52 -6
98 -9 103 -5 8 -19 237 -18 282 1 38 -21 150 -31 158 -7 5 -29 15 -50 21 -43
15 -55 33 -59 90 -4 57 -22 59 -26 2 -1 -25 -11 -57 -21 -71 -19 -28 -47 -206
-55 -357 -2 -50 -10 -102 -17 -115 -7 -13 -16 -81 -19 -152 -4 -85 -11 -131
-18 -134 -7 -2 -10 -8 -6 -13 3 -5 0 -9 -5 -9 -6 0 -11 -7 -11 -16 0 -9 -7
-14 -17 -12 -18 3 -53 -24 -53 -42 0 -5 -9 -10 -20 -10 -11 0 -20 5 -20 10 0
6 -7 10 -16 10 -8 0 -12 5 -9 11 4 6 0 6 -12 -1 -14 -9 -18 -21 -15 -41 5 -33
-19 -49 -43 -29 -19 16 -19 49 -1 56 8 3 12 13 9 25 -3 10 0 19 6 19 7 0 9 10
7 23 -3 12 -8 81 -11 154 -3 73 -8 139 -11 146 -6 16 -78 47 -110 47 -31 0
-51 -28 -68 -94 -9 -33 -18 -61 -20 -64 -3 -2 -1 -13 5 -23 6 -12 6 -19 0 -19
-5 0 -17 -3 -27 -7 -13 -5 -15 -3 -9 7 5 9 4 11 -4 6 -6 -4 -9 -12 -6 -17 4
-5 2 -9 -4 -9 -5 0 -13 5 -16 11 -4 6 -13 8 -19 6 -10 -4 -15 43 -20 202 -8
242 -15 1639 -9 1884 l4 167 1072 -2 1072 -3 3 -32 3 -31 82 -7 c45 -4 100 -5
122 -3 38 3 40 5 43 41 l3 37 105 0 c85 0 106 3 110 15 4 9 16 21 27 27 17 9
24 7 37 -10 16 -19 31 -21 267 -27 180 -5 252 -4 257 4 4 6 29 11 56 11 46 0
51 3 111 65 34 36 70 65 79 65 9 0 25 10 36 21 38 43 99 78 117 68 22 -13 22
-45 1 -53 -10 -4 -25 1 -35 10 -18 16 -21 15 -63 -20 -24 -20 -48 -36 -53 -36
-5 0 -40 -32 -78 -70 l-70 -71 75 3 75 3 6 55 6 55 1 -52 c1 -28 6 -54 11 -57
5 -3 45 34 89 82 l80 87 80 -3 c78 -4 79 -4 86 22 7 28 42 36 63 15 6 -6 27
-9 48 -7 31 2 42 9 55 33 18 32 52 44 76 25 20 -18 17 -67 -6 -90 -16 -16 -20
-33 -20 -90 0 -65 2 -70 21 -70 16 0 20 5 16 20 -4 15 0 20 14 20 14 0 19 -7
19 -25 0 -22 4 -25 35 -25 l35 0 0 60 c0 54 -2 61 -30 82 -24 17 -30 29 -30
58 0 43 -21 76 -54 84 -44 11 -44 66 0 66 16 0 28 -8 33 -22 5 -13 46 -59 90
-103 l81 -80 0 107 c0 85 -3 110 -16 120 -8 7 -24 21 -34 30 -34 31 0 70 37
43 15 -12 16 -16 4 -27 -12 -11 -13 -11 -6 1 8 14 -13 33 -27 25 -13 -8 -9
-44 5 -44 19 0 47 -33 48 -56 0 -10 3 -13 6 -6 8 19 41 14 48 -8 5 -16 9 -17
25 -8 26 16 74 -15 62 -40 -11 -23 -3 -304 9 -296 5 3 9 19 9 37 0 20 9 41 26
58 21 22 27 40 30 84 2 30 6 60 9 65 11 18 43 10 59 -15 14 -21 24 -25 63 -25
31 0 50 5 58 17 14 19 42 12 52 -13 3 -8 -1 -23 -10 -32 -15 -14 -18 -14 -36
2 -13 12 -32 16 -60 14 l-42 -3 78 -84 c71 -76 82 -84 121 -87 l42 -4 0 44 c0
35 -4 45 -20 49 -14 4 -20 14 -20 34 0 38 8 45 34 31 26 -13 37 -29 32 -44 -3
-6 13 -29 35 -50 l39 -38 0 61 c0 72 -25 113 -69 113 -17 0 -38 11 -56 30 -27
29 -33 30 -111 30 -66 0 -83 3 -88 16 -4 11 -13 14 -31 10 -20 -5 -25 -3 -25
12 0 22 -37 55 -70 62 -25 5 -25 7 -22 88 3 90 2 92 -60 80 -7 -2 -12 3 -10
10 1 6 -2 12 -8 12 -5 0 -10 -6 -10 -12 0 -10 -2 -10 -9 0 -4 8 -12 12 -17 10
-16 -6 -15 39 1 52 14 11 25 10 74 -7 l58 -21 22 21 c22 22 22 22 54 3 27 -16
56 -20 177 -24 140 -4 146 -5 173 -30 l27 -26 0 33 c0 19 -10 46 -26 67 l-26
34 -116 0 c-92 0 -119 -3 -133 -16 -24 -22 -51 -11 -47 18 2 17 11 24 31 26
15 2 27 -1 27 -7 0 -7 41 -11 119 -11 116 0 120 -1 139 -25 11 -14 23 -25 26
-25 3 0 6 22 6 50 l0 50 -243 3 -242 2 243 3 242 2 0 102 0 102 -69 -75 c-38
-41 -72 -71 -75 -68 -4 3 7 21 24 39 16 18 30 36 30 41 0 18 -26 8 -53 -21
-26 -27 -34 -30 -94 -30 -61 0 -68 -3 -104 -35 -22 -19 -47 -35 -57 -34 -13 0
-14 2 -2 6 8 4 33 21 56 40 37 30 47 33 106 33 71 0 98 16 98 60 0 19 -2 20
-15 10 -12 -10 -15 -9 -15 4 0 9 7 19 16 23 12 4 15 18 13 56 -2 34 2 53 12
61 32 25 41 44 30 65 -6 11 -7 22 -2 25 4 3 6 17 3 31 -2 14 0 25 6 25 14 0
24 -45 16 -77 -5 -22 -4 -26 6 -16 7 6 14 44 16 88 2 67 6 81 28 104 l26 27 0
357 0 357 -510 0 -510 0 0 -182 c0 -100 -3 -178 -7 -175 -3 4 -6 86 -5 182 l2
175 -1800 0 c-1704 0 -1799 -1 -1804 -17 -2 -10 -8 -46 -11 -80 -4 -35 -11
-63 -16 -63 -4 0 -6 6 -4 13 3 6 9 42 13 80 8 65 8 67 -14 67 -13 0 -29 -9
-37 -20 -21 -30 -132 -39 -181 -16 -20 9 -36 21 -36 26 0 6 -9 10 -19 10 -17
0 -21 -8 -24 -52 l-3 -53 -2 53 -2 52 -2635 0 -2635 0 0 -4722z m9358 4640
c17 -17 15 -53 -3 -68 -13 -10 -15 -52 -15 -262 0 -214 2 -249 14 -239 11 9
15 9 19 -1 4 -8 6 -7 6 5 1 9 8 17 16 17 12 0 15 -19 15 -113 l0 -114 80 -77
c44 -43 80 -86 79 -95 0 -12 -2 -11 -9 4 -4 11 -42 54 -84 95 l-76 74 0 89 c0
78 -2 88 -15 77 -11 -9 -15 -34 -15 -94 l0 -81 85 -85 85 -85 0 -132 c0 -82 4
-133 10 -133 6 0 10 10 11 23 0 14 2 17 6 7 3 -8 12 -23 21 -32 8 -10 12 -24
9 -33 -9 -22 -38 -19 -44 5 -3 11 -9 17 -14 14 -5 -3 -9 58 -9 139 l0 143 -85
83 -85 83 0 84 c0 45 -4 86 -10 89 -6 4 -10 -29 -10 -92 l0 -99 50 -49 50 -49
0 -187 c0 -160 3 -192 17 -218 17 -29 17 -31 0 -48 -13 -14 -21 -15 -35 -7
-23 15 -27 48 -7 64 12 10 15 43 15 199 l0 187 -50 50 -50 49 0 366 c0 353 -1
367 -20 384 -32 29 -20 75 20 75 9 0 21 -5 28 -12z m-216 -233 c10 -21 8 -29
-10 -48 -21 -22 -22 -33 -22 -183 l0 -160 35 -34 35 -34 0 -92 c0 -89 1 -94
30 -125 27 -30 31 -32 56 -20 29 13 67 6 61 -12 -5 -15 -52 -26 -68 -16 -20
12 -59 11 -59 -2 0 -8 -4 -8 -12 -1 -7 5 -24 12 -38 14 -22 3 -25 9 -28 46 -2
25 1 42 7 42 6 0 11 -13 11 -30 0 -22 5 -30 18 -30 15 0 17 10 12 109 -5 108
-6 111 -37 143 l-33 34 0 165 c0 153 -2 167 -20 184 -35 32 -19 75 27 75 15 0
27 -9 35 -25z m1012 -71 c21 -20 20 -26 -4 -57 -18 -23 -20 -40 -20 -177 l0
-151 -34 -32 c-19 -18 -39 -42 -45 -55 -14 -27 -4 -143 13 -154 8 -5 7 -11 -2
-20 -6 -6 -12 -25 -12 -41 0 -19 -4 -27 -12 -24 -7 2 -12 10 -10 16 1 6 -9 29
-23 51 -14 22 -21 40 -16 40 6 0 13 -4 16 -10 16 -26 25 -3 25 67 l0 77 43 44
42 43 0 153 c0 133 -2 157 -17 173 -21 23 -23 44 -6 61 17 17 44 15 62 -4z
m-1869 -94 c18 -17 36 -19 176 -20 86 -1 170 -5 186 -8 30 -7 89 -57 270 -229
l86 -83 4 -82 c6 -110 5 -108 48 -98 28 6 38 5 42 -7 10 -25 -10 -33 -54 -20
-23 7 -44 15 -46 17 -3 3 -6 43 -8 90 l-2 85 -81 83 c-60 61 -87 82 -106 82
-28 0 -80 21 -80 32 0 4 11 8 24 10 23 3 22 5 -24 55 l-48 52 -188 1 c-161 1
-189 -1 -196 -14 -17 -30 -78 -14 -78 21 0 14 35 53 47 53 4 0 16 -9 28 -20z
m594 -484 c19 -20 39 -36 43 -36 15 0 8 58 -7 64 -19 7 -20 40 -1 55 15 13 45
5 47 -13 2 -21 -3 -41 -13 -47 -5 -3 -8 -28 -6 -54 l3 -49 52 0 c51 -1 55 -3
117 -65 39 -39 73 -64 88 -65 16 -1 24 -8 26 -23 6 -44 -33 -24 -112 57 l-78
80 -54 0 c-43 0 -54 3 -54 16 0 9 -22 37 -50 63 l-50 47 2 100 2 99 5 -97 c6
-94 7 -98 40 -132z m-780 186 c9 -18 26 -19 255 -17 l244 3 56 -58 56 -58 0
-63 c0 -45 -3 -60 -10 -49 -5 8 -10 37 -10 65 0 45 -4 53 -47 97 l-47 48 -248
0 c-215 0 -248 -2 -256 -16 -6 -10 -19 -14 -38 -12 -52 6 -41 78 12 78 13 0
28 -8 33 -18z m-74 -162 c17 -19 31 -20 251 -20 l233 0 50 -37 c37 -28 51 -45
51 -63 0 -14 11 -35 24 -47 20 -19 35 -23 88 -23 52 0 68 -4 83 -20 10 -11 26
-20 36 -20 26 0 43 -34 24 -50 -21 -18 -50 -8 -50 17 -1 45 -32 63 -107 63
-39 0 -68 -4 -68 -10 0 -14 -47 -13 -56 1 -3 6 -1 29 6 50 l13 40 -49 44 -49
44 -229 1 c-224 0 -230 -1 -253 -22 -18 -17 -28 -20 -40 -12 -32 20 -39 41
-19 63 24 26 38 26 61 1z m247 -140 c11 -18 24 -20 104 -20 l91 0 67 -70 67
-71 47 7 c43 5 49 3 76 -25 27 -28 35 -31 94 -31 61 0 67 -2 107 -39 23 -21
48 -40 56 -43 12 -5 12 -8 1 -19 -11 -12 -17 -10 -33 11 -65 81 -63 80 -132
80 -55 0 -70 4 -95 25 -23 20 -41 25 -81 25 -51 0 -52 1 -117 70 l-66 70 -89
0 c-55 0 -89 -4 -89 -10 0 -16 -43 -29 -62 -18 -21 10 -24 48 -6 66 18 18 46
14 60 -8z m64 -160 c13 0 24 -23 24 -51 0 -10 5 -19 10 -19 6 0 24 -10 40 -22
45 -33 50 -11 7 28 -20 19 -37 40 -37 46 0 7 22 -9 48 -35 l48 -47 90 0 90 0
49 -50 c39 -39 56 -50 81 -50 19 0 34 6 38 15 3 8 12 15 21 15 8 0 15 -7 15
-15 0 -12 20 -15 118 -15 l118 0 38 39 c21 22 41 54 45 73 5 25 13 34 30 36
21 3 40 -11 41 -30 0 -13 -32 -38 -41 -33 -5 4 -32 -17 -59 -44 l-51 -51 -88
0 c-116 0 -151 -7 -151 -31 0 -18 10 -19 129 -19 l128 0 47 49 c32 35 44 55
39 67 -4 12 -3 15 5 10 23 -14 11 -38 -40 -86 l-52 -48 -147 -4 c-136 -3 -149
-5 -171 -26 -23 -21 -33 -22 -158 -22 -73 0 -131 2 -129 4 2 2 62 6 133 10
121 6 132 8 156 31 14 14 33 25 41 26 10 0 10 2 1 6 -6 2 -10 9 -6 14 3 5 -16
9 -43 9 -45 0 -51 3 -95 51 l-47 51 -146 -3 c-143 -4 -147 -3 -164 20 l-17 23
-81 -76 -81 -76 -165 0 c-134 0 -167 -3 -177 -15 -30 -36 -81 -3 -62 40 14 30
47 33 64 5 12 -19 24 -20 177 -20 l164 0 78 83 c43 45 81 90 84 99 4 11 -9 31
-37 58 l-43 42 40 -31 c22 -17 45 -31 51 -31z m1049 -315 c0 -25 -4 -31 -27
-33 -18 -2 -50 -28 -100 -83 l-75 -79 -257 2 -256 1 -26 -23 c-13 -13 -22 -30
-19 -38 7 -19 -13 -42 -36 -42 -22 0 -35 36 -18 56 6 8 19 12 28 9 11 -3 28 7
47 26 l29 30 258 -2 c141 -1 259 0 260 2 2 2 36 39 75 81 51 55 72 84 72 103
0 22 4 26 23 23 17 -2 22 -10 22 -33z m-4244 -987 c1 -842 -2 -1480 -9 -1497
-8 -24 -23 -30 -48 -21 -12 5 -25 6 -28 3 -3 -4 -6 -1 -6 6 0 7 -4 10 -8 7 -5
-3 -9 -24 -10 -47 -1 -23 -4 -45 -7 -47 -3 -3 -5 470 -5 1051 l0 1057 60 0 60
0 1 -512z m-3771 -600 l0 -191 25 23 c24 23 25 28 25 146 0 98 -3 124 -16 134
-23 20 -14 64 14 68 44 7 70 -41 37 -68 -12 -10 -15 -38 -15 -133 l0 -120 -35
-38 c-19 -22 -35 -49 -35 -61 0 -19 13 -9 75 52 80 80 91 107 60 154 -13 19
-13 25 -1 42 12 15 19 17 32 8 25 -15 27 -29 9 -47 -8 -9 -15 -33 -15 -54 0
-35 -8 -46 -80 -118 -70 -70 -80 -84 -80 -115 l1 -35 73 77 c67 70 75 76 92
63 26 -19 7 -51 -28 -47 -18 2 -41 -13 -89 -60 -57 -55 -172 -138 -191 -138
-4 0 -9 85 -10 190 l-3 189 -133 -84 c-74 -47 -138 -85 -143 -85 -5 0 -9 25
-9 55 0 54 0 55 -20 38 -17 -15 -20 -30 -20 -110 0 -105 3 -108 63 -67 52 35
59 24 8 -12 -22 -16 -41 -36 -41 -44 0 -37 -62 -56 -74 -24 -8 20 2 54 15 54
5 0 9 41 9 92 0 80 -3 95 -22 115 -18 19 -20 27 -10 48 14 30 65 35 80 8 9
-15 10 -14 16 4 4 11 22 29 41 39 19 10 35 21 35 24 0 3 -16 22 -35 43 -38 40
-77 48 -115 25 -27 -17 -61 13 -44 39 15 24 29 26 47 8 9 -8 31 -15 49 -15 27
0 43 -9 78 -45 29 -30 47 -42 54 -35 7 7 -5 25 -34 55 -24 24 -41 47 -38 50 3
4 26 -15 50 -41 40 -42 47 -45 66 -35 30 16 28 26 -13 57 -37 28 -45 58 -19
68 22 8 47 -13 41 -35 -3 -10 5 -27 18 -39 l23 -21 108 70 c60 38 112 70 117
70 4 1 7 -85 7 -191z m2600 -73 l0 -55 56 0 55 0 -3 -37 -3 -38 -52 -3 -53 -3
0 -108 c0 -123 6 -135 67 -129 35 3 38 1 47 -31 8 -28 7 -36 -9 -47 -25 -18
-118 -18 -154 0 -51 27 -56 40 -61 180 l-5 131 -32 3 c-31 3 -33 6 -33 42 0
36 2 39 32 42 32 3 33 4 30 45 -2 23 -1 47 3 53 3 5 31 10 61 10 l54 0 0 -55z
m-1240 -65 c19 -10 46 -29 58 -43 l24 -25 -38 -26 c-40 -27 -64 -33 -64 -16 0
13 -54 40 -82 40 -71 0 -123 -82 -100 -158 15 -50 41 -72 89 -79 30 -4 46 1
77 22 41 28 50 27 101 -11 19 -15 19 -17 -23 -54 -75 -67 -185 -74 -270 -16
-101 69 -123 224 -45 317 62 73 182 95 273 49z m422 -1 c78 -39 126 -135 112
-225 -28 -187 -275 -244 -398 -91 -29 37 -31 43 -31 127 0 84 2 90 31 127 71
87 186 112 286 62z m523 3 c59 -35 70 -70 73 -245 l4 -158 -59 3 -58 3 -5 142
c-6 167 -12 179 -86 177 -32 -1 -52 -7 -67 -23 -20 -19 -22 -35 -27 -159 l-5
-137 -57 -3 -58 -3 0 211 0 210 55 0 c52 0 55 -1 55 -25 0 -25 1 -25 25 -9 70
46 148 52 210 16z m-1930 -192 l0 -205 -51 -3 -51 -3 -7 86 c-3 48 -3 143 0
211 l7 125 51 -3 51 -3 0 -205z m413 172 c3 -28 -10 -49 -98 -160 l-101 -127
111 -3 110 -3 0 -44 0 -45 -185 0 -185 0 0 35 c0 31 16 55 106 165 l105 130
-105 0 -106 0 0 38 c0 21 3 42 7 46 4 3 81 5 172 4 l166 -3 3 -33z m182 -172
l0 -210 -55 0 -55 0 0 210 0 210 55 0 55 0 0 -210z m-1252 88 c-5 -13 60 -41
74 -32 4 3 8 -58 8 -135 0 -84 4 -141 10 -141 5 0 53 27 107 60 65 40 99 56
102 48 5 -17 31 -32 56 -33 15 0 21 -8 23 -30 2 -27 -4 -34 -68 -75 -38 -25
-70 -49 -70 -55 0 -5 17 -26 37 -47 39 -40 85 -51 112 -25 11 10 13 9 8 -5 -7
-21 10 -35 25 -20 8 8 7 16 -2 27 -11 13 -10 14 4 9 21 -8 21 -43 0 -51 -9 -3
-25 -1 -35 5 -10 7 -34 12 -52 12 -27 0 -40 8 -70 45 -21 25 -41 45 -45 45 -4
-1 -18 -10 -31 -21 -23 -19 -23 -20 -5 -40 10 -12 31 -27 46 -35 31 -16 38
-51 13 -60 -23 -9 -46 15 -39 40 4 16 -3 27 -26 44 -34 26 -29 28 -148 -48
-42 -28 -81 -50 -85 -50 -4 0 -7 82 -7 183 0 100 1 186 0 191 0 5 -11 -1 -25
-14 -24 -23 -25 -27 -25 -161 0 -111 3 -139 16 -149 8 -8 14 -25 12 -39 -3
-22 -8 -26 -38 -26 -32 0 -35 3 -38 33 -2 22 2 34 12 38 13 5 16 27 16 136 l0
131 39 42 c37 41 39 45 40 115 1 57 5 76 18 86 23 17 36 18 31 2z m6122 -1137
c0 -5 11 -22 24 -38 21 -25 31 -65 27 -110 -1 -7 -24 -12 -63 -12 -35 -1 -80
-5 -102 -10 -43 -10 -86 1 -86 21 0 7 7 22 15 32 8 10 12 23 8 29 -3 6 0 15 8
21 8 6 19 20 25 31 16 28 144 60 144 36z m1058 -24 c21 -14 14 -37 -22 -73
-21 -21 -33 -41 -29 -49 3 -8 0 -15 -6 -15 -14 0 -15 -37 -1 -45 6 -3 10 -15
10 -27 0 -18 -4 -19 -52 -12 -29 4 -73 7 -97 6 -40 -1 -43 0 -38 21 2 12 12
55 21 95 24 110 21 107 118 107 45 0 89 -4 96 -8z m-1066 -267 c20 0 49 7 64
15 83 43 66 -3 -31 -86 -27 -23 -51 -51 -51 -62 -2 -32 -46 -47 -88 -31 -12 5
-8 13 21 40 34 33 35 35 19 56 -27 38 -29 48 -16 74 12 22 15 23 30 9 9 -8 33
-15 52 -15z m1121 -86 c13 -14 -17 -47 -59 -65 -34 -16 -44 -25 -44 -44 0 -13
-5 -27 -10 -30 -11 -7 -4 -71 9 -90 4 -5 6 -20 5 -32 -1 -16 5 -23 25 -27 48
-10 224 -27 418 -40 244 -17 256 -23 294 -164 17 -60 19 -109 19 -489 l0 -423
136 0 135 0 100 92 99 92 0 513 c0 500 -1 514 -20 533 -11 11 -20 27 -20 35 0
8 9 24 20 35 11 11 27 20 35 20 8 0 24 -9 35 -20 11 -11 20 -27 20 -35 0 -8
-9 -24 -20 -35 -19 -19 -20 -33 -20 -532 l0 -513 -106 -102 -107 -103 -143 0
-143 0 -3 -717 c-2 -586 -6 -723 -17 -743 -24 -44 -54 -70 -80 -70 -15 0 -85
37 -166 86 -273 169 -530 321 -553 326 -18 5 -23 1 -28 -20 -3 -15 -7 -32 -9
-39 -2 -7 0 -15 4 -18 5 -2 12 -22 15 -42 4 -21 9 -47 12 -58 4 -16 3 -17 -5
-5 -14 19 -15 -3 -2 -28 24 -44 28 -99 9 -117 -8 -7 -8 -5 -3 5 8 13 6 13 -8
1 -9 -7 -14 -17 -11 -22 2 -5 7 -22 9 -39 3 -24 1 -29 -9 -21 -9 7 -18 6 -33
-4 -11 -8 -32 -12 -47 -9 -17 3 -26 0 -26 -8 0 -10 -2 -10 -9 0 -7 11 -13 9
-30 -9 -18 -20 -24 -18 -20 7 2 16 -26 21 -36 7 -10 -13 -12 -13 -24 1 -9 11
-10 16 -2 16 6 0 11 -5 11 -12 0 -6 2 -9 5 -6 3 3 3 13 -1 22 -5 13 -13 16
-31 11 -15 -3 -22 -2 -19 4 4 5 2 12 -4 16 -5 3 -8 22 -6 41 3 25 1 34 -7 31
-7 -2 -12 5 -13 17 0 11 -2 32 -5 46 -3 18 0 25 11 24 11 -1 16 11 17 40 1 25
9 47 20 56 19 16 23 37 9 59 -5 8 -3 16 5 22 8 5 10 9 5 9 -5 0 -3 6 3 14 16
19 20 96 7 121 -5 11 -10 29 -10 40 -1 21 -74 73 -330 234 -64 41 -121 81
-125 90 -20 39 -32 122 -32 208 1 90 -7 111 -28 76 -10 -17 -10 -16 -11 2 -1
11 -4 14 -7 8 -9 -23 -20 -14 -15 12 2 14 10 25 17 25 8 0 17 9 20 20 3 11 11
20 16 20 5 0 9 49 9 111 l0 111 -57 -7 c-32 -3 -89 -16 -128 -28 l-70 -22 70
-5 c78 -6 104 -17 129 -54 25 -39 21 -57 -11 -50 -20 4 -34 -1 -50 -15 -23
-22 -46 -30 -26 -10 13 13 -3 44 -46 92 -22 24 -32 27 -84 27 -46 0 -70 6
-103 25 -32 19 -52 24 -76 20 -49 -8 -101 -26 -118 -40 -8 -6 -23 -15 -33 -18
-12 -5 -16 -13 -12 -26 4 -15 0 -18 -20 -18 -33 0 -32 14 6 60 17 20 26 37 20
37 -6 0 -11 -4 -11 -10 0 -5 -13 -10 -28 -10 -15 0 -33 -5 -39 -11 -6 -6 -22
-17 -34 -23 -15 -7 -24 -20 -24 -36 0 -16 -5 -24 -14 -22 -7 1 -20 -3 -28 -10
-13 -10 -14 -8 -11 12 3 24 1 25 -50 24 -29 -1 -55 -4 -57 -6 -3 -2 -1 -24 4
-49 5 -24 9 -39 10 -33 1 5 19 9 42 8 27 -1 42 3 46 13 3 7 14 18 24 24 16 8
19 6 19 -11 0 -11 -8 -24 -17 -27 -17 -7 -53 -39 -53 -48 0 -15 69 -3 85 15
10 12 25 18 33 15 9 -3 19 9 30 35 9 22 20 40 23 40 14 0 18 -32 6 -46 -45
-54 -88 -95 -95 -90 -5 3 -24 1 -42 -4 -23 -7 -38 -6 -47 2 -7 6 -16 9 -18 6
-3 -3 19 -32 49 -64 68 -72 72 -90 9 -35 -25 23 -48 39 -50 37 -3 -2 14 -21
37 -42 30 -28 38 -40 29 -48 -8 -8 -13 -8 -16 2 -3 6 -11 12 -18 12 -7 0 -15
6 -18 14 -3 8 -16 20 -28 26 -17 10 -15 4 12 -31 19 -24 39 -47 44 -51 17 -13
35 -9 29 7 -4 8 -2 15 4 15 5 0 12 -7 16 -15 3 -8 13 -15 22 -15 15 0 15 2 -2
23 l-19 22 26 -22 c19 -18 38 -23 77 -23 35 0 52 4 53 13 0 9 2 9 6 0 3 -8 26
-14 56 -15 29 -1 -38 -4 -148 -7 -128 -4 -203 -2 -207 4 -4 6 -8 -18 -8 -52
l0 -63 141 0 c121 0 140 -2 135 -15 -3 -8 -1 -15 5 -15 15 0 7 -101 -8 -107
-7 -3 -11 -9 -8 -13 11 -19 -38 -43 -102 -50 -76 -8 -81 -7 -154 58 -37 33
-46 47 -44 71 1 17 -2 31 -7 31 -5 0 -61 44 -126 98 -212 177 -253 207 -263
191 -54 -80 -62 -134 -24 -169 31 -29 33 -47 3 -26 -26 19 -38 20 -38 5 0 -13
-20 -33 -42 -41 -9 -4 -19 -21 -23 -39 -4 -18 -14 -39 -21 -47 -8 -7 -14 -20
-14 -28 0 -8 -4 -14 -10 -14 -5 0 -10 -10 -10 -23 0 -13 -4 -27 -9 -32 -14
-16 -43 -117 -37 -131 3 -8 2 -14 -3 -14 -8 0 -12 -28 -14 -97 0 -18 -4 -30
-8 -28 -8 6 -19 -19 -19 -45 0 -27 -50 -35 -210 -34 -172 1 -170 1 -172 38 -4
67 -8 93 -21 141 -8 28 -24 118 -36 200 -11 83 -23 166 -26 185 -3 19 -12 71
-20 115 -9 44 -14 94 -13 110 1 17 -1 36 -5 43 -5 6 -4 20 2 29 6 11 6 24 0
35 -7 13 -6 18 4 18 9 0 12 10 9 35 -3 22 0 35 7 35 7 0 10 4 7 9 -10 15 5 43
20 37 7 -3 15 0 18 7 5 9 7 9 12 0 3 -7 12 -9 20 -6 13 5 12 9 -3 27 -13 15
-14 17 -2 8 17 -13 90 -13 83 0 -3 4 9 6 25 4 17 -2 31 1 31 5 0 5 5 9 11 9 5
0 8 -3 6 -7 -6 -10 66 -10 73 -1 3 4 23 8 43 10 l38 2 -38 32 c-31 27 -35 33
-18 33 43 2 71 6 83 14 8 5 12 2 13 -10 0 -11 3 -13 6 -5 7 18 -16 42 -100 98
-119 80 -140 105 -98 119 11 3 18 12 15 20 -3 7 0 16 6 20 9 5 9 10 1 14 -5 4
-8 17 -4 29 5 21 7 22 23 7 13 -12 16 -27 14 -60 -3 -26 0 -45 6 -45 5 0 10
-10 10 -22 1 -23 1 -23 15 2 l14 25 1 -28 c0 -28 20 -57 39 -57 5 0 15 -8 20
-17 8 -14 10 -5 9 35 0 29 2 56 6 59 3 3 6 -21 6 -54 0 -45 4 -62 15 -67 8 -3
15 -16 15 -30 0 -30 26 -42 33 -15 3 10 1 19 -4 19 -5 0 -9 4 -9 10 0 5 7 6
17 3 11 -4 14 -3 9 5 -4 7 -2 12 6 12 7 0 2 7 -10 16 -17 12 -26 13 -36 5 -19
-16 -26 7 -16 50 l8 34 1 -32 c1 -18 4 -33 9 -33 13 0 37 44 49 90 l11 45 1
-37 c1 -31 4 -36 19 -31 9 4 21 11 25 17 6 8 10 7 14 -1 2 -7 12 -13 21 -13
15 0 15 -2 2 -10 -13 -8 -13 -10 2 -10 9 0 23 7 31 15 12 11 17 12 20 2 3 -6
6 5 6 26 1 23 5 36 11 32 6 -4 8 -10 5 -15 -3 -5 2 -15 10 -23 10 -11 11 -17
3 -19 -6 -2 -8 -10 -4 -16 10 -17 26 -5 26 20 0 15 4 18 16 14 15 -6 15 -4 3
11 -13 17 -12 17 8 0 23 -20 30 -15 38 31 4 25 1 34 -15 42 -11 6 -19 17 -18
25 2 7 -1 13 -7 12 -5 -1 -9 -6 -7 -10 1 -5 -2 -6 -7 -2 -6 3 -8 13 -5 23 5
14 4 15 -5 2 -14 -20 -14 -47 2 -54 9 -5 9 -7 0 -12 -8 -3 -10 -16 -6 -35 3
-17 1 -29 -5 -29 -11 0 -12 6 -15 83 -2 44 -16 68 -18 30 0 -10 -3 -13 -5 -8
-6 15 30 82 43 78 6 -2 13 10 15 26 2 16 1 28 -3 25 -4 -2 -11 2 -16 10 -9 16
-106 66 -128 66 -8 0 -15 4 -15 10 0 5 -12 16 -27 25 -25 14 -26 15 -4 9 23
-6 24 -5 18 35 -3 23 -1 39 4 35 5 -3 9 -22 9 -42 0 -35 4 -39 59 -69 60 -33
87 -41 76 -23 -8 13 5 13 25 0 11 -7 11 -10 2 -10 -25 0 1 -22 55 -46 58 -26
78 -30 68 -14 -3 5 0 7 7 5 7 -3 24 -30 37 -60 23 -53 41 -71 41 -40 0 10 8
13 28 9 35 -6 45 2 59 49 13 44 16 42 -147 102 -113 41 -116 43 -109 50 3 2
61 -18 129 -45 67 -28 129 -50 137 -50 31 0 9 20 -44 40 -144 53 -223 86 -223
93 0 4 8 3 18 -2 11 -6 36 -16 58 -24 21 -8 76 -28 121 -45 51 -19 85 -27 89
-21 8 14 11 12 -91 53 -49 19 -84 35 -78 36 7 0 47 -14 90 -31 48 -19 79 -26
81 -20 7 20 20 11 25 -16 3 -16 1 -31 -5 -34 -7 -5 -5 -18 6 -39 18 -38 20
-43 7 -35 -5 3 -20 -9 -32 -27 -13 -17 -18 -29 -13 -25 12 7 41 -9 32 -18 -3
-4 -16 -1 -28 5 -17 9 -25 9 -38 -3 -9 -8 -27 -18 -39 -21 -16 -5 -23 -15 -24
-34 0 -15 -3 -21 -6 -14 -7 17 -23 15 -23 -3 0 -8 -3 -15 -7 -15 -5 0 -6 -30
-4 -67 2 -38 6 -62 8 -55 3 6 9 12 14 12 13 0 11 -34 -3 -49 -11 -11 -7 -12
22 -7 44 7 58 -2 58 -37 0 -24 39 -83 49 -74 1 2 -12 41 -31 88 -19 46 -37 96
-40 112 -6 27 -6 28 37 31 6 1 16 6 20 11 6 6 10 6 14 -2 8 -20 58 -15 87 8
l27 21 -3 367 c-3 323 -5 370 -21 404 -9 20 -23 37 -30 37 -6 0 -61 9 -122 19
-127 22 -216 33 -197 25 18 -8 15 -35 -5 -50 -17 -13 -17 -14 5 -20 40 -11 23
-24 -30 -23 -29 2 -59 8 -66 16 -7 7 -24 13 -38 13 -31 0 -42 26 -20 48 13 14
20 14 36 4 28 -17 43 -15 58 8 7 11 9 20 5 20 -5 0 -60 9 -123 20 -63 12 -144
25 -180 30 -36 4 -86 14 -112 20 -26 6 -62 10 -80 8 l-33 -3 0 -538 c0 -481 2
-540 16 -550 36 -27 91 -79 87 -82 -8 -9 -106 80 -112 101 -3 12 -6 259 -6
549 -1 423 2 531 12 542 11 10 26 11 77 2 49 -9 68 -9 86 1 28 15 55 7 55 -15
0 -8 3 -15 7 -15 5 0 444 -71 663 -108 40 -6 47 -12 65 -47 18 -37 20 -69 27
-375 4 -184 9 -351 10 -370 l3 -35 38 37 c20 21 50 44 65 52 15 8 38 27 52 42
38 43 147 221 182 297 17 37 34 67 37 67 3 0 7 -34 8 -76 1 -62 -1 -74 -13
-70 -16 6 -13 -1 20 -47 17 -23 18 -32 9 -60 -6 -17 -11 -47 -11 -66 -1 -19
-6 -37 -13 -42 -9 -5 -8 -11 4 -23 22 -23 27 -20 27 17 0 17 9 46 19 63 11 18
21 42 23 55 4 27 28 38 28 12 0 -10 13 4 30 34 16 28 38 58 48 65 11 7 28 33
39 58 11 25 27 51 36 59 22 18 21 39 -3 76 -24 36 -25 46 -4 71 13 16 15 16
10 2 -8 -26 29 -23 47 2 13 19 14 13 10 -52 -3 -40 -14 -118 -25 -173 -11 -55
-23 -111 -25 -125 -2 -14 14 26 36 88 22 62 49 128 61 146 11 18 20 44 20 58
0 13 11 35 25 48 14 14 44 47 65 76 33 41 40 59 40 95 0 55 15 111 38 138 17
21 17 21 197 6 334 -28 420 -33 423 -23 2 5 10 4 17 -2 16 -14 115 -26 115
-14 -1 14 -37 54 -49 54 -6 0 -11 4 -11 10 0 6 -3 9 -7 9 -22 -4 -24 3 -8 21
14 15 16 29 11 62 -7 44 -9 81 -7 108 1 11 7 9 21 -8 21 -25 43 -24 107 9 39
20 56 23 66 13z m-3915 -1356 l2 -168 -40 0 c-22 0 -40 5 -40 10 0 6 -14 3
-32 -6 -26 -13 -38 -14 -70 -5 -52 16 -78 59 -78 130 0 47 4 57 34 87 38 38
85 45 124 18 22 -15 22 -15 22 39 0 29 3 57 7 61 4 4 21 6 38 4 l30 -3 3 -167z
m-3729 128 c52 -27 76 -73 76 -143 0 -74 -20 -107 -85 -140 -34 -18 -61 -23
-117 -23 l-73 0 0 166 0 167 84 -6 c47 -3 98 -13 115 -21z m2981 -16 c0 -25 4
-30 25 -30 21 0 25 -5 25 -30 0 -25 -4 -30 -25 -30 -25 0 -26 -1 -23 -62 3
-57 5 -63 26 -66 17 -3 22 -10 22 -33 0 -27 -2 -29 -40 -29 -62 0 -80 24 -80
111 0 62 -2 71 -20 76 -28 7 -27 53 1 60 16 5 20 12 17 34 -4 28 -3 29 34 29
36 0 38 -2 38 -30z m-2673 -50 c37 -22 48 -41 58 -93 l7 -37 -91 0 c-75 0 -91
-3 -91 -15 0 -9 11 -20 25 -27 19 -9 29 -8 49 6 26 16 96 23 96 8 0 -16 -33
-53 -60 -67 -123 -64 -245 90 -158 200 38 48 110 59 165 25z m273 -5 c11 -10
20 -26 20 -37 0 -14 -8 -18 -35 -18 -19 0 -35 4 -35 9 0 15 -32 22 -46 10 -23
-19 -16 -27 41 -43 81 -24 110 -80 63 -123 -31 -28 -80 -37 -123 -23 -35 11
-65 43 -65 67 0 19 66 17 74 -3 4 -10 15 -14 33 -12 46 5 33 29 -25 48 -62 20
-68 25 -77 62 -6 22 -1 33 24 59 29 29 36 31 82 27 28 -3 58 -13 69 -23z m150
9 c0 -15 2 -15 25 0 39 25 90 20 127 -13 27 -24 32 -36 35 -87 5 -76 -18 -118
-75 -135 -33 -10 -45 -9 -72 5 -18 9 -35 16 -37 16 -1 0 -3 -31 -3 -70 l0 -70
-35 0 -35 0 0 185 0 185 35 0 c26 0 35 -4 35 -16z m310 1 c0 -8 3 -15 6 -15 3
0 12 7 20 15 9 8 24 15 35 15 16 0 19 -7 19 -40 0 -31 -3 -38 -15 -34 -8 4
-26 -1 -40 -10 -23 -15 -25 -22 -25 -96 l0 -80 -35 0 -35 0 0 130 0 130 35 0
c24 0 35 -5 35 -15z m305 -7 c29 -23 55 -74 55 -108 0 -19 -6 -20 -90 -20 -49
0 -90 -3 -90 -7 1 -33 46 -47 84 -28 31 16 86 20 86 6 0 -21 -45 -62 -81 -72
-104 -32 -191 61 -157 166 26 77 131 112 193 63z m275 7 c84 -44 82 -188 -4
-229 -94 -45 -189 15 -189 119 0 22 5 50 12 63 29 55 120 78 181 47z m289 1
c22 -12 51 -52 51 -71 0 -12 -77 -3 -94 10 -26 19 -32 19 -56 -5 -24 -24 -26
-72 -4 -94 20 -20 58 -21 74 -1 14 17 80 21 80 4 0 -24 -42 -68 -75 -79 -82
-27 -165 30 -165 115 0 24 4 55 10 69 21 56 117 84 179 52z m171 -69 c0 -91 8
-107 52 -107 38 0 48 24 48 114 l0 76 35 0 35 0 0 -125 0 -125 -40 0 c-33 0
-38 3 -33 18 6 15 4 15 -16 -3 -32 -28 -94 -26 -123 3 -20 20 -23 34 -26 127
l-4 105 36 0 36 0 0 -83z m310 66 c0 -15 1 -15 18 0 10 10 33 17 50 17 74 0
112 -45 112 -133 0 -45 -5 -61 -26 -86 -32 -38 -80 -49 -123 -27 l-31 17 0
-71 0 -70 -40 0 -40 0 0 185 0 185 40 0 c31 0 40 -4 40 -17z m402 6 c32 -17
48 -71 48 -159 l0 -80 -40 0 c-22 0 -40 5 -40 10 0 6 -13 4 -30 -5 -35 -18
-51 -19 -84 -4 -33 15 -50 57 -37 92 13 33 34 44 100 53 40 5 51 10 49 23 -4
19 -58 28 -68 11 -7 -12 -59 -21 -72 -14 -13 8 15 55 41 69 31 17 105 19 133
4z m490 -28 c21 -23 28 -42 28 -71 l0 -40 -85 0 c-69 0 -85 -3 -85 -15 0 -9
11 -21 26 -27 20 -10 30 -9 54 5 30 18 90 23 90 8 0 -5 -13 -23 -28 -39 -36
-38 -89 -50 -139 -31 -54 21 -78 60 -78 126 0 51 3 57 39 90 36 33 41 35 94
31 47 -4 60 -10 84 -37z m704 5 c28 -28 34 -42 34 -75 l0 -41 -85 0 c-69 0
-85 -3 -85 -15 0 -24 45 -41 73 -27 30 15 97 25 97 15 0 -5 -7 -19 -16 -31
-53 -76 -184 -62 -220 23 -18 44 -18 79 1 119 21 43 60 65 119 66 42 0 53 -5
82 -34z m454 -140 c14 -18 13 -19 -5 -13 -19 7 -19 7 -1 -7 19 -16 51 -130 41
-146 -4 -6 -3 -10 2 -10 4 0 9 -17 10 -38 1 -20 5 -47 8 -59 3 -14 1 -23 -6
-23 -8 0 -8 -4 1 -15 7 -8 9 -15 5 -15 -4 0 -3 -6 3 -12 5 -7 6 -22 2 -33 -4
-11 -3 -35 2 -54 5 -18 7 -44 4 -57 -4 -13 -2 -24 3 -24 6 0 6 -12 1 -30 -5
-16 -5 -32 -1 -35 5 -2 4 -26 -1 -52 -16 -82 -17 -114 -5 -106 7 4 5 -2 -3
-12 -9 -11 -10 -16 -2 -11 6 4 12 3 12 -3 0 -5 -6 -11 -12 -13 -9 -3 -8 -9 5
-22 22 -22 21 -28 -2 -43 -20 -13 -21 -61 -1 -73 6 -4 8 -14 4 -23 -3 -9 -10
-14 -15 -12 -4 3 -2 -10 6 -29 18 -43 19 -49 3 -40 -10 6 -10 5 -1 -7 8 -9 10
-29 7 -51 -6 -34 -9 -36 -62 -47 -30 -6 -66 -11 -79 -11 l-23 0 0 569 0 568
23 -1 c12 -1 31 1 42 5 11 4 20 6 20 5 1 0 7 -10 15 -20z m2035 -138 c19 -9
22 -14 13 -21 -9 -6 -3 -7 17 -4 21 4 38 -1 55 -13 14 -11 21 -20 16 -20 -4 0
-1 -12 9 -26 14 -22 15 -28 4 -35 -8 -5 -17 -3 -21 4 -8 12 -9 10 -12 -15 -1
-8 -18 -13 -46 -14 -49 -2 -79 -11 -95 -30 -7 -9 -26 -10 -68 -4 -71 10 -85
20 -30 20 21 0 62 8 89 17 49 17 49 17 19 24 -48 11 -175 10 -196 -1 -12 -7
-19 -7 -19 -1 0 18 39 32 95 32 56 1 80 13 45 22 -10 3 -46 2 -80 -2 -33 -4
-60 -4 -60 0 0 17 31 28 109 37 52 6 90 16 99 26 19 19 24 19 57 4z m-6595
-348 l0 -170 -40 0 -40 0 0 163 c0 90 3 167 7 170 3 4 21 7 40 7 l33 0 0 -170z
m2755 54 c14 -13 25 -30 25 -39 0 -21 -58 -20 -81 1 -20 18 -49 12 -49 -9 0
-9 19 -19 48 -27 63 -15 82 -34 82 -80 0 -42 -13 -56 -60 -70 -64 -18 -150 20
-150 66 0 20 64 18 80 -1 16 -19 55 -16 55 5 0 8 -21 21 -48 31 -64 23 -77 35
-77 73 0 43 19 66 60 75 50 10 86 2 115 -25z m-2496 0 c60 -50 60 -148 0 -198
-43 -36 -88 -42 -142 -18 -37 16 -47 28 -62 64 -22 58 -8 115 36 152 24 21 41
26 84 26 43 0 60 -5 84 -26z m262 -3 c16 -16 29 -34 29 -40 0 -17 -61 -13 -81
5 -11 10 -25 13 -39 9 -32 -10 -19 -28 32 -45 56 -18 88 -46 88 -74 0 -57 -69
-95 -139 -76 -39 10 -71 41 -71 67 0 19 66 17 74 -3 8 -20 61 -15 61 6 0 10
-21 22 -58 33 -63 20 -83 46 -71 93 9 36 42 54 97 54 40 0 53 -5 78 -29z m279
12 c0 -15 1 -15 18 0 29 27 98 22 127 -8 23 -22 25 -31 25 -125 l0 -100 -35 0
-35 0 0 78 c0 67 -3 82 -20 97 -16 15 -26 17 -48 9 -26 -9 -27 -12 -30 -97
l-3 -87 -39 0 -40 0 0 125 0 125 40 0 c31 0 40 -4 40 -17z m306 -62 c-1 -85
10 -111 48 -111 38 0 46 19 46 107 l0 83 40 0 40 0 0 -125 0 -125 -40 0 c-31
0 -40 4 -40 18 0 11 -3 13 -8 5 -12 -18 -61 -34 -87 -27 -13 3 -34 17 -47 31
-20 22 -23 36 -26 124 l-4 99 40 0 40 0 -2 -79z m314 69 c0 -7 6 -7 19 0 31
16 87 12 112 -9 23 -19 24 -19 48 0 34 27 93 25 128 -5 27 -23 28 -29 31 -125
l4 -101 -41 0 -41 0 0 85 c0 82 -1 86 -26 97 -46 21 -58 3 -64 -98 l-5 -89
-35 0 -35 0 -5 88 c-5 92 -15 110 -55 105 -29 -4 -45 -45 -45 -120 l0 -68 -35
0 -35 0 0 125 0 125 40 0 c22 0 40 -5 40 -10z m578 -6 c29 -20 52 -66 52 -104
l0 -30 -90 0 c-76 0 -88 -2 -84 -15 8 -21 53 -30 75 -16 23 14 99 15 99 1 0
-20 -47 -58 -84 -68 -36 -10 -73 -5 -113 17 -25 13 -53 69 -53 106 0 40 29 94
59 110 35 19 111 19 139 -1z m182 0 c0 -14 1 -14 16 0 8 9 24 16 35 16 15 0
19 -7 19 -35 0 -30 -3 -35 -24 -35 -39 0 -56 -35 -56 -112 l0 -68 -35 0 -35 0
0 125 0 125 40 0 c30 0 40 -4 40 -16z m305 -6 c80 -63 68 -180 -23 -220 -58
-26 -105 -17 -149 27 -29 29 -33 39 -33 85 0 28 5 60 11 71 30 57 141 79 194
37z m6315 -228 c27 -27 25 -56 -5 -84 l-25 -23 0 -496 0 -495 -31 -26 -31 -26
-593 0 c-514 0 -594 -2 -605 -15 -7 -8 -25 -15 -41 -15 -51 0 -64 66 -17 91
16 9 26 7 49 -10 28 -21 35 -21 618 -21 l590 0 20 26 c21 26 21 36 21 507 l0
480 -25 23 c-29 27 -32 60 -8 86 21 24 58 23 83 -2z m-2887 -191 c12 -7 49
-34 82 -62 75 -62 92 -68 175 -63 70 4 135 -5 152 -22 5 -5 11 -36 14 -68 3
-33 6 -64 9 -71 2 -6 1 -14 -3 -18 -9 -9 -10 -75 -1 -75 16 0 4 -55 -13 -62
-14 -6 -16 -12 -8 -32 6 -16 6 -27 -1 -31 -5 -4 -7 -11 -4 -16 8 -11 -22 -42
-33 -35 -4 2 -8 -4 -8 -14 0 -10 3 -17 7 -14 4 2 5 -5 2 -16 -5 -20 -33 -29
-33 -10 0 5 -15 0 -34 -11 -19 -11 -38 -19 -42 -18 -22 4 -35 -2 -28 -12 4 -8
9 -7 16 2 8 11 9 11 5 -1 -2 -8 -12 -14 -21 -14 -9 1 -16 -2 -16 -6 0 -4 -9
-10 -20 -13 -11 -3 -20 -2 -20 2 0 4 -7 8 -15 8 -20 0 -19 -7 3 -23 15 -12 15
-13 0 -14 -9 0 -19 -6 -21 -12 -3 -7 -6 -4 -7 7 -1 16 -4 14 -14 -10 -7 -16
-11 -35 -9 -42 3 -6 -5 -14 -17 -18 -12 -4 -19 -13 -18 -23 2 -9 -3 -16 -9
-15 -7 2 -13 -2 -13 -7 0 -6 -12 -10 -26 -10 -15 0 -23 4 -19 11 4 6 13 8 21
5 8 -3 14 -1 14 5 0 6 -10 9 -22 7 -18 -2 -23 1 -21 18 2 20 -25 39 -51 35 -4
-1 -5 10 -2 24 4 14 3 25 -1 24 -22 -4 -32 3 -27 16 4 8 11 12 17 8 6 -3 7 -1
3 6 -6 9 -11 9 -24 -1 -13 -11 -15 -10 -9 4 4 12 2 15 -8 12 -10 -4 -12 0 -8
17 4 12 2 20 -3 17 -5 -4 -10 4 -10 16 -1 13 -14 35 -29 50 -22 22 -24 30 -15
41 10 12 9 15 -4 15 -9 0 -16 4 -16 10 0 5 8 6 17 3 16 -6 16 -5 0 17 -18 26
-23 60 -8 60 5 0 8 15 7 33 0 21 3 31 12 30 14 -3 12 18 -3 29 -6 5 -6 8 2 8
7 0 10 9 7 23 -2 12 5 40 16 62 10 22 29 63 40 90 12 28 26 58 31 68 6 10 7
27 4 38 -7 20 9 49 27 49 5 0 19 -5 31 -11z m-5285 -66 c2 -24 -1 -32 -17 -36
-27 -7 -28 -37 -1 -37 16 0 20 -7 20 -30 0 -23 -4 -30 -20 -30 -18 0 -20 -8
-22 -97 l-3 -98 -32 -3 -33 -3 0 96 c0 88 -2 97 -20 102 -24 6 -29 63 -5 63 8
0 17 14 21 35 7 39 20 53 61 65 40 12 48 8 51 -27z m-498 -33 l0 -30 -60 0
-60 0 0 -35 0 -35 55 0 c54 0 55 0 55 -30 0 -30 -1 -30 -55 -30 l-55 0 0 -37
0 -38 60 1 60 1 0 -34 0 -34 -97 3 -98 3 -3 60 c-2 33 -1 106 3 163 l7 102 94
0 94 0 0 -30z m1210 -5 c0 -31 3 -35 25 -35 21 0 25 -5 25 -30 0 -25 -4 -30
-25 -30 -25 0 -26 -1 -23 -62 3 -57 5 -63 26 -66 17 -3 22 -10 22 -33 0 -27
-2 -29 -40 -29 -63 0 -80 24 -80 114 0 65 -2 74 -20 79 -28 7 -27 53 1 60 14
4 20 13 19 29 -3 37 -2 38 35 38 33 0 35 -2 35 -35z m-493 -44 c23 -11 49 -31
58 -45 21 -32 22 -104 1 -144 -17 -33 -70 -62 -113 -62 -63 0 -133 67 -133
128 0 57 43 116 96 132 41 12 44 12 91 -9z m313 -10 c14 -10 31 -29 37 -42 12
-23 11 -24 -22 -27 -20 -2 -45 4 -60 14 -35 23 -71 7 -80 -36 -13 -59 50 -107
85 -65 12 14 90 22 90 9 0 -3 -8 -19 -17 -35 -39 -66 -140 -77 -196 -20 -43
42 -49 120 -15 171 40 59 119 72 178 31z m1192 -14 c14 -17 18 -43 18 -124 l0
-103 -35 0 -35 0 0 78 c0 82 -16 122 -48 122 -39 -1 -47 -17 -52 -107 l-5 -88
-32 -3 -33 -3 0 130 0 131 35 0 c26 0 35 -4 35 -17 0 -15 2 -15 18 -1 36 33
104 25 134 -15z m-2082 16 c0 -15 1 -15 18 0 19 17 76 23 107 11 32 -13 45
-59 45 -159 l0 -96 -32 3 -33 3 -5 88 c-5 89 -13 107 -50 107 -37 0 -45 -18
-50 -107 l-5 -88 -32 -3 -33 -3 0 48 c0 26 -3 85 -7 131 l-6 82 42 0 c31 0 41
-4 41 -17z m1344 5 c34 -15 54 -47 62 -97 l7 -41 -92 0 c-95 0 -109 -8 -67
-35 22 -15 27 -15 55 -1 34 18 91 21 91 5 0 -22 -58 -68 -94 -74 -47 -9 -102
11 -129 47 -39 53 -21 164 32 193 32 17 101 19 135 3z m427 -16 c24 -21 32
-38 36 -75 l6 -47 -92 0 c-87 0 -91 -1 -82 -19 14 -25 46 -32 68 -15 24 18 93
19 93 1 0 -27 -57 -69 -102 -74 -76 -8 -138 50 -138 130 0 81 46 127 127 127
43 0 58 -5 84 -28z m715 -6 c19 -19 34 -39 34 -45 0 -17 -65 -13 -98 6 -29 17
-31 17 -51 -1 -24 -21 -29 -84 -9 -104 17 -17 65 -15 72 3 6 15 86 22 86 8 0
-28 -43 -73 -80 -84 -81 -24 -156 24 -167 108 -11 83 43 142 131 143 42 0 53
-5 82 -34z m154 18 c0 -14 2 -14 22 0 39 27 58 21 58 -19 0 -28 -4 -35 -19
-35 -43 0 -60 -30 -63 -110 l-3 -75 -32 -3 -33 -3 0 130 0 131 35 0 c25 0 35
-4 35 -16z m301 -1 c28 -17 59 -75 59 -113 0 -18 -7 -20 -90 -20 -49 0 -90 -3
-90 -7 1 -31 48 -49 76 -28 20 15 94 21 94 6 0 -21 -45 -62 -81 -72 -49 -15
-112 1 -134 35 -65 99 -15 216 92 216 25 0 58 -8 74 -17z m298 -14 c17 -17 31
-37 31 -45 0 -19 -67 -19 -86 1 -21 20 -40 19 -64 -5 -24 -24 -26 -72 -4 -94
20 -20 58 -21 74 -1 15 19 80 20 80 2 0 -21 -29 -56 -60 -72 -85 -44 -180 17
-180 115 0 84 45 130 126 130 45 0 57 -4 83 -31z m261 16 c35 -18 60 -62 60
-105 l0 -30 -90 0 c-95 0 -108 -8 -64 -37 25 -16 28 -16 56 0 38 22 88 23 88
2 0 -24 -48 -64 -86 -71 -46 -8 -78 1 -115 34 -37 33 -50 102 -29 153 26 61
115 88 180 54z m182 -4 c-2 -11 2 -10 22 3 42 27 56 21 56 -24 0 -38 -2 -40
-30 -40 -39 0 -50 -23 -50 -109 l0 -71 -35 0 -35 0 0 131 0 130 38 -3 c25 -2
36 -7 34 -17z m1278 -432 c5 -7 6 -19 2 -27 -4 -11 -1 -14 11 -9 14 5 15 4 4
-13 -14 -23 -29 -27 -21 -5 4 8 1 15 -5 15 -6 0 -11 -4 -11 -10 0 -5 -8 -7
-17 -3 -15 5 -15 3 2 -11 11 -10 14 -15 7 -11 -6 3 -15 -1 -18 -9 -3 -9 -10
-13 -15 -10 -5 3 -9 -4 -9 -14 0 -23 -29 -37 -44 -22 -6 6 -16 4 -28 -7 -18
-16 -18 -16 -12 0 3 9 2 17 -4 17 -6 0 -13 -6 -15 -12 -3 -8 -6 -5 -6 5 -1 10
-6 15 -12 12 -6 -4 -8 -13 -5 -21 7 -18 -8 -18 -23 0 -7 8 -21 12 -31 9 -12
-3 -20 0 -20 6 0 7 4 10 9 6 5 -3 12 -1 16 5 3 5 -3 10 -14 10 -12 0 -21 6
-21 13 0 8 -10 19 -22 25 -18 8 -19 11 -6 11 12 1 15 6 11 17 -4 12 -7 13 -14
3 -9 -16 -19 -8 -23 18 -2 10 4 20 12 24 8 3 82 4 165 3 107 -2 152 -6 157
-15z m-420 -19 c12 -22 5 -60 -10 -60 -5 0 -10 -101 -12 -225 l-3 -224 -37
-38 c-34 -35 -36 -43 -40 -110 -3 -68 -6 -75 -41 -111 -20 -21 -37 -43 -37
-50 0 -7 -4 -12 -10 -12 -21 0 -9 24 30 60 40 36 40 38 40 109 0 70 1 73 40
115 l40 43 0 216 c0 177 -2 216 -14 220 -8 3 -20 15 -26 26 -8 17 -7 24 10 41
26 26 56 26 70 0z m-120 -1345 c7 -8 29 -15 48 -15 25 0 44 -8 64 -27 15 -14
31 -23 35 -19 4 4 1 11 -6 15 -7 5 -11 14 -7 19 10 17 36 2 36 -19 0 -18 10
-19 153 -19 l153 0 49 -50 49 -50 172 0 c144 0 173 2 178 15 7 18 47 20 64 3
32 -32 -8 -80 -48 -58 -11 6 -20 15 -20 20 0 6 -68 10 -171 10 l-171 0 -56 50
-56 50 -173 0 c-158 0 -173 2 -182 19 -15 27 -104 43 -125 22 -12 -12 -18 -12
-28 -3 -7 7 -20 12 -31 12 -11 0 -17 5 -14 13 2 6 14 11 25 9 12 -2 22 2 22 7
0 16 26 13 40 -4z"/>
<path d="M3005 6881 c-43 -18 -60 -50 -60 -113 0 -55 3 -62 33 -89 36 -32 77
-37 121 -15 34 18 51 54 51 112 0 39 -5 51 -34 80 -35 35 -68 42 -111 25z"/>
<path d="M7452 5064 c-6 -16 -14 -49 -17 -74 l-7 -45 42 57 41 57 35 -38 c31
-36 41 -40 117 -51 114 -18 176 -43 222 -90 41 -42 57 -94 25 -82 -13 5 -13 4
0 -13 14 -17 13 -18 -3 -12 -17 7 -18 0 -14 -111 3 -67 2 -93 -2 -62 -7 59
-18 52 -24 -15 -4 -39 -4 -38 -5 8 -2 59 -22 54 -22 -6 0 -41 -13 -42 -23 -2
-3 12 -5 6 -6 -15 -1 -27 -4 -31 -11 -20 -8 12 -10 11 -10 -7 0 -12 -9 -27
-20 -33 -11 -6 -22 -21 -26 -34 -3 -14 -33 -46 -66 -72 -33 -27 -55 -50 -49
-52 18 -6 115 65 134 97 10 17 24 31 30 31 21 0 40 -17 33 -29 -4 -6 -12 -8
-18 -5 -7 4 -8 2 -4 -4 4 -6 0 -25 -9 -43 -9 -17 -14 -33 -11 -36 5 -5 213
-62 229 -63 4 0 7 -7 7 -16 0 -13 -7 -15 -32 -12 -53 8 -212 58 -219 69 -7 12
-19 -12 -19 -39 0 -9 -7 -30 -15 -46 -8 -15 -13 -32 -10 -37 8 -12 -19 -71
-41 -90 -11 -9 -30 -19 -44 -22 -84 -19 -140 -56 -67 -44 23 3 40 0 57 -13
l24 -18 -27 -28 c-18 -18 -25 -33 -22 -46 4 -10 2 -18 -4 -18 -6 0 -11 5 -11
11 0 5 -4 8 -9 5 -5 -3 -7 -15 -4 -25 6 -23 -15 -36 -83 -51 -27 -6 -52 -16
-56 -23 -11 -16 -10 -227 0 -227 5 0 17 9 27 20 19 21 79 28 89 11 3 -5 1 -23
-6 -41 -9 -27 -8 -38 7 -64 16 -26 16 -29 2 -18 -14 12 -17 10 -23 -13 -5 -20
-9 -23 -15 -13 -5 8 -9 -16 -10 -62 -1 -72 -2 -73 -11 -35 -13 49 -17 53 -28
35 -8 -13 -10 -12 -10 3 0 9 -5 17 -11 17 -18 0 -4 -134 17 -169 9 -16 48 -48
86 -72 38 -24 131 -83 206 -132 95 -61 145 -87 162 -85 19 2 24 8 22 22 -3 17
-2 18 12 7 9 -8 16 -20 16 -27 0 -8 9 -14 20 -14 11 0 52 -31 92 -71 91 -88
200 -162 538 -364 36 -22 98 -61 139 -87 40 -26 84 -48 96 -48 33 0 72 51 85
112 8 37 10 250 8 713 -3 631 -4 660 -21 663 -11 2 -29 -6 -42 -18 -42 -39
-95 -11 -81 43 9 37 50 46 80 18 12 -11 32 -21 45 -21 l22 0 -3 438 c-4 476
-4 481 -64 559 -21 27 -32 33 -63 33 -38 0 -68 -19 -53 -35 4 -5 0 -5 -8 0
-12 6 -13 5 -3 -5 10 -10 6 -21 -17 -51 -36 -45 -37 -49 -5 -49 16 0 25 -6 25
-15 0 -13 -11 -15 -72 -10 -40 3 -81 8 -91 11 -23 7 -17 28 10 32 20 3 168
120 161 128 -2 2 -107 13 -234 24 -237 22 -355 23 -362 2 -6 -18 -22 -15 -22
4 0 9 -6 14 -12 11 -7 -2 -33 2 -58 9 -54 16 -359 52 -511 61 l-105 6 -12 -29z
m1012 -261 c4 -4 46 -9 94 -11 48 -1 92 -4 97 -4 21 -2 30 -24 24 -53 l-7 -30
-1 28 c-1 31 -21 28 -21 -4 0 -12 -7 -19 -19 -19 -14 0 -31 -24 -64 -92 l-45
-93 23 -8 c21 -7 23 -13 18 -45 -3 -20 -7 -38 -8 -40 -6 -8 -38 14 -44 31 -6
15 -15 -2 -43 -74 -20 -52 -39 -101 -43 -111 -5 -12 1 -18 24 -23 17 -4 33
-11 36 -16 8 -11 -2 -11 -43 0 -20 6 -32 6 -32 0 0 -5 6 -9 13 -9 6 -1 26 -7
42 -15 l30 -15 -44 6 c-31 4 -46 2 -53 -7 -6 -10 -8 -2 -3 23 4 25 2 38 -7 41
-8 3 -6 6 5 6 17 1 24 25 10 34 -5 2 -3 2 4 1 17 -4 22 6 32 63 5 26 13 55 16
65 4 11 0 18 -13 23 -17 5 -19 10 -11 37 11 39 16 45 31 30 19 -19 38 -14 49
15 8 23 6 31 -19 57 -71 77 -85 116 -41 116 19 0 35 38 26 62 -3 7 -6 3 -6 -9
-2 -45 -61 -21 -61 24 0 17 6 23 23 23 13 0 27 -3 31 -7z m-322 -1043 c23 -44
24 -142 3 -160 -36 -30 -75 33 -75 123 0 83 39 103 72 37z m416 -33 c55 -59
94 -219 73 -304 -40 -160 -174 -101 -210 92 -28 153 62 292 137 212z m-781
-357 c18 0 16 -20 -4 -42 -14 -16 -14 -18 0 -18 8 0 18 -6 21 -12 3 -7 4 10 3
39 -3 38 -1 50 9 46 7 -2 15 -11 18 -19 7 -19 33 -18 44 1 7 14 10 14 24 -2
12 -13 18 -50 24 -146 l7 -127 -94 56 c-52 31 -113 66 -137 77 -27 14 -41 26
-37 35 3 7 5 36 5 63 0 40 3 49 18 48 10 0 12 -3 5 -6 -7 -2 -13 -11 -13 -19
0 -12 4 -12 19 -2 11 7 18 15 15 19 -2 4 1 11 7 15 9 5 10 -3 5 -29 -7 -38 9
-61 25 -36 13 20 11 67 -3 71 -7 3 -9 11 -3 24 7 17 9 17 18 -8 6 -16 17 -28
24 -28z"/>
<path d="M8474 3720 c-42 -17 -59 -165 -29 -251 25 -69 77 -116 115 -104 77
24 67 241 -15 328 -37 40 -39 40 -71 27z"/>
<path d="M6815 4193 c3 -21 17 -58 31 -82 13 -24 24 -47 24 -52 0 -22 -43 -5
-81 31 -23 22 -44 40 -45 40 -2 0 2 -14 8 -30 13 -40 4 -64 -19 -52 -13 7 -23
4 -36 -8 -17 -17 -17 -18 10 -23 62 -12 153 -19 177 -13 14 3 44 25 66 48 29
31 43 39 51 31 8 -8 4 -15 -17 -27 l-29 -15 27 -1 c40 0 58 -10 58 -31 0 -23
-5 -23 170 1 79 11 145 20 146 20 9 0 31 91 23 95 -13 8 -11 35 2 35 6 0 9 -6
6 -13 -3 -8 0 -14 7 -14 14 0 14 35 -1 61 -7 12 -21 18 -39 18 -67 -2 -160
-15 -178 -24 -13 -7 -21 -6 -27 3 -6 10 -9 11 -9 2 0 -7 -7 -13 -15 -13 -11 0
-15 -12 -16 -47 0 -40 -2 -44 -10 -25 -11 28 -49 78 -49 66 -1 -5 -10 2 -21
16 -12 13 -33 25 -47 26 -15 1 -27 3 -27 4 0 0 -33 3 -74 6 l-73 5 7 -38z"/>
<path d="M6354 3894 c39 -35 26 -41 -23 -10 -44 28 -75 33 -87 14 -5 -7 -2 -9
9 -5 16 6 32 -17 22 -33 -3 -5 3 -15 12 -22 10 -7 19 -19 21 -27 2 -11 0 -12
-11 -3 -8 7 -18 8 -22 4 -5 -4 -5 -1 0 7 5 9 4 12 -3 7 -19 -12 -11 -55 10
-51 10 2 21 -1 24 -7 5 -7 2 -8 -7 -3 -11 7 -12 6 -2 -6 6 -8 10 -37 9 -66
l-3 -52 53 -36 c30 -19 54 -31 54 -27 0 5 -17 18 -39 30 -42 24 -71 52 -53 52
6 0 32 -14 57 -32 31 -22 45 -39 45 -55 0 -13 -3 -23 -6 -23 -4 0 -29 16 -55
35 -53 38 -72 44 -63 20 8 -19 -7 -19 -32 0 -38 28 -37 14 2 -21 31 -29 27
-27 -23 10 -34 26 -65 52 -69 59 -4 6 5 1 19 -12 15 -14 30 -21 34 -18 3 4 4
8 2 10 -2 2 -17 13 -33 25 l-29 22 -22 -37 c-42 -71 -41 -74 27 -129 35 -28
110 -88 167 -134 120 -96 147 -105 157 -54 9 50 -5 196 -27 275 -23 84 -23 82
1 74 15 -5 21 0 26 19 11 44 2 61 -36 64 -32 3 -49 15 -50 35 0 5 18 6 40 2
39 -7 40 -6 41 22 2 37 -2 77 -7 82 -8 9 -78 1 -84 -9 -4 -7 -16 -3 -32 10
-37 29 -49 24 -14 -6z"/>
<path d="M550 3975 l0 -95 44 0 c58 0 86 32 86 97 0 59 -32 93 -90 93 l-40 0
0 -95z"/>
<path d="M10217 9492 c-13 -14 -17 -38 -17 -95 l0 -76 -45 -42 c-45 -42 -46
-44 -43 -98 3 -63 26 -81 46 -36 7 14 28 35 47 46 l35 21 0 149 c0 82 -2 149
-3 149 -2 0 -11 -8 -20 -18z"/>
<path d="M10027 8750 c-4 -18 -13 -30 -22 -30 -8 0 -18 0 -22 0 -5 0 -8 6 -8
13 -1 26 -18 37 -55 37 -21 0 -42 -5 -46 -11 -4 -7 -21 -9 -45 -5 l-39 6 0
-35 c0 -34 1 -35 38 -35 32 0 45 -7 87 -50 l49 -50 108 0 107 0 30 -32 31 -33
0 51 c0 50 -1 52 -30 56 -17 3 -39 -2 -51 -10 -11 -7 -26 -11 -34 -8 -7 2 -15
0 -17 -6 -7 -19 -28 2 -28 27 0 17 4 23 14 19 7 -3 16 2 19 10 7 17 39 14 93
-9 33 -14 34 -13 34 10 0 13 -4 27 -10 30 -5 3 -10 17 -10 30 0 38 -35 55
-116 55 -71 0 -72 0 -77 -30z"/>
<path d="M9796 8658 c4 -13 37 -53 74 -90 l67 -68 91 0 c75 0 92 -3 92 -15 0
-18 45 -49 62 -42 7 2 23 -5 36 -16 l22 -20 0 49 c0 45 -4 54 -38 87 l-38 37
-102 0 -103 0 -50 50 c-41 41 -56 50 -85 50 -32 0 -35 -2 -28 -22z"/>
<path d="M9590 8448 l0 -95 50 -46 c28 -25 50 -53 50 -61 0 -8 5 -18 10 -21 6
-4 10 36 10 112 l0 118 -30 17 c-17 9 -30 24 -30 32 0 10 -6 13 -16 9 -11 -4
-22 1 -30 12 -12 16 -14 6 -14 -77z"/>
<path d="M9407 8514 c-3 -4 3 -18 13 -32 11 -13 20 -39 20 -56 0 -27 14 -46
88 -119 49 -48 94 -87 100 -87 24 0 10 25 -40 74 -29 28 -65 66 -81 86 -16 19
14 -9 67 -62 52 -54 98 -98 101 -98 3 0 5 8 5 18 0 20 -263 286 -273 276z"/>
<path d="M9250 8408 c-50 -11 -69 -30 -71 -73 l-2 -30 -4 28 c-5 29 -15 34
-31 15 -21 -27 -19 -128 3 -128 10 0 15 10 15 34 0 19 4 38 10 41 6 3 9 -9 7
-32 -2 -36 -1 -38 32 -41 27 -3 40 3 66 28 31 30 34 39 37 101 2 42 -1 69 -7
68 -5 -1 -30 -6 -55 -11z"/>
<path d="M9843 8393 c-19 -4 -23 -11 -23 -44 0 -22 -4 -38 -9 -34 -14 8 -51
-45 -51 -74 0 -26 1 -26 70 -26 l70 -1 2 66 1 65 6 -60 6 -60 53 -5 c30 -3 56
-2 59 3 4 7 -143 170 -157 173 -3 1 -15 -1 -27 -3z"/>
<path d="M9053 8373 c-29 -2 -53 -9 -53 -15 0 -6 -10 -8 -23 -4 -23 5 -62 -28
-131 -111 l-19 -23 141 0 142 0 0 46 c0 48 13 81 39 101 17 13 16 14 -96 6z"/>
<path d="M10205 8141 c7 -24 -19 -35 -36 -15 -11 13 -14 13 -23 -3 -24 -44
-17 -72 29 -122 l45 -48 0 -167 c0 -104 4 -166 10 -166 14 0 13 267 -2 418 -7
67 -16 122 -21 122 -4 0 -6 -8 -2 -19z"/>
<path d="M9631 7987 l-1 -79 -106 -106 -105 -107 5 -104 c3 -57 6 -128 6 -158
0 -31 4 -53 11 -53 5 0 7 5 4 10 -6 10 64 8 158 -4 22 -3 37 -1 37 6 0 5 7 8
15 4 25 -9 21 96 -5 119 -20 18 -27 45 -12 45 19 -1 62 -75 62 -108 0 -31 2
-34 25 -30 14 3 25 1 25 -3 0 -5 9 -9 20 -9 11 0 20 4 20 9 0 11 47 3 87 -15
18 -8 43 -12 58 -8 18 4 25 2 25 -9 0 -16 29 -32 39 -21 3 4 0 9 -7 11 -21 8
-34 40 -17 46 9 4 12 1 8 -9 -3 -8 1 -14 10 -14 18 0 26 -18 19 -42 -4 -16
-21 -22 -59 -21 -7 1 -13 -8 -13 -19 0 -14 5 -18 14 -15 11 4 13 1 9 -10 -4
-10 -2 -14 5 -9 6 3 13 -3 17 -14 8 -26 25 -26 25 0 0 14 5 18 16 13 9 -3 12
-9 7 -12 -5 -3 -12 -13 -15 -22 -6 -14 6 -16 102 -15 59 0 106 4 104 8 -2 4 0
9 4 12 5 3 9 66 10 141 1 135 1 135 -22 135 -13 0 -29 7 -36 15 -13 16 -6 65
10 65 6 0 10 64 10 166 l0 166 -41 49 c-22 27 -44 49 -49 49 -4 0 -10 -13 -13
-30 -8 -37 -53 -53 -73 -26 -6 10 -14 14 -17 9 -2 -4 -4 -67 -3 -139 1 -113 4
-135 19 -152 27 -30 19 -66 -16 -70 -52 -6 -76 38 -39 71 17 15 18 32 14 184
-2 93 -6 170 -8 172 -2 2 -10 -2 -19 -9 -8 -7 -28 -10 -45 -8 -29 4 -30 3 -30
-35 0 -28 8 -49 30 -77 l30 -38 0 -155 c0 -100 4 -158 11 -162 6 -4 14 -17 19
-29 18 -49 -60 -79 -82 -31 -10 21 -8 29 10 48 21 22 22 33 22 173 l0 150 -30
34 c-22 26 -29 45 -30 77 0 36 -2 40 -20 36 -24 -6 -26 -35 -5 -53 22 -18 19
-57 -5 -65 -12 -4 -27 -1 -35 5 -17 14 -20 46 -5 55 18 11 10 44 -12 51 -46
15 -48 14 -48 -32 0 -55 18 -91 64 -127 l36 -28 0 -84 c0 -70 3 -85 16 -85 12
0 14 -9 12 -37 -3 -34 -6 -38 -33 -41 -47 -6 -79 59 -35 73 18 6 20 15 20 81
0 73 -1 76 -40 117 l-39 42 -1 -57 c0 -32 -4 -58 -8 -58 -5 0 -23 -18 -41 -40
-27 -34 -30 -42 -19 -59 15 -25 -6 -53 -36 -49 -41 6 -31 44 28 110 l56 63 -1
117 c-1 70 -5 115 -11 112 -5 -3 -8 -52 -6 -109 l3 -104 -56 -58 c-72 -74 -79
-87 -67 -132 16 -57 14 -83 -4 -95 -14 -8 -21 -7 -35 6 -15 16 -15 19 1 56 9
21 16 42 15 48 -5 29 7 52 66 114 l65 69 0 96 c0 64 -4 95 -11 95 -8 0 -10
-26 -7 -87 l5 -86 -86 -90 c-47 -51 -80 -92 -73 -95 17 -5 15 -47 -4 -62 -13
-11 -19 -10 -36 8 -19 19 -20 23 -6 44 9 13 54 64 101 114 l86 91 -8 99 -8 99
-2 -78z"/>
<path d="M9538 8032 c-33 -4 -33 -5 -12 -37 15 -22 15 -25 1 -25 -9 0 -19 9
-22 20 -7 21 -32 38 -52 34 -7 -1 -20 -2 -29 -3 -8 0 -12 -5 -9 -11 3 -5 1
-10 -4 -10 -6 0 -20 -8 -31 -17 -18 -15 -20 -30 -20 -124 0 -86 3 -108 15
-113 18 -7 20 -47 3 -64 -17 -17 -44 -15 -62 4 -21 21 -20 41 4 61 17 15 20
29 19 93 -1 41 -4 87 -8 103 l-6 27 -57 -55 -58 -56 1 -227 c0 -125 3 -220 6
-212 8 20 23 29 40 23 11 -4 11 -8 1 -22 -8 -10 -3 -8 11 4 14 11 21 14 17 8
-9 -16 -1 -16 24 -3 13 7 19 6 24 -6 4 -11 13 -13 28 -8 20 6 21 5 9 -10 -12
-14 -12 -16 4 -9 15 5 17 3 12 -11 -4 -10 -3 -15 3 -11 6 4 10 12 9 18 -1 7
-1 79 0 161 l1 149 105 107 105 106 0 60 c0 64 0 64 -72 56z"/>
<path d="M9270 7959 c0 -6 -7 -9 -15 -5 -8 3 -22 -3 -31 -12 -10 -9 -19 -16
-21 -14 -3 2 -13 -8 -24 -22 -11 -15 -30 -26 -42 -26 -21 0 -22 -3 -19 -102 3
-76 7 -105 18 -111 17 -10 18 -49 2 -65 -7 -7 -21 -12 -33 -12 -45 0 -59 46
-25 80 14 14 20 33 20 63 0 68 -11 117 -26 117 -8 0 -14 10 -14 25 0 21 -4 24
-26 23 -35 -3 -44 -30 -45 -131 l-2 -82 -8 60 c-4 33 -9 80 -10 106 -2 43 -3
45 -31 41 -15 -2 -29 -8 -29 -13 -3 -19 -5 -24 -12 -35 -4 -7 2 -15 16 -19 22
-7 22 -8 -3 -12 -14 -2 -34 -8 -45 -13 -40 -17 -53 -18 -65 -7 -10 9 -11 9 -5
-2 6 -10 4 -12 -4 -7 -6 4 -19 2 -27 -5 -8 -6 -17 -9 -21 -5 -4 3 3 13 15 22
12 8 27 24 33 36 10 19 8 18 -22 -4 -19 -14 -41 -23 -49 -20 -13 4 -13 3 -1
-11 12 -16 8 -17 -45 -19 l-59 -1 50 -7 c49 -7 50 -7 10 -9 -39 -1 -68 -12
-66 -25 3 -17 0 -20 -8 -7 -7 12 -13 12 -24 3 -7 -7 -18 -8 -22 -4 -5 4 -5 1
-1 -6 4 -7 12 -10 17 -7 5 4 9 4 9 1 0 -10 -58 -35 -65 -28 -5 4 -5 1 -1 -6 4
-7 12 -10 17 -7 5 4 9 1 9 -4 0 -6 -7 -11 -15 -11 -8 0 -15 -7 -15 -15 0 -16
29 -10 42 9 4 6 8 -1 8 -16 0 -21 4 -26 16 -21 11 4 12 8 4 13 -9 5 -9 9 -1
14 14 9 26 -19 15 -35 -4 -7 -3 -9 4 -5 6 3 13 2 17 -4 8 -13 35 -13 35 1 0 5
-4 8 -9 4 -5 -3 -12 -1 -15 4 -4 5 2 8 11 6 13 -2 17 -10 15 -29 -3 -24 6 -31
32 -27 5 1 6 -5 3 -13 -5 -11 0 -13 21 -6 18 5 31 3 39 -5 7 -7 10 -15 8 -17
-3 -2 18 -1 46 2 39 5 49 4 45 -7 -3 -7 -2 -12 2 -12 24 4 42 -3 42 -16 0 -8
5 -15 11 -15 5 0 7 6 3 13 -6 10 -4 10 7 0 20 -19 26 -16 33 18 5 27 9 30 38
27 23 -2 36 -10 43 -26 6 -15 16 -21 27 -18 10 2 21 0 24 -6 3 -5 15 -8 25 -5
12 3 23 -2 29 -14 6 -10 15 -19 21 -19 6 0 7 6 3 13 -4 7 -3 9 2 4 5 -5 10
-13 10 -18 4 -31 7 -30 15 1 5 19 8 122 8 229 l-1 194 53 53 c29 30 48 54 41
54 -7 0 -12 -5 -12 -11z"/>
<path d="M10165 7133 c-11 -3 -24 -9 -30 -13 -5 -4 -57 -10 -115 -14 -58 -4
-147 -12 -198 -18 l-93 -12 7 -28 c7 -33 -17 -68 -46 -68 -25 0 -50 32 -50 64
0 16 -4 25 -10 21 -6 -4 -32 -8 -57 -10 -28 -2 -51 -9 -59 -19 -6 -9 -25 -16
-42 -16 -17 0 -34 -5 -37 -11 -4 -6 -13 -8 -21 -5 -8 3 -14 -1 -14 -10 0 -11
6 -13 20 -9 11 4 20 2 20 -4 0 -6 -7 -11 -16 -11 -8 0 -12 -5 -9 -10 4 -6 22
-9 41 -6 19 4 34 2 34 -4 0 -6 7 -10 15 -10 8 0 15 4 15 8 0 10 30 9 48 -2 7
-4 19 -2 27 4 9 7 26 9 41 6 14 -4 23 -3 20 2 -3 5 5 8 17 7 12 -1 20 -6 17
-11 -3 -5 -9 -8 -15 -6 -6 2 -6 -1 0 -7 7 -7 22 -8 43 -2 19 6 32 6 32 0 0 -5
10 -9 23 -9 59 -1 67 -2 67 -8 0 -9 69 -14 81 -6 5 3 37 7 72 9 50 3 65 0 79
-15 19 -20 7 -40 -24 -40 -10 0 -18 -6 -18 -14 0 -10 21 -13 90 -14 49 -1 92
3 95 8 4 6 11 8 16 5 5 -4 9 52 9 139 l0 146 -27 -1 c-16 -1 -37 -4 -48 -6z"/>
<path d="M10117 2682 l-117 -117 0 -452 -1 -452 -39 -46 c-22 -26 -40 -54 -40
-64 0 -10 -7 -24 -15 -31 -12 -10 -15 -45 -15 -198 0 -179 -1 -187 -22 -210
-13 -13 -23 -36 -23 -50 0 -17 -6 -28 -17 -30 -14 -3 -18 3 -18 26 0 20 10 38
35 61 l35 31 0 176 c0 97 -3 174 -7 172 -53 -25 -73 -45 -73 -74 0 -17 9 -43
20 -57 15 -19 20 -40 20 -91 0 -55 -4 -69 -25 -92 -14 -15 -25 -39 -25 -55 0
-20 -11 -37 -40 -62 -40 -34 -40 -35 -40 -104 0 -51 4 -74 15 -83 20 -17 19
-37 -3 -49 -38 -20 -71 31 -38 59 11 8 15 32 14 79 -1 68 -1 69 41 106 31 28
41 45 41 68 0 18 9 40 22 54 32 35 38 125 9 163 -13 19 -21 44 -21 70 0 40 0
40 -39 40 -62 0 -71 -21 -71 -163 0 -104 -3 -122 -20 -144 -14 -19 -20 -41
-20 -79 0 -30 5 -54 10 -54 15 0 12 -36 -5 -50 -25 -21 -37 -2 -30 49 3 26 8
64 9 85 2 20 13 47 25 60 19 20 21 33 21 143 0 103 -3 122 -18 136 -40 37 -67
23 -188 -95 l-114 -111 0 -140 0 -140 80 -74 c69 -65 80 -79 79 -106 l-2 -32
-6 32 c-4 23 -27 52 -83 103 l-78 72 0 134 0 135 -55 -48 c-30 -26 -55 -51
-55 -55 0 -17 29 -7 35 12 3 11 13 20 21 20 8 0 17 1 21 3 3 1 7 -51 7 -115 1
-132 -12 -147 -16 -20 -4 104 -22 113 -26 12 -4 -109 -9 -127 -11 -37 0 45 -5
77 -11 77 -7 0 -10 -33 -8 -93 2 -70 6 -91 16 -89 8 1 11 -2 8 -7 -3 -5 28
-41 70 -79 l75 -70 -2 -123 c-1 -69 2 -125 7 -127 5 -1 10 58 12 135 l3 137
-38 34 c-38 35 -17 25 25 -12 20 -18 22 -28 22 -119 0 -74 3 -98 13 -95 8 3
14 37 18 104 l5 99 2 -97 c2 -118 21 -133 24 -20 l2 77 3 -68 c3 -48 8 -67 16
-64 8 2 13 39 15 114 l3 110 -33 30 c-18 16 -49 47 -68 69 -19 21 -2 8 38 -31
l72 -69 0 -103 c0 -57 4 -103 9 -103 16 0 21 30 21 123 l0 92 -65 64 -65 65 0
57 c0 44 -4 60 -17 67 -21 12 -10 42 16 42 25 0 37 -18 22 -33 -6 -6 -11 -38
-11 -72 l0 -61 65 -64 65 -64 0 -96 0 -95 25 30 c13 17 32 49 42 72 18 42 32
50 67 37 18 -7 22 -39 6 -49 -15 -9 -12 -27 9 -55 19 -23 20 -24 39 -7 17 15
18 29 16 127 l-3 110 40 46 c29 34 38 51 33 66 -7 23 9 38 43 38 13 0 24 -8
28 -20 7 -23 -10 -50 -31 -50 -8 0 -32 -16 -54 -36 -40 -36 -40 -37 -40 -110
0 -41 4 -74 9 -74 6 0 7 -16 4 -36 -4 -25 -2 -39 8 -45 11 -7 9 -9 -7 -9 -26
0 -48 -24 -41 -44 10 -26 86 -58 128 -54 22 2 39 1 39 -2 0 -3 -28 -18 -63
-33 -34 -15 -73 -37 -87 -47 l-25 -20 156 0 156 0 72 -75 c40 -41 75 -75 77
-75 2 0 4 38 4 85 l0 85 -31 0 c-18 0 -37 -7 -44 -17 -14 -19 -42 -12 -51 12
-4 9 1 24 11 35 14 16 15 23 6 34 -7 8 -10 20 -6 26 8 12 45 13 45 1 0 -5 10
-12 23 -14 16 -3 13 -5 -10 -6 -18 0 -33 -6 -33 -12 0 -19 31 -41 61 -44 l29
-3 0 89 0 89 -63 0 -63 0 -74 -75 c-78 -78 -110 -99 -64 -41 34 42 32 51 -9
51 -26 0 -33 4 -35 22 -2 16 2 23 12 23 13 0 16 11 16 52 0 47 4 56 39 93 37
38 39 43 43 118 5 76 6 79 48 122 l43 44 -6 221 c-5 180 -9 223 -22 236 -17
17 -21 74 -5 74 6 0 10 138 10 393 l0 392 65 70 64 70 1 123 c0 67 -1 122 -3
122 -1 0 -55 -53 -120 -118z"/>
<path d="M10182 2457 l-52 -53 0 -379 c0 -369 1 -381 20 -393 24 -15 28 -70 5
-78 -13 -5 -15 -41 -15 -238 l0 -232 -40 -39 c-40 -39 -40 -39 -40 -116 l0
-77 -46 -40 c-44 -40 -45 -42 -42 -94 4 -64 26 -76 54 -29 10 17 27 31 37 31
11 0 55 35 98 77 67 65 79 81 79 110 0 20 -5 33 -13 33 -7 0 -39 -27 -71 -59
-43 -43 -61 -70 -66 -98 l-8 -38 -1 35 c-1 29 9 46 56 98 31 35 67 68 80 73
l23 9 0 775 c0 426 -1 775 -3 775 -1 0 -26 -24 -55 -53z"/>
<path d="M9210 1310 c0 -88 3 -159 8 -159 4 1 31 28 61 60 42 46 52 62 43 71
-16 16 -15 23 4 43 20 19 46 3 37 -23 -3 -9 11 2 32 25 20 23 62 65 93 92 l57
51 -167 0 -168 0 0 -160z"/>
<path d="M8020 963 c-14 -3 -29 -11 -33 -19 -4 -8 -18 -14 -30 -14 -18 0 -13
-8 32 -54 l53 -53 191 -9 c106 -5 228 -9 272 -9 l80 0 3 30 c2 25 -6 38 -45
76 l-48 47 -225 5 c-124 2 -236 2 -250 0z"/>
<path d="M10176 794 c-32 -35 -75 -73 -95 -84 -34 -17 -61 -54 -61 -83 0 -6
19 8 43 31 42 41 44 42 110 42 l67 0 0 80 c0 44 -1 80 -2 80 -2 -1 -29 -30
-62 -66z"/>
<path d="M9745 443 c-35 -39 -41 -62 -19 -84 16 -15 44 -19 182 -25 159 -7
164 -8 175 -31 6 -14 16 -21 26 -18 23 7 44 -9 39 -31 -5 -28 -51 -25 -58 3
-12 52 -34 63 -120 63 -70 0 -80 -2 -80 -18 0 -19 -18 -42 -32 -42 -5 0 -13
12 -18 26 -10 25 -13 26 -68 20 -31 -3 -61 -7 -67 -8 -5 0 -21 2 -34 7 -24 7
-24 7 -17 -46 8 -60 29 -99 56 -106 10 -3 32 -25 50 -49 l31 -44 90 0 c88 0
91 -1 116 -30 23 -28 29 -30 95 -30 l69 0 -3 28 c-2 19 -9 28 -24 30 -12 2
-36 19 -53 38 -17 18 -38 34 -46 34 -8 0 -15 5 -15 10 0 20 23 9 59 -27 20
-20 43 -36 52 -35 9 2 30 -10 47 -25 66 -62 62 -67 62 67 0 103 -2 120 -16
120 -9 0 -52 38 -96 85 l-81 85 -115 0 c-95 0 -117 -3 -127 -17 -14 -19 -42
-12 -52 13 -3 8 1 23 10 32 15 14 18 14 35 -1 15 -14 40 -17 133 -17 l115 0
83 -85 c76 -77 111 -101 111 -76 0 5 -17 24 -37 42 -89 77 -135 119 -129 119
3 0 40 -31 83 -69 43 -39 80 -65 82 -60 2 6 -32 48 -75 93 l-79 83 -157 2
-157 1 -26 -27z"/>
</g>
</svg>
