<?xml version="1.0" standalone="no"?>
<!DOCTYPE svg PUBLIC "-//W3C//DTD SVG 20010904//EN"
 "http://www.w3.org/TR/2001/REC-SVG-20010904/DTD/svg10.dtd">
<svg version="1.0" xmlns="http://www.w3.org/2000/svg"
 width="1024.000000pt" height="1024.000000pt" viewBox="0 0 1024.000000 1024.000000"
 preserveAspectRatio="xMidYMid meet">
<metadata>
Created by potrace 1.16, written by Peter Selinger 2001-2019
</metadata>
<g transform="translate(0.000000,1024.000000) scale(0.100000,-0.100000)"
fill="#000000" stroke="none">
<path d="M4415 8374 c-370 -65 -707 -318 -877 -659 -73 -146 -118 -324 -118
-471 0 -59 -4 -86 -12 -88 -7 -2 -43 -10 -81 -19 -529 -127 -837 -689 -670
-1222 99 -314 364 -555 697 -633 65 -16 216 -17 1766 -17 l1695 0 90 24 c168
44 303 118 424 235 130 126 215 269 263 446 32 118 32 365 0 483 -26 96 -85
224 -143 308 -142 210 -406 372 -643 394 -128 12 -124 10 -152 72 -62 142
-195 299 -327 386 -153 102 -304 146 -497 148 l-125 0 -53 82 c-74 115 -167
215 -280 300 -164 123 -335 198 -526 232 -109 19 -322 18 -431 -1z m480 -204
c112 -28 284 -116 383 -196 102 -81 198 -194 254 -298 66 -121 64 -120 167
-110 233 21 381 -14 547 -132 117 -82 207 -207 260 -357 17 -50 34 -82 48 -89
12 -7 68 -13 126 -13 331 -5 601 -204 712 -525 30 -89 32 -103 33 -235 0 -119
-3 -151 -23 -215 -43 -136 -97 -226 -197 -325 -102 -103 -194 -158 -331 -197
l-79 -23 -1680 0 c-1888 0 -1723 -7 -1890 76 -195 96 -337 266 -397 474 -29
104 -32 285 -4 390 83 321 350 549 679 580 111 11 110 8 112 218 1 145 5 185
24 252 116 412 484 721 896 753 116 9 259 -2 360 -28z"/>
<path d="M4150 7366 l-145 -82 0 -178 0 -179 148 -84 147 -85 149 83 c102 56
151 89 155 103 3 12 6 89 6 172 0 131 -2 153 -17 167 -22 19 -255 153 -280
161 -11 3 -72 -25 -163 -78z m265 -68 l110 -63 0 -129 0 -130 -112 -62 -111
-63 -111 62 -111 61 0 131 0 130 108 62 c59 34 109 62 112 62 3 1 55 -27 115
-61z"/>
<path d="M5715 7172 l-150 -87 0 -193 0 -194 155 -89 c85 -49 161 -89 169 -89
14 0 240 125 294 162 l27 19 0 193 0 192 -153 87 c-85 48 -162 87 -173 86 -10
0 -86 -40 -169 -87z m303 -67 l123 -69 -3 -145 -3 -146 -124 -71 -123 -72
-124 71 -124 71 0 148 0 147 123 69 c67 39 124 69 127 68 3 -2 60 -33 128 -71z"/>
<path d="M3293 6405 c-23 -16 -23 -17 -23 -290 0 -235 2 -276 16 -289 13 -14
54 -16 288 -16 207 0 276 3 284 13 5 6 13 63 17 125 l7 113 92 -3 91 -3 5
-115 5 -115 138 -3 137 -3 0 31 0 30 -110 0 -109 0 -3 118 -3 117 -122 3 -123
3 0 127 c0 95 -4 133 -14 148 -14 18 -30 19 -283 22 -233 2 -271 1 -290 -13z
m507 -290 l0 -225 -225 0 -225 0 0 225 0 225 225 0 225 0 0 -225z"/>
<path d="M6455 6376 c-17 -12 -19 -28 -19 -142 l-1 -129 -210 -5 -210 -5 -3
-107 -3 -107 -102 -3 -102 -3 -3 -26 -3 -27 114 -7 c165 -10 157 -16 157 116
l0 109 183 -2 182 -3 5 -100 5 -100 270 -3 c245 -2 271 -1 283 15 9 12 12 82
12 263 0 227 -2 248 -18 263 -16 15 -50 17 -268 17 -197 0 -254 -3 -269 -14z
m473 -268 l-3 -203 -205 0 -205 1 -3 202 -2 202 210 0 210 0 -2 -202z"/>
<path d="M4530 5805 l0 -195 155 0 155 0 0 35 0 35 -105 0 -105 0 0 45 0 45
90 0 90 0 0 35 0 35 -90 0 -90 0 0 40 0 40 101 0 100 0 -3 38 -3 37 -147 3
-148 3 0 -196z"/>
<path d="M4910 5806 l0 -196 44 0 45 0 3 53 3 52 40 3 c39 3 41 1 73 -53 33
-55 33 -55 83 -55 27 0 49 2 49 4 0 2 -16 28 -35 57 -41 62 -41 65 -16 78 25
14 51 71 51 113 0 18 -9 47 -20 65 -32 53 -70 66 -202 71 l-118 4 0 -196z
m218 98 c26 -18 30 -75 6 -95 -8 -7 -40 -14 -70 -17 l-54 -4 0 66 0 66 48 0
c27 0 57 -7 70 -16z"/>
<path d="M5330 5805 l0 -195 50 0 50 0 0 49 0 48 66 7 c37 4 82 13 100 21 70
29 96 129 51 196 -32 48 -96 68 -219 69 l-98 0 0 -195z m218 99 c15 -10 22
-25 22 -49 0 -44 -29 -65 -92 -65 l-48 0 0 65 0 65 48 0 c27 0 57 -7 70 -16z"/>
<path d="M6786 4586 c-73 -41 -133 -81 -136 -92 -8 -22 -5 -288 4 -302 7 -11
252 -152 265 -152 10 0 237 124 257 141 11 9 14 47 14 168 l0 157 -133 77
c-74 42 -136 77 -138 77 -2 -1 -62 -34 -133 -74z m229 -70 l90 -51 3 -117 3
-116 -96 -52 -96 -51 -100 56 -99 56 0 109 0 109 98 54 c53 30 99 55 102 55 3
0 46 -23 95 -52z"/>
<path d="M3271 4561 c-67 -37 -127 -74 -132 -82 -14 -23 -11 -282 4 -301 16
-21 242 -148 263 -148 19 0 229 113 257 138 16 14 18 32 16 152 -1 74 -5 143
-8 152 -6 17 -242 158 -264 158 -7 0 -68 -31 -136 -69z m238 -72 l91 -51 0
-109 c0 -124 12 -106 -120 -176 l-75 -40 -97 55 -98 55 0 107 0 108 93 51 c50
27 97 50 103 51 6 0 52 -23 103 -51z"/>
<path d="M4122 4038 c-17 -17 -16 -142 2 -157 9 -8 88 -11 267 -9 l254 3 0 85
0 85 -255 3 c-191 2 -259 -1 -268 -10z m468 -78 l0 -30 -210 0 -210 0 0 30 0
30 210 0 210 0 0 -30z"/>
<path d="M4854 4037 c-3 -8 -4 -47 -2 -88 l3 -74 260 0 260 0 0 85 0 85 -258
3 c-210 2 -258 0 -263 -11z m466 -77 l0 -30 -205 0 -205 0 0 30 0 30 205 0
205 0 0 -30z"/>
<path d="M5584 4037 c-3 -8 -4 -47 -2 -88 l3 -74 254 -3 c197 -2 256 1 263 10
11 19 10 126 -2 149 -10 18 -24 19 -261 19 -200 0 -251 -3 -255 -13z m464 -74
l-3 -28 -203 -3 c-174 -2 -203 0 -208 13 -4 8 -4 22 0 30 4 13 37 15 211 15
l206 0 -3 -27z"/>
<path d="M4132 3811 c-8 -4 -12 -19 -10 -32 l3 -24 240 -3 c132 -1 250 0 263
3 18 4 23 11 20 33 l-3 27 -250 2 c-137 2 -256 -1 -263 -6z"/>
<path d="M4862 3811 c-8 -4 -12 -19 -10 -32 l3 -24 260 0 260 0 3 24 c2 13 -2
28 -10 32 -7 5 -121 9 -253 9 -132 0 -246 -4 -253 -9z"/>
<path d="M5584 3806 c-3 -8 -4 -23 -2 -33 3 -17 20 -18 258 -18 l255 0 3 24
c2 13 -2 28 -10 32 -7 5 -122 9 -256 9 -202 0 -244 -2 -248 -14z"/>
<path d="M4116 3684 c-11 -28 -6 -140 6 -152 8 -8 49 -12 120 -12 l108 0 0
-38 c0 -64 -29 -82 -131 -82 -92 0 -113 -7 -107 -36 3 -17 14 -19 96 -22 82
-2 94 -5 116 -27 33 -33 79 -33 112 0 l25 25 289 0 289 0 25 -25 c14 -14 36
-25 50 -25 13 0 38 11 54 25 l30 25 280 0 281 0 25 -25 c16 -16 36 -25 56 -25
20 0 40 9 56 25 23 23 32 25 119 25 95 0 95 0 95 25 0 25 0 25 -93 25 -89 0
-93 1 -120 29 -19 21 -27 40 -27 65 l0 36 110 0 c130 0 130 0 123 108 l-6 72
-257 0 c-226 0 -259 -2 -264 -16 -11 -28 -6 -140 6 -152 8 -8 49 -12 120 -12
l108 0 0 -38 c0 -27 -7 -45 -23 -60 -23 -22 -33 -23 -309 -28 -279 -6 -286 -5
-292 14 -4 11 -13 23 -21 26 -10 3 -15 20 -15 45 l0 40 113 3 112 3 0 85 0 85
-260 0 -260 0 0 -85 0 -85 118 -3 117 -3 0 -33 c0 -23 -9 -43 -28 -64 l-29
-31 -284 -1 -284 0 -27 29 c-20 21 -28 40 -28 65 l0 36 108 0 c59 0 113 4 120
9 9 5 12 30 10 87 l-3 79 -261 3 c-232 2 -262 1 -268 -14z m474 -74 l0 -30
-210 0 -210 0 0 23 c0 13 3 27 7 30 3 4 98 7 210 7 l203 0 0 -30z m730 0 l0
-30 -205 0 -205 0 0 30 0 30 205 0 205 0 0 -30z m728 -2 l3 -28 -210 0 -211 0
0 23 c0 13 3 27 7 31 4 3 97 5 207 4 l201 -3 3 -27z"/>
<path d="M4755 1931 c-111 -29 -195 -136 -195 -249 0 -49 28 -125 61 -165 17
-21 54 -50 83 -64 96 -50 249 -31 312 38 17 19 17 21 -18 55 l-35 36 -38 -26
c-71 -49 -178 -27 -217 45 -20 38 -24 119 -7 152 45 88 156 111 230 49 l31
-25 36 36 c36 36 36 36 16 58 -48 53 -175 82 -259 60z"/>
<path d="M5260 1931 c-116 -35 -183 -129 -183 -252 0 -53 6 -76 29 -119 50
-91 125 -133 244 -133 62 -1 84 4 126 26 66 33 110 87 130 156 51 172 -78 333
-264 330 -31 0 -68 -4 -82 -8z m158 -111 c96 -59 98 -225 3 -275 -43 -22 -117
-19 -157 5 -64 40 -83 161 -36 228 43 60 129 79 190 42z"/>
<path d="M3650 1680 l0 -250 60 0 60 0 0 250 0 250 -60 0 -60 0 0 -250z"/>
<path d="M3852 1883 l3 -48 124 -5 125 -5 -127 -158 c-114 -143 -127 -162
-127 -198 l0 -39 221 0 220 0 -3 48 -3 47 -132 3 c-73 1 -133 5 -133 7 0 3 59
77 130 166 110 136 130 166 130 195 l0 34 -216 0 -215 0 3 -47z"/>
<path d="M4360 1680 l0 -250 60 0 60 0 0 250 0 250 -60 0 -60 0 0 -250z"/>
<path d="M5700 1711 c0 -120 3 -233 6 -250 6 -30 8 -31 60 -31 l54 0 2 113 c1
61 2 127 3 145 0 17 2 32 5 32 3 0 24 -27 47 -58 23 -32 74 -97 113 -145 l71
-87 50 0 49 0 0 250 0 250 -60 0 -60 0 0 -146 0 -147 -117 147 -117 146 -53 0
-53 0 0 -219z"/>
<path d="M6222 1883 l3 -48 78 -3 77 -3 0 -199 0 -200 60 0 60 0 0 200 0 200
80 0 80 0 0 50 0 50 -221 0 -220 0 3 -47z"/>
</g>
</svg>
