<?xml version="1.0" standalone="no"?>
<!DOCTYPE svg PUBLIC "-//W3C//DTD SVG 20010904//EN"
 "http://www.w3.org/TR/2001/REC-SVG-20010904/DTD/svg10.dtd">
<svg version="1.0" xmlns="http://www.w3.org/2000/svg"
 width="1024.000000pt" height="1024.000000pt" viewBox="0 0 1024.000000 1024.000000"
 preserveAspectRatio="xMidYMid meet">
<metadata>
Created by potrace 1.16, written by Peter Selinger 2001-2019
</metadata>
<g transform="translate(0.000000,1024.000000) scale(0.100000,-0.100000)"
fill="#000000" stroke="none">
<path d="M0 9865 l0 -375 5120 0 5120 0 0 375 0 375 -5120 0 -5120 0 0 -375z
m4008 83 c-2 -19 -8 -22 -35 -20 l-33 4 0 -91 c0 -90 0 -91 -25 -91 -24 0 -24
2 -27 88 l-3 87 -32 3 c-25 2 -33 8 -33 23 0 17 8 19 96 19 93 0 95 -1 92 -22z
m202 2 c0 -16 -8 -19 -57 -22 -51 -3 -58 -6 -61 -25 -3 -22 0 -23 52 -23 49 0
56 -3 56 -19 0 -17 -8 -20 -52 -23 -45 -3 -53 -6 -53 -23 0 -17 8 -21 60 -25
47 -4 61 -9 63 -22 3 -16 -6 -18 -87 -18 l-91 0 0 110 0 110 85 0 c78 0 85 -2
85 -20z m221 1 c22 -18 23 -21 8 -36 -14 -15 -18 -15 -45 0 -56 32 -107 -13
-90 -80 9 -36 48 -52 89 -37 26 10 34 9 46 -3 13 -13 13 -16 -4 -29 -54 -40
-141 -21 -171 36 -25 49 -18 96 20 134 29 29 41 34 79 34 29 0 53 -7 68 -19z
m109 -26 l0 -45 45 0 45 0 0 45 c0 41 2 45 25 45 l25 0 0 -110 0 -110 -25 0
c-22 0 -25 4 -25 40 l0 40 -44 0 -45 0 -3 -42 c-2 -36 -7 -44 -25 -46 -23 -3
-23 -2 -23 112 l0 116 25 0 c23 0 25 -4 25 -45z m444 24 c19 -15 26 -30 26
-54 0 -49 -27 -76 -83 -82 -44 -5 -47 -8 -47 -34 0 -24 -4 -29 -25 -29 l-25 0
0 110 0 110 64 0 c49 0 69 -5 90 -21z m231 -4 c30 -30 32 -64 4 -99 l-21 -26
22 -35 22 -35 -31 0 c-23 0 -34 7 -48 30 -11 19 -25 30 -40 30 -19 0 -23 -5
-23 -30 0 -25 -4 -30 -25 -30 l-25 0 0 110 0 110 70 0 c62 0 74 -3 95 -25z
m243 3 c3 -16 -5 -18 -57 -18 -58 0 -61 -1 -61 -25 0 -23 3 -25 50 -25 43 0
50 -3 50 -20 0 -17 -7 -20 -50 -20 -47 0 -50 -2 -50 -25 0 -24 3 -25 60 -25
53 0 60 -2 60 -20 0 -18 -7 -20 -85 -20 l-85 0 0 110 0 111 82 -3 c70 -3 83
-6 86 -20z m128 -28 c15 -27 30 -50 33 -50 3 0 18 23 33 50 24 43 32 50 58 50
l30 0 0 -110 0 -110 -25 0 c-23 0 -24 3 -27 68 l-3 67 -28 -53 c-15 -29 -33
-52 -40 -49 -7 2 -24 26 -39 53 l-28 49 0 -67 c0 -66 -1 -68 -25 -68 l-25 0 0
110 0 110 29 0 c25 0 34 -8 57 -50z m364 -24 c0 -79 13 -106 50 -106 37 0 50
27 50 106 0 72 1 74 25 74 24 0 25 -2 25 -75 0 -48 -6 -87 -15 -105 -30 -59
-140 -59 -170 0 -9 18 -15 57 -15 105 0 73 1 75 25 75 24 0 25 -2 25 -74z
m285 23 c30 -57 40 -56 70 11 16 35 22 40 52 40 l33 0 0 -110 0 -110 -25 0
c-23 0 -24 3 -27 68 l-3 67 -28 -53 c-15 -29 -33 -52 -40 -49 -7 2 -24 26 -39
53 l-28 49 0 -67 c0 -66 -1 -68 -25 -68 l-25 0 0 110 0 110 30 0 c26 0 33 -7
55 -51z"/>
<path d="M3211 8064 c-12 -15 -21 -41 -21 -59 l0 -32 -82 -5 c-101 -5 -150
-27 -186 -81 l-27 -41 4 -555 c2 -306 7 -565 11 -576 11 -28 45 -62 80 -80 26
-13 106 -15 622 -13 l593 3 34 24 c18 13 42 42 52 65 17 38 19 75 18 571 0
386 -4 539 -13 563 -16 46 -72 100 -115 112 -20 5 -66 10 -103 10 l-68 0 0 40
c0 46 -27 80 -62 80 -42 0 -68 -35 -68 -89 l0 -31 -105 0 -105 0 0 34 c0 19
-9 45 -21 60 -42 53 -109 20 -109 -54 l0 -40 -110 0 -110 0 0 40 c0 74 -67
107 -109 54z m-21 -264 c0 -77 53 -113 108 -74 18 12 22 25 22 70 l0 54 110 0
110 0 0 -50 c0 -83 54 -117 105 -65 19 18 25 35 25 70 l0 45 105 0 105 0 0
-50 c0 -57 24 -90 64 -90 42 0 68 31 74 88 l5 52 63 0 c95 0 104 -13 104 -140
l0 -100 -584 0 -583 0 -7 96 c-10 133 -2 144 99 144 l75 0 0 -50z m1000 -667
c0 -327 -2 -368 -17 -385 -15 -17 -46 -18 -574 -18 l-558 0 -15 22 c-14 19
-16 72 -16 379 0 195 3 359 7 362 3 4 269 7 590 7 l583 0 0 -367z"/>
<path d="M3663 7208 l-152 -152 -65 62 c-35 34 -71 62 -79 62 -28 0 -67 -40
-67 -69 0 -21 21 -47 94 -119 63 -63 101 -92 117 -92 16 0 74 51 206 183 101
100 186 192 190 205 8 35 -21 72 -59 72 -27 0 -52 -20 -185 -152z"/>
<path d="M4405 7928 c13 -29 27 -70 30 -90 l7 -38 950 0 c1008 0 994 1 1012
-45 3 -9 6 -677 6 -1485 l0 -1468 39 15 c36 14 40 14 90 -11 l51 -26 0 267 c0
148 0 823 0 1502 0 1171 -1 1236 -19 1275 -26 59 -62 98 -117 126 l-49 25
-1012 3 -1012 2 24 -52z"/>
<path d="M4700 7280 l0 -50 710 0 710 0 0 50 0 50 -710 0 -710 0 0 -50z"/>
<path d="M4700 6960 l0 -50 705 0 c781 0 724 -5 711 65 l-7 35 -704 0 -705 0
0 -50z"/>
<path d="M4700 6645 l0 -45 198 -2 c108 -1 427 -1 707 -1 l510 1 3 46 3 46
-710 0 -711 0 0 -45z"/>
<path d="M3489 6053 c0 -241 0 -879 1 -1417 1 -1091 -4 -1016 72 -1093 75 -76
58 -75 751 -75 336 -1 789 0 1005 1 l393 1 -16 30 c-8 16 -21 56 -29 87 l-13
58 -971 3 -971 2 -20 26 -21 27 0 1393 0 1394 -90 0 -90 0 -1 -437z"/>
<path d="M4586 5934 c-68 -21 -139 -94 -160 -165 -76 -253 127 -457 373 -375
108 37 163 121 169 259 4 83 2 92 -28 154 -34 69 -86 113 -160 133 -50 14
-137 11 -194 -6z m153 -129 c77 -39 84 -227 10 -279 -30 -20 -83 -21 -114 0
-49 32 -71 147 -41 219 15 36 67 75 99 75 10 0 31 -7 46 -15z"/>
<path d="M5343 5888 c-18 -20 -657 -869 -756 -1005 l-39 -53 100 0 100 0 174
234 c95 128 275 369 401 535 125 166 227 304 227 306 0 3 -42 5 -93 5 -84 0
-96 -2 -114 -22z"/>
<path d="M5318 5347 c-121 -35 -188 -136 -188 -286 0 -87 22 -146 73 -199 57
-60 101 -76 202 -77 82 0 95 3 144 30 65 36 106 88 128 164 20 69 13 161 -18
225 -24 52 -85 111 -136 132 -50 21 -150 26 -205 11z m150 -152 c54 -45 65
-162 22 -233 -41 -68 -139 -61 -174 13 -14 28 -17 55 -14 112 3 70 6 77 36
104 42 37 89 39 130 4z"/>
<path d="M6410 4648 c-135 -91 -344 -159 -562 -183 -31 -3 -62 -12 -68 -20 -8
-10 -10 -118 -8 -392 4 -354 6 -383 26 -451 49 -161 147 -311 292 -445 125
-116 326 -237 392 -237 65 0 285 140 415 264 97 91 156 171 209 281 77 159 77
163 82 587 4 445 13 411 -116 421 -161 12 -338 69 -493 158 -48 27 -95 49
-105 48 -11 0 -39 -14 -64 -31z m161 -147 c144 -75 320 -130 464 -143 l30 -3
3 -300 c3 -327 -5 -403 -53 -512 -77 -172 -263 -360 -471 -474 l-62 -33 -53
28 c-241 130 -440 341 -506 539 -27 82 -27 83 -31 414 l-3 332 23 5 c13 2 75
14 138 25 125 24 282 81 370 136 30 19 55 35 56 35 1 0 43 -22 95 -49z"/>
<path d="M6558 3884 l-157 -158 -66 62 c-36 34 -70 62 -75 62 -26 0 -62 -23
-70 -45 -14 -37 4 -66 98 -157 61 -60 86 -78 108 -78 23 0 61 33 216 187 103
103 191 196 194 206 9 28 -27 71 -62 75 -26 2 -48 -16 -186 -154z"/>
<path d="M4866 2169 c-105 -17 -176 -102 -176 -211 0 -190 207 -284 371 -167
l31 21 -32 33 -32 33 -37 -25 c-46 -32 -118 -28 -156 7 -59 56 -55 162 8 200
43 26 112 26 156 -1 18 -11 34 -19 35 -17 0 2 12 15 25 30 23 27 24 28 6 48
-35 38 -126 61 -199 49z"/>
<path d="M3905 2158 c-3 -8 -4 -103 -3 -213 l3 -200 46 -3 46 -3 5 168 c3 92
5 188 4 213 l-1 45 -48 3 c-32 2 -49 -1 -52 -10z"/>
<path d="M4080 2125 l0 -45 106 0 105 0 -20 -28 c-11 -16 -61 -78 -111 -138
-77 -91 -90 -113 -88 -139 l3 -30 185 0 185 0 0 40 0 40 -115 5 -115 5 41 45
c22 25 73 84 112 132 60 72 72 93 72 122 l0 36 -180 0 -180 0 0 -45z"/>
<path d="M4510 1955 l0 -215 49 0 50 0 3 183 c2 100 1 197 -1 215 -3 31 -4 32
-52 32 l-49 0 0 -215z"/>
<path d="M5245 2151 c-141 -65 -169 -260 -51 -358 92 -76 238 -70 319 13 106
106 77 278 -56 343 -56 27 -156 28 -212 2z m150 -75 c66 -28 93 -110 59 -182
-32 -67 -126 -86 -183 -38 -78 65 -51 202 44 227 34 8 45 7 80 -7z"/>
<path d="M5650 1955 l0 -215 50 0 49 0 3 127 3 126 88 -117 c48 -64 93 -119
100 -121 7 -2 29 -6 50 -9 l37 -5 0 215 0 215 -47 -3 -48 -3 -5 -122 -5 -122
-95 124 -95 125 -42 0 -43 0 0 -215z"/>
<path d="M6080 2125 l0 -45 65 0 65 0 0 -171 0 -170 51 3 51 3 -1 168 -2 167
66 0 65 0 0 45 0 45 -180 0 -180 0 0 -45z"/>
</g>
</svg>
