<?xml version="1.0" standalone="no"?>
<!DOCTYPE svg PUBLIC "-//W3C//DTD SVG 20010904//EN"
 "http://www.w3.org/TR/2001/REC-SVG-20010904/DTD/svg10.dtd">
<svg version="1.0" xmlns="http://www.w3.org/2000/svg"
 width="1024.000000pt" height="1024.000000pt" viewBox="0 0 1024.000000 1024.000000"
 preserveAspectRatio="xMidYMid meet">
<metadata>
Created by potrace 1.16, written by Peter Selinger 2001-2019
</metadata>
<g transform="translate(0.000000,1024.000000) scale(0.100000,-0.100000)"
fill="#000000" stroke="none">
<path d="M0 5425 l0 -4815 4493 1 c3769 1 4706 4 4590 18 -19 2 -16 46 5 64
11 10 26 14 40 10 l22 -5 0 426 0 427 -50 53 c-46 49 -61 76 -42 76 4 0 33
-26 64 -58 l56 -57 -2 -240 c-2 -132 -3 -329 -4 -437 -2 -195 -2 -197 -24
-200 -21 -3 -49 -51 -37 -63 3 -3 97 -8 210 -11 179 -6 208 -5 236 10 34 17
87 87 105 136 5 17 13 30 17 30 3 0 16 -21 28 -48 12 -26 37 -65 56 -87 l35
-40 221 -1 221 -1 0 936 0 936 -101 100 c-55 55 -110 113 -121 128 -18 25 -19
29 -4 40 11 9 16 33 18 92 3 74 5 80 25 83 23 3 23 2 22 -119 l0 -123 80 -80
81 -81 0 285 0 286 -55 54 -55 54 -2 -154 c-1 -111 -3 -138 -8 -95 -4 33 -5
99 -4 148 3 86 2 87 -22 87 -14 0 -27 7 -30 15 -4 8 -10 12 -15 9 -5 -3 -9 5
-9 18 0 14 3 19 8 11 13 -20 55 -31 74 -19 15 9 26 2 68 -39 l50 -49 0 132 0
132 -53 0 c-51 0 -57 3 -117 57 l-64 58 -177 3 -176 3 -109 110 c-97 98 -112
109 -136 103 -37 -8 -84 36 -73 69 4 12 10 46 12 75 4 39 2 52 -9 52 -9 0 -10
2 -1 8 6 4 13 37 14 74 3 53 6 65 16 56 8 -6 13 -34 13 -69 l0 -59 95 0 c52 0
95 -4 95 -8 0 -5 -42 -8 -92 -8 l-93 1 -3 -37 c-3 -31 0 -38 15 -38 26 -1 53
-24 61 -55 4 -14 54 -73 112 -130 l105 -105 175 0 176 0 63 -65 c64 -66 80
-73 124 -56 24 9 25 12 26 130 2 162 19 153 -271 152 l-222 -2 -87 87 c-49 48
-85 92 -82 97 3 5 42 -27 87 -72 l81 -80 228 -7 c171 -5 230 -10 238 -21 6 -7
15 -13 20 -13 5 0 9 85 9 188 0 247 13 232 -207 232 -129 0 -162 -3 -166 -14
-5 -11 -32 -13 -150 -9 -138 6 -147 5 -181 -17 -38 -23 -76 -22 -106 5 -16 14
-95 26 -178 26 -29 1 -51 3 -49 5 10 10 121 34 157 34 29 0 45 7 68 30 45 45
101 40 127 -11 l15 -28 318 2 c258 2 322 -1 335 -12 16 -12 17 10 17 310 l-1
324 -103 -110 c-92 -97 -106 -108 -121 -95 -14 12 -11 19 39 69 40 41 56 64
56 84 0 15 -5 27 -11 27 -6 0 -38 -26 -72 -59 l-62 -58 -143 -6 -143 -6 -71
-65 c-40 -37 -76 -66 -80 -66 -20 0 -3 22 67 89 l75 71 139 0 139 0 36 40 c20
22 36 48 36 59 0 14 11 20 51 27 49 8 52 11 55 41 3 23 19 46 59 84 57 54 74
99 38 99 -17 1 -17 1 0 14 15 12 17 37 17 262 0 192 -3 245 -12 236 -8 -8 -13
-63 -15 -159 l-4 -148 -82 -83 -82 -82 -3 -83 c-2 -45 -8 -86 -13 -92 -5 -5
-9 1 -9 15 -1 14 -2 55 -4 93 l-3 67 70 73 c113 118 106 99 105 257 -1 136 0
141 26 174 l26 35 0 525 c0 494 -1 526 -17 527 -10 0 -33 1 -52 2 l-34 2 0
-165 c0 -91 4 -179 8 -195 5 -23 0 -45 -20 -88 -15 -31 -31 -54 -36 -51 -5 3
-9 0 -9 -5 0 -14 13 -14 28 1 9 9 12 7 12 -9 0 -22 -23 -47 -33 -36 -4 3 -8
-68 -9 -158 0 -90 -2 -219 -4 -286 l-2 -123 -86 -92 -86 -92 0 -164 c0 -126
-3 -163 -12 -160 -10 4 -14 48 -15 169 l-3 164 90 98 91 98 -7 267 c-4 147 -8
269 -10 271 -2 3 -28 5 -58 5 -30 1 -52 4 -49 9 2 4 0 7 -6 7 -5 0 -14 -8 -20
-17 -5 -10 -12 -17 -15 -15 -20 8 -24 -12 -28 -134 l-5 -135 -61 -62 c-49 -48
-62 -57 -62 -42 0 12 23 43 50 70 53 52 60 65 35 65 -8 0 -15 5 -15 11 0 5 -6
7 -12 3 -8 -4 -9 -3 -5 2 5 5 16 9 25 9 14 0 16 12 16 80 -2 146 1 135 -39
132 l-35 -2 0 -54 c0 -49 -3 -56 -40 -90 -37 -34 -40 -40 -46 -106 l-7 -70
-98 -101 c-55 -56 -102 -97 -105 -92 -4 6 18 35 48 66 137 143 138 145 138
214 0 58 2 65 38 101 l37 38 -1 134 -1 134 -36 41 c-36 39 -37 42 -37 120 0
75 -1 80 -21 80 -12 0 -23 -8 -26 -20 -4 -16 -14 -20 -49 -20 -50 0 -63 13
-38 41 16 18 16 19 -8 19 -44 0 -86 -20 -90 -43 -2 -12 -3 -98 -1 -192 2 -176
-5 -320 -16 -309 -3 3 -8 83 -11 177 -4 144 -7 172 -20 172 -10 0 -18 -16 -24
-48 -7 -38 -13 -48 -32 -53 -32 -8 -36 -27 -39 -192 -4 -204 -4 -204 -14 -198
-4 3 -9 30 -10 61 -2 82 -13 95 -87 95 -55 0 -62 2 -68 23 -3 12 -6 105 -6
207 0 247 -7 321 -32 328 -10 2 -21 15 -24 27 -7 27 -28 31 -136 27 -74 -3
-77 -4 -80 -30 -2 -20 -11 -28 -34 -34 l-32 -8 -7 -135 c-4 -75 -5 -139 -1
-142 3 -4 -3 -16 -14 -28 -20 -21 -19 -62 1 -49 12 7 11 34 15 -355 l3 -344
73 -76 c69 -70 46 -56 -49 31 l-43 38 -2 288 -3 287 -30 -1 c-16 -1 -76 -5
-132 -8 l-103 -7 -1 66 c-1 36 -3 70 -4 75 -1 6 -4 34 -5 63 -2 48 -4 45 -14
-38 -11 -86 -12 -88 -20 -50 -5 22 -11 34 -13 28 -7 -19 -33 -16 -33 3 0 9 9
18 20 21 18 5 21 12 18 56 l-3 50 -80 -2 c-120 -3 -145 -9 -145 -35 0 -25 45
-72 75 -78 26 -4 37 -67 31 -181 -4 -82 -9 -107 -20 -96 -3 2 -7 53 -11 112
l-7 107 -46 45 -47 44 -3 -30 c-3 -23 -10 -33 -32 -40 -35 -13 -38 -30 -42
-208 -2 -120 -4 -134 -20 -139 -15 -3 -12 -8 14 -21 67 -33 44 -81 -38 -81
l-54 0 0 -41 c0 -36 6 -45 60 -96 l60 -55 0 -204 c0 -123 -4 -204 -10 -204
-17 0 -22 67 -18 230 l5 161 -80 75 c-76 72 -79 75 -62 94 9 10 14 23 11 29
-6 9 -9 42 -15 158 -1 7 -7 10 -15 7 -11 -4 -15 7 -18 48 -3 29 0 62 5 72 5
11 6 91 2 195 -7 177 -7 307 0 856 2 165 4 509 4 763 l1 464 1043 -5 c573 -3
1083 -6 1132 -7 50 -1 107 -1 128 -1 l37 1 0 1010 0 1010 -2214 0 -2215 0 -6
-47 c-10 -74 -25 -120 -19 -58 3 28 8 62 10 78 5 23 2 27 -16 27 -12 0 -36
-10 -53 -22 -44 -32 -134 -32 -176 0 -38 28 -58 28 -64 0 l-4 -23 -2 23 -1 22
-2740 0 -2740 0 0 -4815z m3708 3893 l3 -48 45 0 44 0 0 -45 0 -45 -45 0 -45
0 0 -104 c0 -118 7 -131 63 -121 32 6 35 5 46 -26 14 -42 16 -38 -24 -55 -44
-18 -86 -18 -130 0 -52 22 -65 58 -66 188 l-2 113 -31 5 c-29 5 -31 8 -31 45
0 38 2 40 33 43 31 3 32 4 32 53 l0 50 53 -3 52 -3 3 -47z m-294 -67 c64 -36
71 -57 74 -227 l3 -154 -55 0 -54 0 -4 136 c-3 129 -4 137 -27 155 -28 23 -88
25 -118 4 -31 -22 -43 -74 -43 -193 l0 -103 -52 3 -52 3 0 75 c0 41 0 130 2
198 l2 122 50 0 c47 0 50 -2 50 -26 l0 -25 28 19 c59 42 136 48 196 13z
m-1886 -183 l2 -198 -55 0 -55 0 0 201 0 200 53 -3 52 -3 3 -197z m402 163 c0
-34 -11 -52 -95 -155 -52 -64 -95 -118 -95 -121 0 -3 47 -5 105 -5 l105 0 0
-40 0 -40 -180 0 -180 0 0 31 c0 24 21 56 102 152 l101 122 -96 3 -97 3 0 44
0 45 165 0 165 0 0 -39z m188 -163 l2 -198 -55 0 -55 0 0 201 0 200 53 -3 52
-3 3 -197z m359 191 c32 -12 83 -57 83 -74 0 -6 -18 -21 -40 -34 -22 -12 -40
-18 -40 -12 0 15 -54 41 -84 41 -41 0 -74 -20 -91 -55 -19 -41 -19 -66 0 -111
26 -62 114 -79 165 -32 22 21 41 18 80 -11 l24 -19 -37 -36 c-154 -145 -412
15 -346 215 17 50 55 96 97 119 42 22 143 27 189 9z m431 -10 c51 -25 97 -89
107 -149 4 -25 1 -59 -9 -93 -62 -215 -396 -183 -414 39 -8 92 32 165 113 207
45 24 149 22 203 -4z m-1946 -212 c3 -12 6 -57 7 -99 1 -43 4 -78 7 -78 4 0
33 16 65 36 54 32 60 34 75 20 8 -9 18 -16 22 -16 4 0 22 -12 39 -28 l33 -27
-123 -81 c-67 -45 -151 -100 -187 -123 l-65 -41 -3 186 -2 187 -25 -23 c-24
-23 -25 -28 -25 -152 0 -102 3 -130 14 -134 23 -9 28 -35 11 -60 -17 -26 -44
-31 -63 -12 -18 18 -15 56 6 67 14 8 18 28 21 138 l3 128 35 38 c20 22 34 48
33 60 -1 12 -2 41 -1 64 l1 42 58 -35 c32 -20 60 -44 64 -57z m4346 -816 l44
-1 -4 -1097 c-2 -604 -7 -1105 -11 -1114 -5 -10 -19 -15 -40 -13 -18 1 -54 3
-82 5 -27 1 -40 4 -27 6 19 4 21 7 11 19 -9 12 -6 16 19 25 20 7 29 15 25 25
-6 16 13 19 22 4 4 -6 11 -7 17 -4 8 5 9 1 5 -10 -4 -11 -3 -15 4 -11 6 4 7
19 4 36 -5 23 -4 28 8 23 13 -5 13 0 -1 29 -11 23 -22 32 -32 29 -13 -5 -13
-4 0 10 8 9 19 13 24 11 5 -3 7 0 4 7 -2 7 -11 14 -19 16 -7 1 -18 3 -24 5 -5
1 -18 -1 -28 -6 -11 -4 -23 -3 -30 4 -15 15 -27 14 -21 -3 3 -8 0 -17 -7 -22
-8 -4 -10 -3 -5 4 4 7 4 17 0 23 -4 8 -11 4 -19 -11 -11 -20 -13 -15 -18 46
-7 80 -10 1951 -3 1963 3 4 35 6 73 5 37 -1 87 -2 111 -3z m2343 -113 c7
-1343 1 -2155 -15 -2166 -16 -10 -86 -10 -86 0 0 4 -7 8 -15 8 -22 0 -21 -132
0 -150 24 -20 82 -97 60 -79 -97 76 -100 80 -105 143 -5 57 -7 61 -32 64 -26
3 -198 -71 -198 -86 0 -4 15 -24 34 -44 34 -37 75 -56 95 -44 5 4 13 -4 17
-16 6 -20 52 -71 276 -300 l57 -58 7 -171 7 -171 29 -18 c31 -19 60 -17 79 6
14 17 39 1 39 -25 0 -11 9 -17 28 -19 15 -1 29 -7 30 -12 2 -6 11 -10 20 -10
19 0 102 -63 115 -86 17 -30 18 -64 2 -64 -8 0 -15 9 -15 20 0 11 -4 20 -10
20 -5 0 -10 -9 -10 -20 0 -12 -8 -32 -17 -46 -15 -24 -15 -27 1 -55 16 -28 13
-34 -16 -30 -4 0 -14 -23 -23 -52 -9 -28 -20 -59 -25 -69 -7 -12 -3 -23 13
-40 62 -65 70 -78 56 -78 -9 0 -33 15 -55 34 l-40 34 -24 -34 c-13 -20 -33
-40 -44 -46 -30 -16 -127 -101 -121 -106 3 -3 29 11 60 31 30 21 59 37 64 37
6 0 18 13 27 29 18 30 59 55 74 46 13 -8 2 -57 -21 -88 -11 -15 -22 -46 -25
-68 -6 -50 -37 -131 -61 -158 -9 -12 -40 -28 -68 -37 -84 -26 -82 -25 -62 -33
10 -4 45 -4 78 -1 32 3 63 2 67 -2 4 -4 45 30 92 76 88 86 130 137 130 156 0
6 4 9 10 5 5 -3 6 -13 3 -22 -4 -11 -3 -14 5 -9 34 21 1 -17 -99 -113 -91 -86
-119 -107 -151 -113 -23 -4 -51 -19 -68 -36 -32 -33 -95 -47 -120 -28 -13 9
-13 9 -2 -6 7 -9 23 -19 36 -22 23 -6 45 -36 26 -36 -6 0 -11 6 -11 13 -1 6
-4 -1 -8 -17 -7 -34 -27 -45 -34 -19 -4 14 -5 13 -6 -4 -1 -20 -7 -23 -39 -23
-21 0 -43 5 -50 12 -9 9 -13 8 -18 -5 -4 -12 -25 -18 -75 -23 -38 -4 -72 -11
-75 -15 -3 -5 -22 -9 -42 -9 -20 0 -44 -5 -52 -10 -11 -7 3 -10 45 -10 33 0
73 -7 89 -15 40 -21 52 -19 76 15 12 17 31 35 43 41 13 7 3 -8 -23 -35 -39
-41 -43 -49 -32 -66 17 -27 16 -30 -13 -30 -14 0 -25 -4 -25 -10 0 -5 17 -10
37 -10 40 0 36 -15 -7 -23 -24 -4 -24 -4 3 -6 16 0 27 -7 27 -15 0 -19 46 -26
67 -10 21 16 89 18 98 4 3 -5 16 -10 28 -11 17 -1 15 -3 -10 -11 -19 -6 -33
-18 -34 -27 -3 -67 -13 -79 -63 -79 -39 0 -46 3 -46 19 0 16 8 19 53 21 l52 2
-53 3 c-47 4 -52 6 -47 24 6 17 2 19 -32 18 l-38 -2 35 -7 c34 -6 32 -9 -10
-23 -9 -3 -5 -6 9 -6 13 -1 22 -3 19 -6 -10 -11 -488 -10 -488 0 0 19 56 35
129 37 40 1 75 6 77 10 2 4 -4 7 -13 7 -10 0 -74 2 -143 5 -69 3 -117 3 -107
0 39 -12 9 -29 -56 -32 -54 -2 -67 0 -67 12 0 15 53 32 70 21 5 -3 16 -3 23 2
8 5 0 10 -23 13 l-35 5 28 19 c25 17 29 17 45 3 16 -15 19 -15 29 2 17 26 8
31 -59 31 -53 0 -76 -11 -45 -23 6 -3 2 -6 -10 -6 -13 -1 -26 -1 -30 -2 -17
-1 -13 20 4 24 10 3 -7 5 -37 6 -30 0 -62 -4 -70 -9 -13 -8 -12 -10 4 -10 15
0 16 -3 7 -14 -9 -11 -9 -15 1 -19 8 -4 5 -8 -10 -13 -18 -5 -20 -9 -11 -20 9
-11 7 -14 -10 -14 -14 0 -20 -4 -15 -11 3 -6 0 -15 -7 -20 -11 -7 -6 -17 24
-45 37 -35 53 -61 20 -32 -10 9 -29 21 -43 27 -19 9 -15 4 13 -21 20 -18 37
-37 37 -42 0 -5 -10 0 -22 11 -31 27 -59 37 -51 17 3 -7 11 -14 18 -14 8 0 27
-14 43 -30 26 -25 39 -30 84 -31 l53 -2 -45 -8 c-79 -14 -150 -11 -150 6 0 8
-9 15 -21 15 -19 0 -20 -5 -18 -90 3 -97 -5 -116 -41 -105 -18 6 -20 9 -9 16
9 6 10 9 2 9 -6 0 -49 32 -93 70 -107 92 -277 230 -284 230 -11 0 -46 -79 -52
-117 -4 -29 -2 -42 10 -52 19 -16 21 -31 3 -31 -7 0 -32 -18 -56 -40 l-43 -40
-109 0 c-66 0 -109 -4 -109 -10 0 -6 36 -10 88 -11 72 -1 167 -15 125 -18 -7
-1 -17 -19 -23 -41 -6 -22 -16 -40 -22 -40 -5 0 -8 -9 -5 -20 3 -10 0 -21 -5
-22 -11 -4 -38 -136 -31 -154 7 -18 -33 -24 -185 -24 -127 0 -147 2 -169 19
-29 23 -62 16 -74 -16 -18 -48 57 -88 81 -43 10 19 21 20 164 20 140 0 154 -2
171 -20 16 -18 16 -20 1 -26 -25 -10 -19 -32 14 -49 38 -20 38 -34 0 -41 -16
-4 -35 -13 -41 -20 -13 -15 -34 -19 -25 -5 6 8 -21 26 -35 23 -4 -1 -53 -3
-110 -5 -117 -5 -204 3 -204 18 0 6 -3 15 -6 20 -3 6 -6 25 -7 43 -2 18 -10
45 -19 58 -9 15 -18 52 -20 87 -8 154 -11 185 -21 218 -6 18 -11 50 -11 69 1
48 -11 114 -22 121 -5 3 -17 65 -26 138 -14 108 -15 135 -4 152 7 12 11 39 9
62 -1 25 2 42 10 45 6 2 12 -2 12 -8 0 -6 15 5 34 24 21 23 39 34 49 30 9 -3
25 -1 36 6 14 7 21 7 21 0 0 -17 37 -11 45 8 5 15 7 15 15 2 6 -11 22 -15 59
-14 28 2 51 -1 51 -6 0 -10 48 -6 58 5 4 5 -1 5 -12 1 -15 -5 -17 -2 -13 14 3
14 -3 26 -20 40 -15 11 -23 23 -20 26 3 3 21 -6 40 -20 25 -20 37 -24 43 -15
5 8 3 9 -6 4 -9 -5 -11 -4 -6 3 4 7 17 12 30 12 12 0 25 3 29 6 9 9 -21 36
-33 29 -5 -3 -10 1 -10 9 0 9 -28 36 -62 61 -139 100 -146 108 -107 120 13 4
20 14 18 28 -3 47 1 67 16 67 15 0 18 -10 19 -70 1 -24 5 -34 14 -32 8 1 11
-2 7 -8 -8 -13 6 -35 24 -35 8 0 15 -7 17 -17 3 -22 23 -56 24 -40 0 6 6 12
14 12 9 0 12 8 9 24 -3 13 0 27 6 30 7 5 11 -5 12 -26 l2 -33 7 35 c7 31 7 32
9 8 0 -16 5 -28 11 -28 5 0 9 3 9 7 -4 23 3 33 24 30 20 -2 23 3 28 53 4 43 6
47 7 18 1 -20 6 -39 10 -42 5 -3 32 19 61 48 39 39 50 57 45 72 -5 16 -4 17 6
4 10 -13 13 -13 23 4 7 11 20 28 31 39 10 10 20 36 23 57 l5 37 -67 32 c-37
17 -71 31 -76 31 -4 0 -19 10 -32 23 -13 12 -32 28 -43 35 -10 7 -5 5 13 -3
43 -20 46 -19 39 11 -5 18 -3 24 5 19 6 -4 9 -17 7 -30 -4 -19 5 -27 59 -54
35 -17 66 -31 69 -31 4 0 4 11 2 25 -3 14 -1 25 3 25 8 0 10 -7 13 -42 1 -17
85 -58 102 -51 8 3 14 16 14 29 0 13 6 24 13 24 6 1 -11 13 -39 28 -48 25 -62
52 -28 52 9 0 12 5 8 12 -5 7 0 9 14 6 17 -5 16 0 -11 27 -18 18 -43 51 -57
74 -28 45 -3 40 -220 45 -41 1 -84 7 -95 14 -17 10 -2 12 85 11 132 -2 125 -4
105 27 -14 22 -15 34 -6 86 6 34 12 62 14 64 2 2 17 6 33 10 23 4 36 -1 67
-28 20 -18 37 -39 37 -46 0 -6 4 -12 10 -12 5 0 9 3 9 8 -4 21 2 42 11 42 6 0
10 -15 10 -34 0 -30 4 -35 30 -41 33 -7 55 3 55 25 0 22 58 17 91 -9 19 -15
31 -18 43 -11 10 5 29 7 42 4 19 -5 21 -3 9 5 -8 6 -11 11 -6 11 5 0 28 -19
50 -42 l41 -43 3 68 c3 71 -18 166 -40 185 -29 23 -327 65 -314 44 4 -6 -2
-20 -13 -31 -20 -20 -20 -20 1 -23 12 -2 23 -8 25 -14 5 -15 -62 -11 -102 6
-16 7 -34 12 -39 11 -23 -5 -47 12 -44 32 4 27 32 33 65 16 20 -11 26 -11 33
1 6 8 10 18 10 21 0 6 -232 37 -328 43 -45 3 -62 1 -59 -7 2 -7 17 -14 33 -17
16 -3 27 -10 24 -15 -3 -6 -8 -9 -11 -8 -3 1 -30 4 -60 7 -54 6 -41 -1 34 -18
18 -4 27 -13 27 -26 0 -24 4 -24 -92 -3 -43 9 -81 13 -85 9 -5 -4 -10 -193
-13 -419 l-6 -412 -2 458 c-1 251 0 457 3 457 3 0 10 -10 15 -22 8 -22 9 -22
9 5 1 15 -4 36 -11 46 -9 15 -9 23 0 34 11 12 21 12 78 -4 58 -16 68 -17 81
-4 11 12 19 13 36 3 12 -6 25 -15 28 -21 10 -14 91 -26 192 -26 76 -1 87 1 88
17 1 14 2 14 6 1 3 -13 30 -17 176 -22 95 -4 202 -4 239 0 l68 6 66 -59 c37
-32 81 -66 98 -74 29 -14 31 -19 34 -78 2 -44 -1 -67 -11 -77 -13 -12 -15 -6
-21 47 -7 60 -8 62 -84 133 l-77 73 -72 7 c-40 4 -139 3 -220 -1 l-148 -8 70
-12 c132 -22 270 -44 283 -44 28 0 54 -88 59 -205 l6 -113 81 -81 c85 -84 116
-101 174 -91 28 4 39 15 77 80 25 41 45 82 45 92 0 10 4 18 10 18 5 0 7 -13 3
-32 -7 -35 -8 -48 -5 -115 2 -37 7 -45 52 -77 55 -40 60 -42 60 -23 0 7 14 28
30 47 43 50 44 51 60 90 7 19 20 44 27 55 17 25 16 63 -1 95 -12 21 -12 29 -1
51 16 30 45 57 45 41 0 -6 -4 -14 -10 -17 -13 -8 -13 -45 -1 -45 5 0 18 11 28
25 l18 26 -3 -76 c-4 -75 5 -95 27 -57 6 10 11 12 11 4 0 -7 4 -11 10 -7 5 3
6 13 3 22 -5 12 -3 14 6 8 7 -4 16 -3 20 2 9 14 65 27 56 13 -8 -14 8 -13 22
1 9 9 19 6 41 -10 49 -34 44 -24 -12 29 -29 28 -55 50 -58 50 -4 0 -11 -15
-17 -32 -9 -25 -14 -30 -21 -19 -11 19 7 52 60 111 27 31 42 41 48 33 5 -7 13
-9 22 -3 11 7 11 11 1 24 -12 14 -8 24 23 72 20 30 41 52 46 49 14 -9 13 291
-1 318 -16 31 -201 217 -216 217 -7 0 -13 -5 -13 -11 0 -8 -11 -9 -31 -5 -29
6 -31 4 -25 -19 5 -19 2 -25 -9 -25 -9 0 -15 6 -14 13 4 33 -1 37 -48 30 -59
-8 -82 -27 -65 -54 16 -25 15 -48 -3 -83 -18 -34 -13 -56 11 -56 10 0 14 -3
11 -6 -9 -10 -74 -12 -88 -4 -13 9 -3 50 12 50 6 0 7 5 4 10 -3 6 -2 10 4 10
12 0 30 58 27 89 -1 14 -11 28 -23 32 -16 6 -20 15 -18 44 1 20 7 41 13 47 6
6 8 17 5 24 -3 8 0 20 6 28 8 10 8 16 -4 26 -20 17 -19 38 3 42 9 2 -25 4 -75
3 -87 0 -98 3 -94 29 3 14 -32 35 -59 36 -48 0 -65 -44 -34 -88 18 -26 48 -29
66 -4 14 19 51 27 45 9 -2 -6 -12 -15 -23 -21 -10 -6 -21 -14 -24 -17 -10 -12
-80 -3 -95 12 -9 9 -18 37 -21 62 -5 44 -4 48 28 67 36 22 65 25 88 9 12 -8
10 -9 -7 -4 -14 4 -23 2 -23 -4 0 -6 6 -11 14 -11 8 0 28 -11 44 -25 31 -26
48 -29 99 -19 43 9 36 43 -23 106 -27 29 -63 70 -81 91 -32 36 -34 37 -103 37
-39 0 -71 -4 -71 -10 -1 -5 -3 -19 -4 -30 -1 -11 -3 -47 -4 -80 -1 -56 -3 -61
-28 -70 -16 -6 -38 -16 -51 -22 -19 -10 -25 -9 -32 1 -4 8 -12 11 -18 7 -6 -3
-17 3 -26 15 -17 25 -55 30 -108 13 -30 -10 -69 -11 -140 -5 -4 1 -4 9 -1 19
5 13 4 15 -8 6 -8 -5 -24 -9 -36 -8 -13 0 -23 -3 -23 -9 0 -23 -13 5 -15 33
-2 20 1 27 9 23 6 -4 5 1 -3 10 -8 10 -14 32 -13 49 1 49 -14 68 -53 68 -18 0
-37 -5 -40 -10 -4 -6 -12 -7 -18 -4 -7 4 -9 3 -4 -1 4 -5 -3 -19 -15 -32 -21
-23 -59 -30 -93 -17 -24 10 -47 63 -47 107 1 75 65 103 114 50 51 -55 76 -73
99 -73 37 0 52 15 46 41 -3 13 -9 69 -12 124 -21 338 -25 355 -81 355 -37 0
-63 31 -66 76 -4 50 -28 49 -28 -1 0 -18 -8 -43 -19 -56 -10 -13 -21 -42 -24
-64 -22 -152 -27 -201 -31 -285 -3 -52 -9 -118 -15 -146 -5 -28 -13 -97 -17
-155 -3 -57 -11 -107 -16 -110 -6 -4 -7 -12 -4 -18 11 -17 -17 -39 -55 -42
-19 -2 -42 -9 -51 -17 -14 -12 -21 -12 -32 -3 -20 17 -61 4 -47 -13 8 -9 7
-21 -2 -39 -16 -35 -30 -34 -45 5 -9 25 -9 35 1 46 8 11 11 64 10 189 -2 96
-5 178 -8 183 -8 14 -64 39 -100 46 -53 10 -67 -21 -72 -164 -5 -133 -9 -162
-24 -162 -26 0 -46 36 -51 97 -1 7 -5 10 -9 8 -16 -10 -27 25 -32 105 -4 47
-10 552 -13 1123 l-7 1037 1066 0 1067 0 1 -122z m929 -2328 c3 -1 8 -2 13 -1
4 0 7 -3 7 -9 0 -5 -7 -10 -15 -10 -8 0 -15 -4 -15 -10 0 -5 -12 -13 -26 -16
-15 -4 -23 -12 -20 -20 3 -7 1 -16 -5 -19 -5 -4 -7 -11 -4 -16 4 -5 -1 -12 -9
-15 -13 -5 -16 -27 -16 -132 0 -109 2 -123 14 -107 13 18 14 17 21 -14 8 -36
-1 -54 -15 -31 -7 11 -10 4 -10 -25 0 -37 7 -47 118 -159 131 -133 106 -125
-39 12 l-94 89 -7 94 c-3 52 -7 132 -7 177 -1 74 -3 84 -20 89 -11 3 -22 12
-24 22 -3 9 -5 2 -6 -16 0 -17 -7 -33 -13 -35 -8 -3 -13 -30 -15 -77 -1 -40
-4 -75 -6 -78 -3 -2 -14 0 -25 6 -12 6 -41 11 -65 11 -27 0 -46 5 -49 13 -2 6
-5 53 -6 102 -2 74 0 95 16 117 16 24 21 26 36 15 12 -9 34 -11 66 -7 43 5 50
4 59 -14 10 -21 10 -21 10 1 1 28 34 47 59 35 17 -9 62 1 62 14 0 3 -7 4 -14
1 -10 -4 -13 -1 -10 7 4 10 34 14 54 6z m-730 -208 l0 -198 63 -61 c34 -33 72
-64 85 -68 16 -5 22 -14 22 -34 0 -39 -20 -54 -54 -41 -22 8 -26 16 -26 48 0
34 -7 45 -54 91 l-55 51 -1 168 c-2 241 -1 254 10 247 6 -4 10 -83 10 -203z
m-1972 -88 c12 -8 20 -19 17 -24 -3 -4 2 -11 11 -14 9 -3 228 -6 488 -6 l473
0 126 -123 127 -123 0 -112 c0 -105 -1 -112 -20 -112 -19 0 -20 7 -20 108 l0
107 -113 114 -112 115 -466 0 -466 1 -27 -32 c-31 -37 -74 -44 -100 -17 -22
21 -20 25 7 19 24 -6 59 17 69 45 3 8 -6 27 -20 43 -29 30 -12 38 26 11z
m1538 -24 c3 0 20 6 38 14 60 25 63 3 6 -55 l-52 -53 4 -113 c2 -87 0 -110 -9
-100 -7 7 -13 35 -14 62 -3 68 -6 74 -37 69 -15 -1 -39 -1 -55 2 l-27 6 30 28
c36 34 37 41 5 76 -29 31 -31 50 -8 76 19 21 33 23 33 4 0 -13 20 -26 41 -26
5 0 15 12 21 28 11 26 12 26 15 5 3 -13 6 -23 9 -23z m-2190 -1543 c-5 9 -2
11 8 7 9 -3 13 -11 9 -18 -4 -6 1 -5 10 2 9 8 21 10 28 6 6 -4 21 -8 33 -9 11
-1 25 -3 30 -4 4 0 6 -10 3 -21 -3 -11 -1 -20 4 -20 4 0 5 -7 2 -17 -4 -9 -2
-14 3 -11 5 4 10 -19 11 -50 1 -32 4 -75 8 -97 3 -22 8 -58 11 -80 2 -22 7
-55 10 -74 5 -26 4 -32 -6 -26 -10 6 -11 4 -4 -6 11 -18 13 -145 2 -183 -5
-21 -4 -32 5 -38 6 -4 7 -8 2 -8 -10 0 -13 -89 -3 -105 10 -17 19 -111 10 -97
-14 21 -22 -22 -11 -60 5 -19 5 -36 -1 -43 -5 -6 -5 -17 0 -25 5 -8 6 -18 4
-22 -3 -4 0 -8 6 -8 8 0 8 -6 0 -20 -6 -11 -8 -30 -4 -44 3 -13 1 -27 -5 -30
-6 -4 -66 -9 -135 -11 -121 -4 -124 -4 -130 18 -8 29 -8 1025 0 1055 4 12 13
22 21 22 8 0 11 5 7 11 -4 8 0 8 15 0 17 -10 22 -9 27 4 5 13 9 13 22 3 12
-10 14 -10 8 -1z m4009 -442 c7 0 11 -182 13 -520 l2 -521 100 -104 100 -105
-2 -165 c-4 -218 -22 -222 -26 -5 l-2 161 -84 83 c-49 48 -89 81 -95 77 -6 -4
-8 -12 -5 -18 4 -6 2 -8 -4 -5 -5 4 -9 15 -7 25 13 62 14 82 5 77 -7 -4 -10
170 -10 499 0 326 -4 507 -10 511 -5 3 -10 11 -10 16 0 6 6 7 13 2 6 -4 17 -8
22 -8z m286 -5 c10 -6 26 -26 34 -45 l14 -35 110 0 c72 0 111 -4 111 -11 0 -5
-4 -8 -8 -5 -5 3 -46 2 -91 -2 l-83 -7 171 -174 171 -175 -1 -150 c0 -83 -4
-160 -8 -171 -8 -19 -21 136 -21 259 l-1 61 -184 178 c-169 163 -186 177 -201
163 -21 -21 -67 -20 -87 2 -30 33 -31 69 -3 96 27 28 46 32 77 16z m-2551
-135 c0 -16 6 -25 15 -25 8 0 15 -6 16 -12 1 -7 2 -25 3 -40 0 -14 4 -29 8
-33 3 -4 2 -20 -2 -36 -5 -16 -6 -29 -4 -29 3 0 -1 -6 -9 -14 -12 -12 -133
-36 -182 -36 -7 0 -39 21 -70 47 -54 43 -56 47 -39 59 38 26 53 47 56 78 3 29
5 31 41 28 21 -2 37 1 37 7 0 7 16 8 43 5 32 -5 46 -2 56 10 19 23 31 20 31
-9z m733 -36 c15 -17 16 -23 6 -36 -10 -11 -10 -16 -1 -22 7 -4 -1 -13 -23
-23 -24 -10 -36 -12 -39 -4 -3 6 -70 -55 -150 -136 -128 -131 -166 -163 -166
-142 0 3 66 75 148 160 81 85 148 164 150 174 3 18 37 50 52 50 3 0 14 -9 23
-21z m-525 -116 c-24 -27 -80 -85 -124 -130 l-79 -81 -74 -6 c-41 -3 -77 -8
-79 -11 -3 -3 56 -5 131 -5 l137 0 0 -45 c0 -29 4 -45 13 -45 8 0 8 -3 1 -8
-5 -4 -11 -27 -12 -52 -2 -62 -17 -70 -126 -70 -63 0 -86 -3 -76 -10 8 -5 57
-10 108 -10 86 0 92 -1 92 -20 0 -11 -7 -23 -15 -26 -8 -4 -13 -10 -10 -14 3
-5 1 -20 -5 -35 -7 -17 -7 -24 0 -20 6 3 10 2 10 -4 0 -7 8 -7 25 -1 15 6 26
6 30 -1 4 -5 11 -7 16 -4 5 3 6 0 4 -7 -3 -8 -19 -19 -35 -25 -24 -9 -30 -17
-30 -40 0 -33 16 -53 43 -53 10 0 15 -5 12 -10 -4 -6 -16 -8 -27 -4 -14 4 -18
2 -14 -5 5 -8 0 -8 -18 0 -14 7 -29 25 -35 40 -12 34 -24 38 -19 7 2 -15 -2
-22 -10 -20 -9 1 -10 -6 -6 -24 5 -20 4 -25 -6 -19 -9 5 -10 2 -5 -15 5 -14 3
-20 -3 -16 -15 9 -42 -4 -42 -21 0 -10 -6 -12 -20 -8 -15 5 -20 2 -20 -14 0
-11 -5 -23 -11 -27 -9 -5 -10 1 -5 22 6 27 5 28 -6 8 -11 -19 -15 -20 -27 -7
-19 21 -35 1 -34 -44 1 -34 0 -36 -10 -15 -5 12 -14 22 -18 22 -9 0 -24 -21
-24 -35 0 -5 -6 -10 -13 -10 -7 0 -17 -6 -21 -14 -5 -8 -14 -10 -21 -6 -9 5
-11 4 -6 -4 6 -8 1 -10 -16 -6 -16 4 -29 1 -37 -9 -16 -19 -7 -34 33 -52 17
-7 25 -13 18 -14 -22 0 -71 29 -82 50 -6 12 -12 39 -13 60 -1 28 -6 40 -17 41
-11 0 -9 3 4 8 18 7 18 8 2 14 -9 4 -14 11 -11 17 3 5 -1 10 -9 10 -9 0 -16 5
-16 11 0 5 5 7 12 3 7 -5 8 -3 4 5 -5 7 -18 16 -31 21 -17 7 -22 14 -18 30 3
12 -2 29 -13 42 -17 19 -17 21 -1 15 19 -7 23 9 7 33 -8 13 -10 12 -10 -2 0
-10 -5 -18 -11 -18 -6 0 -9 7 -5 15 3 8 1 15 -3 15 -5 0 -12 7 -15 16 -5 14
-4 15 9 4 13 -11 15 -8 15 15 0 19 -4 26 -14 22 -11 -5 -13 2 -10 31 3 20 9
41 14 46 5 5 5 16 -1 28 -6 12 -6 18 1 18 24 0 7 18 -22 24 -35 7 -34 14 3 19
13 2 25 10 25 18 1 8 3 19 4 24 1 6 2 13 2 16 -1 4 10 17 23 29 14 13 25 34
25 46 0 12 7 29 15 38 18 18 20 30 3 20 -7 -4 -4 3 7 15 15 17 20 37 20 76
l-1 54 31 -6 c16 -4 55 -26 86 -50 l55 -43 95 0 96 0 121 127 c67 69 125 123
129 120 3 -4 -14 -28 -39 -54z m1993 -533 l4 -415 -132 -141 -133 -142 0 -86
c0 -56 -4 -85 -10 -81 -5 3 -10 44 -10 91 l0 84 135 137 135 138 0 408 0 408
-85 81 c-47 44 -85 85 -85 91 0 6 40 -27 89 -74 l88 -84 4 -415z m-104 398
l31 -33 5 -346 c2 -190 2 -360 -1 -377 -3 -24 -40 -68 -158 -189 -84 -87 -153
-154 -154 -150 0 4 68 78 150 164 l150 155 0 368 0 367 -107 108 c-100 100
-102 103 -28 37 44 -38 94 -85 112 -104z m-95 -15 l58 -52 4 -302 4 -303 -122
-125 c-67 -69 -160 -166 -208 -216 l-86 -90 0 -285 c-1 -297 4 -384 19 -374
13 8 59 -42 59 -65 0 -11 -9 -25 -20 -31 -17 -9 -20 -8 -20 13 0 13 -11 34
-25 47 -24 23 -25 23 -45 5 -11 -10 -20 -29 -20 -42 0 -16 -6 -23 -19 -23 -35
0 -33 19 6 57 l38 38 3 334 3 334 209 217 210 218 0 290 0 290 -77 78 c-81 81
-69 76 29 -13z m-8217 53 c67 -28 94 -118 58 -193 -22 -47 -78 -72 -160 -73
l-63 0 0 140 0 140 65 0 c36 0 81 -6 100 -14z m2527 -13 c2 -20 9 -29 26 -31
12 -2 22 -7 22 -12 0 -22 -14 -40 -31 -40 -16 0 -19 -8 -19 -56 0 -47 3 -57
20 -61 13 -3 20 -14 20 -29 0 -33 -42 -32 -75 1 -21 20 -25 34 -25 85 0 47 -3
60 -15 60 -9 0 -15 9 -15 25 0 16 6 25 15 25 10 0 15 10 15 30 0 27 3 30 29
30 25 0 30 -4 33 -27z m-2027 -53 c7 -6 15 -20 18 -30 4 -16 0 -20 -21 -20
-14 0 -33 7 -43 16 -21 18 -49 12 -49 -10 0 -9 14 -18 35 -22 47 -8 85 -40 85
-69 0 -60 -108 -88 -155 -40 -14 13 -25 29 -25 35 0 17 57 12 64 -6 8 -20 50
-14 54 8 2 12 -9 20 -45 30 -33 9 -52 22 -63 40 -13 25 -13 29 6 55 11 15 32
30 45 34 26 6 74 -4 94 -21z m-214 -9 c21 -21 29 -39 29 -64 l0 -35 -64 5
c-81 7 -101 1 -86 -27 12 -22 73 -29 85 -10 8 13 65 13 65 1 0 -5 -14 -21 -31
-35 -45 -38 -110 -37 -150 3 -25 25 -29 37 -29 81 0 44 4 56 29 81 24 24 38
29 76 29 38 0 52 -5 76 -29z m339 19 c0 -7 6 -7 19 0 33 17 89 12 111 -10 41
-41 49 -118 17 -161 -29 -39 -87 -50 -125 -23 l-22 15 0 -65 0 -66 -30 0 -30
0 0 160 0 160 30 0 c17 0 30 -5 30 -10z m263 -2 c4 -10 7 -10 18 0 25 23 49
15 49 -18 0 -25 -4 -30 -25 -30 -32 0 -45 -31 -45 -106 0 -54 0 -55 -27 -52
l-28 3 -3 108 -4 107 30 0 c17 0 32 -6 35 -12z m270 -8 c57 -45 53 -144 -6
-180 -47 -29 -100 -26 -137 8 -55 49 -50 145 9 177 39 21 104 19 134 -5z m248
-10 c17 -16 28 -34 24 -40 -9 -15 -51 -12 -65 5 -15 18 -51 20 -68 3 -15 -15
-16 -63 -2 -89 13 -23 52 -25 70 -4 14 16 70 21 70 6 0 -23 -47 -62 -82 -68
-77 -12 -128 35 -128 117 0 61 41 100 105 100 38 0 52 -5 76 -30z m234 4 c14
-15 25 -33 25 -40 0 -19 -59 -18 -66 1 -9 22 -61 19 -74 -4 -15 -29 -12 -62 7
-83 19 -21 56 -24 72 -4 11 13 61 11 61 -3 -1 -12 -25 -38 -47 -49 -59 -32
-132 -1 -153 64 -15 44 -6 81 28 117 21 22 34 27 74 27 40 0 53 -5 73 -26z
m115 -31 c0 -80 8 -102 38 -110 41 -10 62 25 62 104 0 64 0 64 27 61 l27 -3 1
-105 0 -105 -32 -3 c-19 -2 -33 1 -33 8 0 7 -6 8 -19 0 -32 -16 -68 -12 -96
13 -24 20 -27 31 -32 110 l-6 87 32 0 31 0 0 -57z m270 40 c0 -15 1 -15 18 0
30 27 79 21 113 -12 25 -25 29 -37 29 -81 0 -44 -4 -56 -29 -81 -33 -33 -74
-38 -109 -13 l-22 15 0 -65 0 -66 -30 0 -30 0 0 160 0 160 30 0 c21 0 30 -5
30 -17z m350 7 c26 -14 40 -63 40 -141 l0 -69 -36 0 c-21 0 -33 4 -29 10 3 6
2 10 -4 10 -5 0 -13 -4 -16 -10 -9 -15 -68 -12 -93 6 -27 19 -29 64 -3 88 10
9 36 19 57 22 57 8 64 12 58 28 -9 23 -35 28 -60 11 -28 -18 -64 -20 -64 -3 0
6 10 22 22 35 16 17 32 23 65 23 25 0 53 -4 63 -10z m395 -12 c31 -27 51 -96
30 -105 -8 -2 -43 -3 -80 -1 -65 3 -79 -4 -53 -30 15 -15 64 -16 73 -2 8 13
65 13 65 1 0 -5 -14 -21 -31 -35 -41 -35 -106 -36 -145 -3 -22 19 -28 34 -32
80 -4 52 -2 58 26 87 39 39 106 43 147 8z m4785 -7 c0 -4 -9 -20 -20 -34 -13
-17 -18 -34 -15 -54 3 -15 7 -44 8 -63 2 -19 9 -45 15 -56 6 -12 9 -43 7 -68
-3 -25 -1 -46 4 -46 10 0 24 -38 21 -58 0 -8 4 -20 11 -28 6 -7 8 -25 5 -39
-4 -16 -2 -25 5 -25 7 0 9 -10 4 -27 l-6 -28 34 33 c26 25 36 30 40 19 3 -8
-20 -42 -54 -82 -32 -37 -56 -72 -52 -78 3 -6 2 -8 -3 -5 -5 4 -38 -20 -73
-52 l-63 -57 -6 -494 c-3 -272 -9 -479 -13 -461 -4 19 -8 243 -10 498 l-4 463
43 43 c23 24 42 47 42 51 0 16 -28 5 -39 -15 -11 -23 -11 -23 -5 2 4 14 3 22
-1 18 -5 -4 -15 -2 -24 5 -14 10 -14 10 -3 -5 11 -13 11 -18 0 -24 -18 -11
-48 -12 -54 -2 -8 13 -34 9 -34 -6 0 -7 -7 -19 -15 -26 -12 -10 -15 -10 -15 3
0 19 -22 28 -41 16 -10 -6 -14 -31 -14 -91 0 -398 -20 -501 -29 -152 -6 231
-2 259 50 280 31 13 51 39 22 29 -7 -3 -20 0 -28 5 -12 8 -13 11 -1 19 16 10
-3 26 -19 16 -5 -3 -10 1 -10 9 0 9 -4 16 -9 16 -23 0 -34 -36 -37 -127 -2
-53 -8 -101 -14 -107 -5 -5 -10 -8 -11 -5 0 2 -3 53 -6 113 l-5 109 45 46 c46
47 54 75 30 100 -13 12 -24 5 -82 -53 -36 -36 -70 -66 -74 -66 -19 0 -1 30 48
80 30 30 64 74 75 97 20 42 45 63 75 63 23 0 54 40 55 70 0 14 5 32 10 40 7
11 2 20 -17 35 -35 28 -34 72 1 100 14 11 26 30 27 40 0 15 2 16 6 5 12 -31
25 -41 39 -29 26 21 87 29 105 13 14 -12 18 -11 39 11 24 25 40 32 40 16z
m1442 -98 l58 -57 0 -386 c0 -248 -4 -380 -10 -370 -5 9 -10 166 -10 379 l0
364 -55 58 c-30 32 -55 60 -55 63 0 15 19 2 72 -51z m-261 -35 l69 -62 0 -166
0 -166 60 -59 60 -59 0 -325 0 -325 35 -32 c41 -37 43 -63 7 -108 -12 -16 -22
-25 -22 -21 0 4 -7 2 -15 -5 -32 -26 -105 24 -105 73 0 36 25 80 54 93 21 9
21 11 20 329 l-1 319 -58 54 -58 54 2 162 2 161 -56 55 c-54 52 -83 90 -70 90
4 0 38 -28 76 -62z m-1858 -84 c20 -40 22 -58 5 -48 -7 5 -9 2 -5 -9 4 -10 0
-18 -12 -22 -15 -4 -20 -22 -28 -93 l-10 -87 -2 73 c-1 67 -4 76 -31 104 -33
33 -38 62 -14 96 10 15 25 22 47 22 26 0 35 -7 50 -36z m972 -180 c-10 -19
-22 -34 -26 -34 -4 0 -26 -22 -49 -50 l-41 -49 1 -214 c1 -198 -1 -215 -17
-219 -17 -5 -18 9 -15 229 l3 234 24 9 c14 5 25 14 25 19 0 5 16 28 35 51 21
25 35 53 35 69 0 15 6 33 13 40 10 10 14 6 21 -19 7 -25 5 -40 -9 -66z m-7805
-94 l0 -150 -30 0 c-21 0 -30 5 -30 17 0 15 -1 15 -18 0 -21 -19 -74 -22 -104
-6 -30 16 -51 74 -43 120 12 71 89 111 143 73 22 -15 22 -15 22 40 0 56 0 56
30 56 l30 0 0 -150z m458 -2 l3 -148 -31 0 -30 0 0 151 0 150 28 -3 27 -3 3
-147z m-238 47 c21 -19 43 -82 34 -97 -3 -4 -39 -8 -80 -8 -60 0 -74 -3 -74
-15 0 -9 11 -20 25 -27 19 -9 29 -8 49 6 26 16 76 22 76 8 0 -20 -34 -52 -65
-61 -78 -21 -145 27 -145 103 1 78 44 119 118 112 24 -2 52 -12 62 -21z m466
-9 c85 -85 7 -217 -111 -185 -47 13 -75 52 -75 103 1 75 41 115 114 116 30 0
45 -7 72 -34z m197 23 c25 -14 37 -28 37 -46 0 -17 -40 -16 -63 2 -11 7 -25
11 -33 8 -29 -11 -13 -32 37 -48 65 -22 82 -53 52 -93 -16 -21 -30 -28 -66
-30 -39 -3 -51 1 -72 22 -14 14 -25 30 -25 36 0 16 58 12 68 -6 11 -19 47 -15
47 6 0 9 -17 20 -40 28 -41 13 -75 44 -75 69 0 7 11 25 25 38 26 27 72 33 108
14z m4333 -94 c9 -12 14 -14 14 -5 0 7 3 10 6 7 4 -4 1 -13 -6 -22 -10 -12
-10 -15 0 -15 16 0 3 -15 -13 -15 -7 -1 -11 -7 -9 -14 2 -9 -3 -11 -14 -7 -9
3 -24 1 -32 -6 -13 -11 -14 -11 -7 1 5 10 4 12 -3 7 -7 -4 -12 -18 -12 -32 0
-14 -7 -27 -15 -30 -8 -4 -12 -10 -9 -15 3 -5 0 -9 -6 -9 -6 0 -8 -4 -5 -10 3
-5 2 -10 -3 -10 -5 0 -12 8 -15 18 -2 11 -14 21 -26 25 -11 3 -19 1 -15 -4 9
-16 -14 -10 -32 9 -16 15 -17 15 -12 0 7 -17 -9 -28 -43 -28 -10 0 -19 -5 -19
-12 0 -27 -16 10 -19 45 -1 4 -8 7 -17 5 -10 -2 -18 5 -20 16 -6 43 -16 69
-29 82 -8 8 -12 21 -8 29 4 13 33 15 180 12 159 -2 176 -4 189 -22z m-5370
-366 c4 -8 9 -8 17 0 12 12 66 15 92 5 29 -12 45 -60 45 -139 l0 -75 -30 0
-30 0 0 73 c0 81 -9 97 -52 97 -36 0 -48 -28 -48 -111 0 -56 -1 -59 -25 -59
l-25 0 0 110 c0 110 0 110 24 110 14 0 28 -5 32 -11z m256 -65 c3 -76 13 -94
48 -94 35 0 45 18 48 94 l4 76 29 0 29 0 0 -110 0 -110 -29 0 c-16 0 -31 5
-33 11 -3 9 -9 9 -25 0 -35 -18 -72 -13 -98 14 -23 22 -25 32 -25 110 0 83 1
85 24 85 23 0 24 -4 28 -76z m268 64 c0 -9 3 -9 12 0 17 17 80 15 106 -4 21
-15 25 -15 41 0 18 16 66 21 96 10 29 -12 45 -60 45 -139 l0 -75 -30 0 -30 0
0 73 c0 77 -9 97 -45 97 -36 0 -45 -20 -45 -97 l0 -73 -30 0 -30 0 0 66 c0 76
-12 104 -44 104 -35 0 -45 -19 -48 -95 -3 -68 -4 -70 -30 -73 l-28 -3 0 110 0
111 30 0 c17 0 30 -5 30 -12z m515 -11 c18 -15 28 -36 32 -65 l6 -42 -82 0
c-79 0 -81 -1 -71 -20 11 -21 64 -28 75 -10 10 16 65 12 65 -4 0 -27 -50 -56
-97 -56 -36 0 -50 6 -74 29 -25 25 -29 37 -29 81 0 44 4 56 29 81 38 38 106
41 146 6z m138 11 c4 -10 7 -10 18 0 7 6 21 12 32 12 25 0 20 -52 -6 -56 -38
-5 -47 -24 -47 -95 l0 -69 -30 0 -30 0 0 110 0 110 29 0 c16 0 31 -6 34 -12z
m278 -17 c24 -25 29 -38 29 -78 -1 -70 -42 -113 -109 -113 -70 0 -111 44 -111
120 0 33 6 48 29 71 25 25 37 29 81 29 44 0 56 -4 81 -29z m207 13 c29 -20 29
-54 0 -54 -12 0 -29 7 -39 16 -20 18 -53 12 -47 -9 3 -6 22 -18 44 -25 49 -17
74 -39 74 -68 0 -29 -44 -64 -82 -64 -26 0 -88 24 -88 34 0 3 -3 11 -6 20 -5
13 1 16 25 16 17 0 31 -4 31 -9 0 -13 27 -21 45 -15 28 11 15 33 -26 44 -42
12 -79 41 -79 64 0 7 9 25 21 40 16 21 29 26 63 26 23 0 52 -7 64 -16z m-1148
-368 c0 -13 -7 -26 -15 -30 -19 -7 -20 -36 -1 -36 16 0 25 -19 19 -37 -3 -7
-11 -13 -19 -13 -11 0 -14 -18 -14 -85 l0 -85 -30 0 -30 0 0 85 c0 69 -3 85
-15 85 -8 0 -15 4 -15 9 0 5 -3 16 -6 24 -3 9 2 16 14 19 11 3 21 17 25 35 10
48 87 74 87 29z m-402 -33 c3 -22 0 -23 -52 -23 l-56 0 0 -35 c0 -35 0 -35 45
-35 38 0 45 -3 45 -20 0 -17 -7 -20 -45 -20 l-45 0 0 -40 0 -40 55 0 c48 0 55
-2 55 -20 0 -18 -7 -20 -85 -20 l-85 0 0 140 0 141 83 -3 c76 -3 82 -5 85 -25z
m984 -10 c-3 -19 2 -23 22 -23 21 0 26 -5 26 -25 0 -20 -5 -25 -25 -25 -24 0
-25 -3 -25 -55 0 -50 2 -56 25 -65 15 -6 25 -17 25 -30 0 -16 -7 -20 -33 -20
-57 0 -71 19 -75 99 -3 52 -8 71 -18 71 -8 0 -14 10 -14 25 0 16 6 25 15 25 9
0 15 10 15 26 0 23 3 25 33 22 27 -2 31 -7 29 -25z m388 2 c0 -18 5 -25 20
-25 15 0 20 -7 20 -25 0 -18 -5 -25 -20 -25 -18 0 -20 -7 -20 -60 0 -53 2 -60
20 -60 15 0 20 -7 20 -25 0 -21 -5 -25 -32 -25 -52 0 -68 23 -68 97 0 47 -4
65 -15 69 -20 8 -19 50 1 58 10 4 13 13 9 26 -6 17 -2 20 29 20 32 0 36 -3 36
-25z m-1270 -42 c0 -15 1 -15 18 0 22 20 70 22 93 4 29 -22 39 -55 39 -131 l0
-76 -30 0 -30 0 0 73 c0 77 -9 97 -45 97 -36 0 -45 -20 -45 -97 l0 -73 -30 0
-30 0 0 110 0 110 30 0 c21 0 30 -5 30 -17z m489 3 c33 -18 51 -54 51 -105 0
-110 -155 -148 -205 -50 -53 102 52 207 154 155z m262 -15 c16 -16 29 -34 29
-40 0 -17 -56 -13 -70 4 -30 36 -80 5 -80 -50 0 -26 6 -39 25 -51 23 -15 27
-15 50 0 25 17 75 22 75 8 0 -5 -14 -21 -31 -38 -24 -23 -39 -29 -75 -29 -39
0 -50 5 -75 33 -48 53 -36 146 22 178 43 24 97 17 130 -15z m374 4 c23 -22 25
-32 25 -110 l0 -85 -30 0 c-16 0 -30 4 -30 9 0 5 -14 2 -31 -6 -41 -20 -79 -8
-98 31 -20 43 10 78 78 90 39 7 51 13 49 25 -4 22 -38 25 -72 7 -36 -19 -60
-11 -46 14 29 54 113 68 155 25z m385 -2 c20 -18 33 -41 37 -65 l6 -38 -82 0
c-79 0 -81 -1 -71 -21 16 -30 39 -35 72 -16 55 32 92 12 50 -26 -47 -42 -114
-42 -157 0 -98 99 42 259 145 166z m343 7 c26 -20 52 -85 41 -102 -3 -4 -39
-8 -80 -8 -75 0 -86 -6 -58 -34 18 -18 45 -21 61 -5 13 13 73 23 73 12 0 -22
-34 -53 -68 -64 -80 -24 -150 40 -139 125 11 83 107 125 170 76z m137 4 c0
-14 2 -14 22 0 12 9 34 16 49 16 61 0 94 -68 83 -167 -6 -47 -9 -53 -30 -53
-23 0 -24 3 -24 63 0 93 -36 132 -82 90 -14 -13 -18 -31 -18 -85 0 -68 0 -68
-27 -68 -25 0 -28 4 -30 38 -1 20 0 70 3 110 5 68 7 72 30 72 15 0 24 -6 24
-16z m459 2 c15 -8 32 -26 39 -40 11 -25 10 -26 -22 -26 -22 0 -36 6 -40 16
-10 25 -59 14 -74 -18 -27 -57 24 -122 66 -85 25 23 75 23 70 1 -6 -30 -56
-59 -100 -58 -59 2 -98 46 -98 110 0 55 12 79 48 98 35 19 76 20 111 2z m141
-3 c0 -15 1 -15 18 0 30 27 52 22 52 -13 0 -25 -4 -30 -23 -30 -37 0 -47 -19
-47 -92 l0 -68 -30 0 -30 0 0 110 0 110 30 0 c21 0 30 -5 30 -17z m271 -12
c21 -22 29 -39 29 -65 l0 -36 -76 0 c-66 0 -75 -2 -72 -17 5 -28 53 -40 76
-20 19 17 53 23 65 11 12 -12 -12 -41 -48 -58 -78 -37 -155 14 -155 102 1 71
41 111 113 112 29 0 45 -7 68 -29z m240 0 c16 -16 29 -34 29 -40 0 -17 -56
-13 -70 4 -7 8 -21 15 -31 15 -48 0 -69 -85 -27 -114 28 -20 33 -20 52 0 10 9
29 14 48 12 l32 -3 -30 -34 c-24 -27 -38 -34 -70 -35 -72 -1 -114 43 -114 121
0 27 8 43 34 69 46 46 104 48 147 5z m229 2 c20 -18 33 -41 37 -65 l6 -38 -82
0 c-44 0 -81 -3 -81 -7 0 -14 34 -43 50 -43 10 0 23 7 30 15 16 19 70 20 70 1
0 -19 -44 -53 -79 -61 -17 -4 -44 0 -65 9 -84 35 -85 172 -1 207 41 16 84 10
115 -18z m140 10 c0 -15 1 -15 18 0 28 25 42 21 42 -13 0 -22 -5 -30 -18 -30
-32 0 -42 -22 -42 -92 l0 -68 -30 0 -30 0 0 110 0 110 30 0 c21 0 30 -5 30
-17z"/>
<path d="M2751 9166 c-33 -18 -50 -53 -51 -103 0 -61 42 -108 97 -108 53 0 90
26 102 72 29 103 -61 187 -148 139z"/>
<path d="M6901 6142 c-25 -64 -23 -67 54 -70 l70 -3 86 -85 85 -85 -2 48 c-5
92 -15 189 -22 199 -4 6 -63 14 -134 17 l-126 6 -11 -27z"/>
<path d="M6330 4731 c0 -25 -5 -41 -15 -45 -17 -6 -12 -24 23 -83 14 -23 40
-48 57 -57 20 -11 23 -14 8 -10 -31 7 -29 -2 5 -20 15 -9 20 -16 12 -16 -12 0
-11 -4 4 -15 26 -19 42 -19 26 0 -10 12 -9 15 6 15 16 1 15 3 -6 15 -35 20
-18 19 24 -2 19 -9 33 -19 31 -23 -3 -4 18 -6 46 -5 l51 3 -5 -32 c-3 -17 -8
-39 -12 -48 -5 -12 -2 -18 7 -18 8 0 21 -16 28 -36 14 -33 36 -54 59 -54 11 0
3 179 -9 195 -4 6 -10 26 -14 46 -6 31 -4 37 14 42 18 5 20 11 15 58 -9 95
-48 115 -242 124 l-113 5 0 -39z"/>
<path d="M6710 4638 c0 -31 5 -39 35 -57 38 -22 40 -27 25 -65 -7 -19 -17 -26
-35 -26 -25 0 -25 0 -25 -95 l0 -95 65 0 c54 0 68 4 83 21 9 11 29 33 44 49
15 16 39 52 53 79 l25 51 -47 0 c-46 0 -50 2 -135 87 l-88 88 0 -37z"/>
<path d="M7610 4371 c0 -6 -7 -11 -15 -11 -22 0 -18 -14 10 -43 19 -19 24 -31
20 -50 -7 -27 -24 -32 -128 -41 -69 -6 -80 -12 -72 -37 5 -14 3 -17 -9 -13
-12 5 -15 2 -10 -12 5 -18 5 -18 -10 0 -8 10 -13 23 -10 27 3 5 0 9 -6 9 -6 0
-8 5 -5 10 7 11 -6 13 -29 4 -20 -8 -21 -24 -2 -24 8 0 16 -7 20 -15 6 -18 5
-18 -28 -5 -25 9 -26 8 -26 -25 0 -31 3 -34 32 -37 42 -4 54 -38 14 -38 -29 0
-30 -3 -16 -31 9 -15 15 -17 30 -9 16 9 20 7 20 -6 0 -33 13 -4 16 37 2 23 6
45 9 48 4 3 35 4 71 3 64 -3 66 -2 100 33 19 20 34 41 34 45 0 5 11 5 24 -1
25 -12 72 4 61 21 -3 4 1 11 7 14 9 3 8 8 -5 16 -15 10 -16 14 -5 27 11 14 11
15 -2 11 -27 -10 -50 10 -41 35 9 27 3 59 -10 51 -6 -3 -16 0 -24 6 -11 9 -15
9 -15 1z"/>
<path d="M6583 4240 c7 -27 -8 -34 -28 -13 -9 9 -31 18 -47 20 -23 2 -31 -2
-35 -17 -3 -11 -10 -20 -15 -20 -16 0 -39 -28 -28 -35 5 -3 10 -17 10 -30 0
-23 17 -35 51 -35 16 0 18 3 9 19 -14 26 -14 26 21 27 17 1 35 7 40 15 6 10 9
10 9 2 0 -16 63 -17 91 -3 14 8 19 21 19 50 l0 40 -51 0 c-46 0 -51 -2 -46
-20z"/>
<path d="M7000 4222 c0 -16 12 -42 30 -62 36 -42 40 -94 10 -110 -25 -13 -72
6 -49 21 11 7 10 11 -6 22 -31 24 -47 11 -29 -24 17 -34 9 -37 -21 -9 -23 22
-55 18 -55 -5 0 -16 128 -40 176 -32 39 6 104 55 104 77 0 18 -130 150 -148
150 -6 0 -12 -13 -12 -28z"/>
<path d="M7115 3872 c-22 -2 -45 -8 -51 -13 -7 -5 -30 -7 -51 -3 -30 4 -50 1
-79 -15 l-39 -20 105 -2 c58 -1 152 -5 210 -9 105 -7 105 -7 -58 -8 -100 -1
-161 -6 -157 -11 3 -6 -4 -15 -16 -21 -15 -9 -18 -15 -10 -23 17 -17 290 9
312 29 10 9 37 18 61 21 38 4 41 3 26 -9 -15 -13 -12 -15 29 -26 25 -7 48 -10
52 -6 13 13 -61 62 -105 68 -24 3 -58 13 -74 21 -38 20 -103 31 -155 27z"/>
<path d="M6626 3588 l7 -113 -24 20 c-13 11 -26 23 -29 26 -3 3 -19 13 -36 22
-17 9 -64 43 -105 76 -41 34 -76 61 -79 61 -3 0 -15 -19 -28 -42 l-23 -43 33
-28 c71 -60 197 -157 203 -157 4 0 28 -15 54 -34 25 -18 57 -36 70 -39 l24 -6
-5 117 c-3 69 -12 133 -21 157 -8 22 -18 52 -21 68 -4 15 -11 27 -16 27 -7 0
-8 -40 -4 -112z"/>
<path d="M650 2960 l0 -90 31 0 c44 0 89 47 89 95 0 49 -36 85 -85 85 l-35 0
0 -90z"/>
<path d="M10051 8045 c-18 -8 -38 -12 -43 -9 -6 4 -14 0 -19 -7 -5 -9 -9 -9
-9 -3 0 7 -15 11 -39 10 -22 -1 -38 2 -35 6 6 9 -10 11 -19 2 -6 -6 -52 -14
-99 -17 -10 -1 -18 -5 -18 -10 0 -5 -6 -5 -13 1 -8 7 -28 6 -67 -5 -30 -9 -65
-16 -77 -15 -12 0 -24 -6 -27 -14 -3 -8 1 -14 9 -14 8 0 15 -5 15 -11 0 -6 7
-9 15 -5 8 3 15 1 15 -3 0 -5 -7 -11 -15 -15 -8 -3 -15 0 -15 6 0 7 -5 6 -15
-2 -8 -6 -19 -9 -25 -5 -6 4 -17 2 -25 -5 -7 -6 -15 -7 -18 -3 -11 18 -146 1
-159 -20 -5 -9 -8 -8 -8 3 0 10 -3 11 -8 4 -4 -6 -27 -15 -52 -19 -25 -4 -49
-11 -55 -15 -5 -5 -21 -10 -35 -12 -17 -2 -25 -9 -24 -21 1 -12 -7 -20 -27
-24 -16 -3 -33 -11 -40 -19 -6 -7 -16 -11 -23 -8 -8 3 -16 -2 -19 -10 -4 -10
-15 -13 -33 -10 -22 4 -25 2 -16 -9 9 -11 8 -14 -3 -14 -8 0 -15 5 -15 10 0 8
-19 7 -103 -8 -15 -3 -26 -1 -22 4 3 5 -4 7 -15 4 -19 -5 -20 -6 -3 -19 17
-13 17 -13 1 -14 -10 0 -18 -5 -18 -11 0 -5 5 -7 10 -4 6 3 10 1 10 -4 0 -6
-4 -11 -10 -11 -5 0 -6 -7 -3 -17 4 -11 3 -14 -5 -9 -6 4 -21 2 -32 -4 -17 -9
-19 -8 -13 7 11 31 15 35 23 23 11 -18 19 2 9 25 -4 11 -8 14 -8 6 -1 -10 -4
-11 -14 -2 -10 8 -19 6 -35 -9 -12 -11 -29 -20 -39 -20 -15 0 -16 -2 -3 -10
13 -9 7 -14 -12 -11 -5 0 -8 -7 -8 -16 0 -9 3 -13 7 -10 3 4 13 1 21 -6 11 -8
14 -8 9 0 -4 6 -4 18 -1 27 9 24 32 2 29 -28 -3 -23 -2 -23 23 -10 14 7 29 11
32 7 3 -3 -1 -8 -7 -10 -18 -7 -16 -23 2 -23 12 0 13 -4 6 -19 -9 -16 -6 -20
15 -25 15 -4 29 -5 32 -1 3 3 -2 5 -11 5 -21 0 -31 17 -16 26 8 5 9 3 4 -6 -6
-10 -4 -12 8 -7 11 4 20 -1 27 -13 5 -10 18 -17 27 -15 10 1 26 -2 37 -7 13
-7 16 -7 12 1 -4 6 0 11 8 11 9 0 16 -4 16 -10 0 -5 10 -10 23 -9 12 0 34 -2
50 -4 15 -2 27 0 27 7 0 6 7 0 16 -12 13 -18 22 -22 44 -17 16 3 31 2 35 -4 4
-8 12 -8 27 0 16 9 19 8 13 -2 -6 -9 -2 -11 14 -6 13 3 20 3 17 0 -5 -6 20
-22 56 -36 12 -4 15 -2 12 8 -3 8 -13 11 -22 8 -14 -4 -15 -3 -2 6 10 7 19 6
30 -3 22 -19 58 -26 65 -12 3 6 4 2 2 -10 -3 -15 1 -20 17 -20 12 1 25 7 30
15 7 11 10 11 16 0 10 -15 50 -23 50 -9 0 6 5 10 11 10 5 0 7 -4 4 -10 -3 -5
3 -10 14 -10 12 0 21 -5 21 -11 0 -7 9 -6 23 4 15 9 29 12 37 7 8 -5 18 -6 22
-4 4 3 9 -5 9 -18 1 -17 3 -18 6 -5 5 20 19 22 26 5 4 -10 8 -10 15 1 6 8 19
12 31 8 12 -3 21 -1 21 4 0 4 6 7 13 5 40 -13 68 -16 63 -7 -4 6 7 8 26 6 107
-13 132 -14 150 -4 18 10 20 9 14 -6 -5 -15 -2 -16 21 -12 16 3 37 7 48 9 11
2 23 8 27 13 5 6 8 5 8 -3 0 -8 5 -10 12 -6 8 5 9 2 5 -9 -4 -12 -1 -17 10
-17 15 0 15 -2 0 -18 -20 -22 -22 -36 -4 -26 7 5 7 1 -2 -10 -10 -11 -22 -15
-38 -11 -27 6 -29 2 -7 -24 10 -11 24 -16 36 -13 13 3 19 0 18 -9 -5 -34 2
-47 26 -52 17 -3 24 -1 20 8 -3 8 2 11 15 8 19 -5 19 5 19 401 l0 407 -22 -3
c-13 -2 -28 -7 -35 -11 -11 -7 -26 -5 -83 8 -8 2 -30 -2 -49 -10z"/>
<path d="M10229 7126 c-2 -2 -67 -9 -144 -16 -260 -22 -364 -34 -372 -40 -2
-2 -7 -4 -13 -5 -5 -1 -11 -3 -12 -4 -2 -2 -14 -4 -27 -7 -14 -2 -30 -9 -38
-15 -7 -6 -13 -8 -13 -5 0 4 -7 0 -16 -8 -8 -9 -22 -16 -30 -16 -8 0 -14 -10
-14 -22 1 -21 2 -22 14 -5 15 19 31 24 20 6 -5 -8 2 -10 23 -7 17 2 35 -2 42
-9 15 -16 31 -17 31 0 0 7 3 8 8 2 10 -14 69 -34 77 -27 7 8 93 11 118 5 9 -2
15 -8 13 -12 -3 -4 4 -7 15 -7 10 0 19 7 19 16 0 13 2 13 10 0 5 -8 12 -11 16
-8 4 4 15 3 25 -3 14 -7 19 -6 19 3 0 8 5 5 11 -5 7 -11 17 -16 29 -12 52 17
170 23 191 10 5 -4 9 34 9 94 0 96 -1 106 -11 97z"/>
</g>
</svg>
