<?xml version="1.0" standalone="no"?>
<!DOCTYPE svg PUBLIC "-//W3C//DTD SVG 20010904//EN"
 "http://www.w3.org/TR/2001/REC-SVG-20010904/DTD/svg10.dtd">
<svg version="1.0" xmlns="http://www.w3.org/2000/svg"
 width="1024.000000pt" height="1024.000000pt" viewBox="0 0 1024.000000 1024.000000"
 preserveAspectRatio="xMidYMid meet">
<metadata>
Created by potrace 1.16, written by Peter Selinger 2001-2019
</metadata>
<g transform="translate(0.000000,1024.000000) scale(0.100000,-0.100000)"
fill="#000000" stroke="none">
<path d="M7448 8049 c-257 -193 -453 -553 -498 -914 -6 -49 -13 -104 -16 -121
-3 -24 -17 -39 -59 -68 -70 -49 -132 -116 -156 -171 -30 -67 -66 -359 -52
-414 11 -45 46 -36 129 31 118 95 177 130 202 121 l21 -8 -24 -54 c-30 -63
-31 -77 -7 -89 9 -5 115 -27 236 -48 214 -37 219 -38 232 -19 9 11 12 31 9 47
-3 16 -8 42 -11 58 -5 27 -3 30 20 30 20 0 36 -14 71 -60 24 -34 58 -87 76
-118 42 -75 58 -92 84 -92 31 0 39 12 73 120 46 146 66 277 53 339 -11 54 -46
128 -89 193 l-25 38 26 108 c40 163 50 268 44 437 -9 221 -46 373 -133 549
-56 113 -88 156 -117 156 -12 0 -52 -23 -89 -51z m124 -135 c38 -70 95 -230
86 -239 -33 -33 -378 30 -378 68 0 34 219 252 243 244 6 -2 28 -35 49 -73z
m-276 -278 c84 -34 200 -56 299 -56 59 0 87 -4 90 -12 13 -33 21 -238 14 -335
-15 -205 -61 -368 -164 -580 -55 -114 -67 -133 -87 -133 -24 0 -264 41 -354
60 -50 11 -52 12 -58 53 -3 23 -9 116 -12 207 -9 239 20 417 106 638 33 84 86
182 98 182 5 0 35 -11 68 -24z m-362 -823 c3 -32 8 -92 12 -134 l6 -76 -55
-31 c-31 -17 -71 -45 -90 -62 -19 -16 -37 -30 -41 -30 -17 0 8 199 34 265 10
28 105 125 121 125 4 0 10 -26 13 -57z m787 -137 c31 -65 35 -102 19 -187 -14
-78 -42 -179 -49 -179 -3 0 -21 26 -40 56 -18 31 -47 72 -64 91 l-30 34 57
118 c31 65 56 123 56 130 0 25 23 -3 51 -63z m-486 -211 c72 -14 131 -25 133
-25 1 0 2 -14 2 -31 0 -29 -2 -31 -27 -26 -16 3 -76 13 -135 22 -129 21 -133
23 -117 58 7 15 13 27 14 27 0 0 59 -11 130 -25z"/>
<path d="M3339 7700 l-106 -5 -237 -232 -238 -231 1 -1453 c1 -1051 4 -1456
12 -1466 10 -11 227 -13 1268 -11 l1256 3 14 32 15 33 579 2 c540 3 581 4 591
21 21 33 -4 52 -73 55 l-61 3 0 84 c0 108 -6 115 -106 115 l-74 0 0 1320 c0
1294 0 1319 -19 1330 -13 6 -168 10 -435 10 l-416 0 0 190 c0 143 -3 192 -12
195 -18 7 -1829 11 -1959 5z m1881 -1700 l0 -1610 -1185 0 -1185 0 0 1364 c0
750 -3 1371 -6 1380 -5 14 17 16 211 16 130 0 224 4 236 10 18 10 19 23 19
230 l0 220 955 0 955 0 0 -1610z m-2000 1395 l0 -155 -155 0 c-85 0 -155 4
-155 9 0 8 297 301 306 301 2 0 4 -70 4 -155z m2870 -1460 l0 -1285 -145 0
-145 0 0 159 c0 132 -3 162 -16 175 -12 13 -41 16 -145 16 -72 0 -139 -5 -150
-10 -18 -10 -19 -23 -19 -176 l0 -165 -77 3 -78 3 -3 1270 c-1 699 0 1276 3
1283 3 9 91 12 390 12 l385 0 0 -1285z m-412 -1035 l32 0 0 -125 0 -125 -75 0
-75 0 0 123 c0 68 3 127 8 131 4 4 23 5 42 2 19 -3 50 -6 68 -6z m592 -389 l0
-49 -77 -4 c-43 -2 -259 -2 -480 0 l-403 4 0 43 c0 23 3 45 7 48 3 4 219 7
480 7 l473 0 0 -49z"/>
<path d="M3130 6645 l0 -45 895 0 895 0 0 45 0 45 -895 0 -895 0 0 -45z"/>
<path d="M3137 6403 c-4 -3 -7 -24 -7 -45 l0 -38 895 0 895 0 0 45 0 45 -888
0 c-489 0 -892 -3 -895 -7z"/>
<path d="M3130 6075 l0 -45 895 0 895 0 0 45 0 45 -895 0 -895 0 0 -45z"/>
<path d="M3130 5795 l0 -45 550 0 550 0 0 45 0 45 -550 0 -550 0 0 -45z"/>
<path d="M4490 5586 c-121 -26 -217 -105 -273 -224 -29 -60 -32 -76 -31 -157
1 -114 26 -184 95 -259 l49 -54 1 -153 c1 -199 7 -243 35 -247 12 -2 51 15 86
36 134 82 115 80 225 17 144 -83 137 -90 141 152 2 186 4 203 21 213 31 16 90
104 112 167 29 83 23 205 -13 286 -53 113 -162 200 -286 226 -64 13 -90 13
-162 -3z m217 -108 c228 -107 230 -434 3 -549 -68 -34 -168 -37 -244 -9 -153
58 -233 231 -177 380 67 175 254 255 418 178z m21 -802 l-3 -54 -69 41 -69 41
-78 -40 -79 -41 0 105 c0 104 0 104 23 98 50 -15 182 -17 227 -4 l45 14 3 -53
c2 -29 2 -77 0 -107z"/>
<path d="M3130 5505 l0 -45 400 0 400 0 0 45 0 45 -400 0 -400 0 0 -45z"/>
<path d="M3130 4855 l0 -45 333 2 332 3 0 40 0 40 -332 3 -333 2 0 -45z"/>
<path d="M4769 2469 c-90 -13 -163 -69 -197 -149 -22 -52 -20 -165 5 -221 46
-103 140 -155 264 -147 86 7 149 41 190 106 42 67 40 72 -37 72 -59 0 -70 -3
-101 -30 -57 -51 -154 -35 -188 30 -23 45 -20 130 8 171 44 65 133 72 187 14
21 -22 32 -25 92 -25 79 0 82 5 39 72 -51 80 -155 123 -262 107z"/>
<path d="M5307 2466 c-64 -18 -116 -62 -149 -126 -23 -43 -28 -65 -28 -126 0
-85 13 -124 61 -179 97 -110 290 -115 395 -9 92 92 98 254 13 357 -63 76 -189
112 -292 83z m154 -129 c43 -29 60 -64 61 -126 0 -90 -48 -141 -132 -141 -84
0 -130 52 -130 148 0 115 110 180 201 119z"/>
<path d="M3670 2210 l0 -260 60 0 60 0 0 260 0 260 -60 0 -60 0 0 -260z"/>
<path d="M3880 2415 l0 -55 110 0 111 0 -41 -61 c-23 -33 -73 -103 -111 -156
-63 -87 -69 -100 -69 -144 l0 -49 190 0 190 0 0 55 0 54 -109 3 -109 3 109
150 c105 145 109 152 109 203 l0 52 -190 0 -190 0 0 -55z"/>
<path d="M4350 2210 l0 -260 65 0 65 0 0 260 0 260 -65 0 -65 0 0 -260z"/>
<path d="M5740 2210 l0 -260 65 0 65 0 0 158 0 157 103 -155 102 -155 68 -3
67 -3 0 261 0 260 -65 0 -64 0 -3 -157 -3 -156 -102 156 -102 157 -66 0 -65 0
0 -260z"/>
<path d="M6280 2420 l0 -50 39 0 c21 0 53 -3 70 -6 l31 -6 0 -204 0 -204 65 0
65 0 0 205 0 205 70 0 70 0 0 55 0 55 -205 0 -205 0 0 -50z"/>
</g>
</svg>
