<?xml version="1.0" standalone="no"?>
<!DOCTYPE svg PUBLIC "-//W3C//DTD SVG 20010904//EN"
 "http://www.w3.org/TR/2001/REC-SVG-20010904/DTD/svg10.dtd">
<svg version="1.0" xmlns="http://www.w3.org/2000/svg"
 width="1024.000000pt" height="1024.000000pt" viewBox="0 0 1024.000000 1024.000000"
 preserveAspectRatio="xMidYMid meet">
<metadata>
Created by potrace 1.16, written by Peter Selinger 2001-2019
</metadata>
<g transform="translate(0.000000,1024.000000) scale(0.100000,-0.100000)"
fill="#000000" stroke="none">
<path d="M2365 7493 c-11 -3 -32 -14 -48 -25 -61 -43 -57 61 -57 -1550 0
-1408 1 -1475 18 -1507 10 -19 34 -43 53 -53 32 -17 137 -18 2710 -18 l2676 0
34 23 c19 12 42 38 51 57 17 33 18 125 18 1500 0 1399 -1 1467 -18 1500 -12
22 -35 44 -62 58 l-44 22 -2656 -1 c-1460 -1 -2664 -4 -2675 -6z m280 -188
c50 -49 15 -135 -55 -135 -41 0 -80 39 -80 80 0 41 39 80 80 80 19 0 40 -9 55
-25z m310 0 c52 -51 15 -135 -60 -135 -46 0 -85 36 -85 80 0 44 39 80 85 80
25 0 44 -8 60 -25z m297 11 c27 -20 39 -62 27 -93 -22 -57 -91 -72 -134 -28
-51 50 -17 135 53 135 20 0 45 -6 54 -14z m4378 -1541 l0 -1245 -2590 0 -2590
0 0 1245 0 1245 2590 0 2590 0 0 -1245z"/>
<path d="M2808 6323 c-4 -470 0 -1414 6 -1429 5 -12 220 -14 1439 -14 1498 0
1472 -1 1447 40 -7 12 -68 14 -374 14 l-366 -1 -2 346 -3 346 -140 0 -140 0
-3 -348 -2 -348 -116 3 -116 3 2 211 c0 171 -2 213 -14 223 -9 8 -54 11 -142
9 l-129 -3 -3 -221 -2 -220 -380 0 -380 0 -2 165 -3 166 -140 0 -140 0 -3
-167 -2 -168 -120 0 -120 0 -2 833 -3 832 -22 3 -23 3 -2 -278z"/>
<path d="M6455 6451 c-295 -47 -529 -259 -591 -537 -22 -103 -15 -293 15 -377
47 -134 122 -240 229 -326 319 -256 811 -173 1028 175 79 127 122 298 108 426
-7 60 -21 82 -46 73 -12 -5 -15 -27 -15 -113 0 -193 -55 -328 -190 -465 -110
-112 -252 -174 -418 -184 -393 -23 -712 315 -664 704 25 193 122 353 278 458
208 138 462 147 679 23 54 -30 212 -175 212 -194 0 -5 -15 -9 -32 -9 -28 0
-33 -4 -33 -24 0 -21 9 -27 74 -49 89 -30 91 -28 111 78 12 62 11 73 -1 81
-22 14 -28 11 -47 -20 l-18 -29 -46 57 c-52 66 -146 140 -230 182 -113 57
-289 87 -403 70z"/>
<path d="M6520 6084 c-6 -14 -10 -96 -10 -183 0 -123 3 -161 14 -170 9 -8 57
-11 147 -9 l134 3 0 25 0 25 -112 3 -113 3 0 145 c0 81 -5 154 -10 165 -15 27
-39 24 -50 -7z"/>
<path d="M2250 3645 l0 -295 29 -32 29 -33 784 -3 c769 -2 784 -2 816 18 18
11 37 32 42 46 6 14 10 149 10 310 l0 284 -25 0 -25 0 0 -289 c0 -288 0 -290
-22 -305 -20 -14 -111 -16 -789 -16 l-768 0 -20 26 c-20 26 -21 39 -21 305 0
272 0 279 -20 279 -20 0 -20 -7 -20 -295z"/>
<path d="M4202 3641 l3 -301 28 -27 27 -28 780 -3 c685 -2 784 0 810 13 57 30
60 46 60 360 l0 285 -25 0 -25 0 0 -285 c0 -272 -1 -286 -20 -305 -20 -20 -33
-20 -788 -20 -729 0 -770 1 -785 18 -15 16 -17 56 -19 303 l-3 284 -23 3 -23
4 3 -301z"/>
<path d="M6130 3655 c0 -236 3 -291 15 -315 32 -62 -1 -60 840 -60 850 0 817
-3 849 65 13 28 16 79 16 314 l0 281 -25 0 -25 0 0 -285 c0 -272 -1 -286 -20
-305 -20 -20 -33 -20 -793 -20 -737 0 -775 1 -790 18 -15 16 -17 53 -17 305
l0 287 -25 0 -25 0 0 -285z"/>
<path d="M2964 3795 c-3 -8 -3 -19 1 -25 9 -14 791 -14 800 0 4 6 1 17 -5 25
-18 22 -788 22 -796 0z"/>
<path d="M4914 3796 c-3 -8 -3 -20 1 -26 4 -7 137 -10 401 -10 l395 0 -3 23
-3 22 -393 3 c-337 2 -393 0 -398 -12z"/>
<path d="M6850 3795 c-9 -10 -10 -19 -3 -26 6 -6 159 -8 404 -7 386 3 394 3
394 23 0 20 -8 20 -391 23 -344 2 -393 0 -404 -13z"/>
<path d="M2964 3665 c-3 -8 -3 -19 1 -25 10 -16 791 -14 797 3 14 36 7 37
-398 37 -336 0 -395 -2 -400 -15z"/>
<path d="M4914 3666 c-3 -8 -3 -20 1 -26 4 -7 137 -10 401 -10 l395 0 -3 23
-3 22 -393 3 c-337 2 -393 0 -398 -12z"/>
<path d="M6843 3664 c-3 -8 -1 -20 4 -25 5 -5 166 -8 404 -7 386 3 394 3 394
23 0 20 -8 20 -398 23 -354 2 -398 1 -404 -14z"/>
<path d="M2964 3535 c-12 -31 7 -35 186 -35 181 0 195 3 182 38 -7 19 -361 17
-368 -3z"/>
<path d="M4914 3535 c-12 -31 7 -35 186 -35 153 0 179 2 184 16 3 9 4 20 0 25
-3 5 -86 9 -185 9 -148 0 -181 -3 -185 -15z"/>
<path d="M6846 3541 c-4 -5 -3 -16 0 -25 5 -14 31 -16 189 -16 186 0 200 3
187 38 -5 15 -367 18 -376 3z"/>
<path d="M4679 2152 c-160 -84 -186 -292 -50 -415 41 -37 119 -67 176 -67 52
0 122 26 165 60 l41 33 -37 38 -37 38 -37 -25 c-77 -51 -168 -37 -211 33 -32
51 -24 142 16 183 55 57 120 62 191 14 l37 -25 38 37 c36 35 38 39 22 56 -8
10 -38 29 -66 43 -74 37 -174 36 -248 -3z"/>
<path d="M5216 2165 c-56 -20 -107 -65 -136 -121 -34 -65 -35 -169 -3 -230 56
-106 175 -159 297 -134 125 26 206 122 206 245 0 106 -51 188 -145 231 -58 28
-156 32 -219 9z m162 -105 c34 -15 47 -29 64 -66 58 -133 -61 -258 -188 -198
-53 25 -77 73 -72 144 5 63 20 88 73 121 38 24 69 24 123 -1z"/>
<path d="M3620 1925 l0 -245 60 0 60 0 0 245 0 245 -60 0 -60 0 0 -245z"/>
<path d="M3830 2120 l0 -49 122 -3 122 -3 -127 -150 c-120 -141 -127 -152
-127 -192 l0 -43 215 0 215 0 0 50 0 50 -130 0 c-71 0 -130 3 -130 8 0 4 57
72 125 152 117 136 125 148 125 188 l0 42 -205 0 -205 0 0 -50z"/>
<path d="M4335 1928 l0 -243 58 -3 57 -3 0 246 0 245 -58 0 -57 0 0 -242z"/>
<path d="M5670 1925 l0 -245 60 0 59 0 3 146 3 146 114 -146 114 -146 48 0 49
0 0 245 0 245 -60 0 -59 0 -3 -139 -3 -138 -105 138 -105 138 -57 1 -58 0 0
-245z"/>
<path d="M6190 2120 l0 -50 75 0 75 0 0 -195 0 -195 60 0 60 0 0 195 0 195 75
0 75 0 0 50 0 50 -210 0 -210 0 0 -50z"/>
</g>
</svg>
